# This file uses centimeters as units for non-parametric coordinates.

mtllib ssssss.mtl
g default
v -3894.849365 -293.445862 3894.849365
v 3894.849365 -41.796566 3894.849365
v -3903.763184 234.614548 -3894.849365
v 3901.263916 -43.830292 -3896.226074
v -3894.849365 -293.445862 3115.879395
v 3894.849365 -41.796566 3115.879395
v -3115.879395 -293.445862 3894.849365
v -3115.879395 -293.445923 3115.879395
v -3124.793213 234.614548 -3894.849365
v -4874.728027 110.382507 -2492.703613
v -4095.757812 110.144730 -2492.703613
v 4522.393066 -240.742340 -2627.390137
v -4423.153809 234.614548 -3193.776367
v -3644.183838 234.614548 -3193.776367
v 4240.345703 -151.326813 -3267.928467
v -3894.849365 -87.096748 311.587921
v -3115.879395 -235.835464 311.587799
v 3894.849365 -41.796566 311.587921
v -4874.728027 -87.096748 -1370.987061
v -4095.758057 -235.835464 -1370.987061
v 4522.393066 -240.742340 -1505.673706
v -3894.849365 -79.092804 1994.162842
v -3115.879639 -79.092834 1994.162842
v 3894.849365 -41.796566 1994.162842
v -2414.806396 -180.342865 3894.849365
v -2414.806396 -180.342865 3115.879395
v -2414.806641 -446.430481 1994.162720
v -2414.806396 -636.730896 311.587799
v -2845.113770 -636.730896 -1370.987061
v -2949.526367 29.252293 -2492.703613
v -2666.674805 110.382484 -3193.776367
v -2414.806396 110.382507 -3894.849365
v -521.909607 339.888214 3894.849365
v -521.909607 339.888153 3115.879395
v -521.909851 -149.966217 1994.162842
v -521.909607 -203.286987 311.587891
v -521.909607 -442.692139 -1370.987061
v -521.909607 -442.692139 -2877.646729
v -521.909607 -41.796589 -4070.353027
v -521.909607 -41.796566 -4771.426270
v 1244.793945 339.888214 3894.849365
v 1244.793945 339.888153 3115.879639
v 1244.793701 -149.966217 1994.162964
v 1244.793945 -203.286987 311.587891
v 1244.793945 -442.692139 -1370.987061
v 1244.793945 -442.692139 -2877.646729
v 1244.793945 -41.796589 -4070.353027
v 1244.793945 -41.796566 -4771.426270
v 3099.831787 -41.796566 3894.849365
v 3099.832764 -41.796589 3115.879639
v 3099.831787 -41.796589 1994.162842
v 3099.832764 -442.692139 311.587891
v 3563.540283 -589.698120 -1470.510254
v 3660.212158 -219.449692 -2612.975098
v 3400.168945 -137.010117 -3258.236084
v 3102.396240 -42.609283 -3895.399414
v 3417.839355 -41.796566 3894.849365
v 3417.839355 -41.796589 3115.879639
v 3417.839355 -41.796589 1994.162964
v 3417.839355 -41.796589 311.587891
v 4045.382568 -240.742340 -1505.673584
v 4045.382568 -240.742340 -2627.390137
v 3763.335449 -151.326828 -3267.928467
v 3424.254395 -43.830292 -3896.226074
v -10452.597656 -447.536224 10452.597656
v -8362.076172 -447.536224 10452.597656
v -10452.597656 -447.536224 -10452.597656
v -8362.076172 -447.536224 -10452.597656
v -10452.597656 -447.536224 8362.076172
v 10452.597656 -447.536224 10452.597656
v 10452.597656 -447.536224 8362.076172
v -10452.597656 -447.536224 5351.729004
v 10452.597656 -447.536224 5351.729004
v -6480.611328 -447.536224 10452.597656
v -6480.611328 -447.536224 -10452.597656
v -10452.597656 -447.536224 -6689.664062
v -10452.597656 -447.536224 -8571.130859
v 10452.597656 -447.536224 -6689.664062
v 10452.597656 -447.536224 -8571.130859
v 10452.597656 -447.536224 -10452.597656
v -10452.597656 -447.536224 836.208008
v -10452.597656 -447.536224 -3679.316162
v 10452.597656 -447.536224 836.208008
v 10452.597656 -447.536224 -3679.316162
v -1400.646851 -447.536224 10452.597656
v -1400.646851 -447.536224 -10452.597656
v 3340.650391 -447.536224 10452.597656
v 3340.650391 -447.536224 -10452.597656
v 8319.013672 -447.536224 10452.597656
v 8319.013672 -447.536224 -10452.597656
v 9172.447266 -447.536224 10452.597656
v 9172.447266 -447.536224 -10452.597656
v -5840.546875 102.589775 5840.546875
v -6991.173340 123.975792 6991.173340
v -4671.836426 102.436928 5839.794922
v -5592.332031 124.100647 6990.416016
v -5836.697754 222.801666 -5836.697754
v -6983.381348 125.262207 -6983.381348
v -4672.198242 222.795563 -5837.699219
v -5587.495605 125.099052 -6984.369141
v -5839.794434 102.436600 4671.834961
v -6990.415527 124.100914 5592.331543
v 5836.408203 159.437119 5836.408203
v 6986.709473 124.712830 6986.709473
v 5837.310059 159.530685 4669.848633
v 6987.604004 124.564957 5590.083496
v -5837.142578 150.974182 2988.617188
v -6987.665039 124.554993 3577.684326
v 5836.887207 159.486740 2988.486084
v 6987.184082 124.634384 3577.437744
v -3619.706299 127.965508 5838.233887
v -4333.214355 124.325821 6989.052246
v -3618.889893 194.345673 -5836.916016
v -4331.101074 124.888664 -6985.644531
v -5893.923340 182.498703 -3560.255371
v -7042.792969 115.452705 -4507.390137
v -5869.490234 223.481079 -4694.515137
v -7015.647949 119.934769 -5752.832520
v 5860.309082 84.653641 -3672.474121
v 7010.567383 120.773628 -4486.764648
v 5852.098145 123.497787 -4744.661621
v 7002.922363 122.035866 -5742.396484
v 5837.292480 158.909515 -5836.136230
v 6987.029785 124.659882 -6987.029785
v -5836.862305 149.107422 466.949066
v -6987.425781 124.594467 558.994263
v -5863.666016 109.762520 -1940.710083
v -7014.444824 120.133369 -2469.085693
v 5836.419434 159.438324 466.913666
v 6986.720703 124.710976 558.937805
v 5846.867188 81.384293 -2032.255005
v 6996.937988 123.023880 -2462.923340
v -782.318848 246.851074 5838.203613
v -935.667786 125.390938 6982.602051
v -741.828796 128.305344 -5841.514648
v -936.971497 123.784691 -6992.330566
v 1865.980591 246.837570 5838.486328
v 2231.729004 125.345024 6982.879395
v 1775.860107 130.426773 -5854.860352
v 2239.006592 121.585342 -7005.651367
v 4645.788574 159.529266 5837.296387
v 5561.285156 124.567230 6987.591309
v 4646.190918 159.319092 -5837.190918
v 5561.205566 124.583672 -6987.491211
v 5122.495605 159.541565 5837.415039
v 6131.911133 124.547829 6987.708496
v 5123.437500 159.013214 -5837.128418
v 6131.674316 124.592384 -6987.438965
vt 0.375000 0.250000
vt 0.625000 0.250000
vt 0.375000 0.500000
vt 0.625000 0.500000
vt 0.375000 0.275000
vt 0.625000 0.275000
vt 0.400000 0.250000
vt 0.400000 0.275000
vt 0.400000 0.500000
vt 0.375000 0.455000
vt 0.400000 0.455000
vt 0.625000 0.455000
vt 0.375000 0.477500
vt 0.400000 0.477500
vt 0.625000 0.477500
vt 0.375000 0.365000
vt 0.400000 0.365000
vt 0.625000 0.365000
vt 0.375000 0.419000
vt 0.400000 0.419000
vt 0.625000 0.419000
vt 0.375000 0.311000
vt 0.400000 0.311000
vt 0.625000 0.311000
vt 0.422500 0.250000
vt 0.422500 0.275000
vt 0.422500 0.311000
vt 0.422500 0.365000
vt 0.422500 0.419000
vt 0.422500 0.455000
vt 0.422500 0.477500
vt 0.422500 0.500000
vt 0.483250 0.250000
vt 0.483250 0.275000
vt 0.483250 0.311000
vt 0.483250 0.365000
vt 0.483250 0.419000
vt 0.483250 0.455000
vt 0.483250 0.477500
vt 0.483250 0.500000
vt 0.539950 0.250000
vt 0.539950 0.275000
vt 0.539950 0.311000
vt 0.539950 0.365000
vt 0.539950 0.419000
vt 0.539950 0.455000
vt 0.539950 0.477500
vt 0.539950 0.500000
vt 0.599485 0.250000
vt 0.599485 0.275000
vt 0.599485 0.311000
vt 0.599485 0.365000
vt 0.599485 0.419000
vt 0.599485 0.455000
vt 0.599485 0.477500
vt 0.599485 0.500000
vt 0.609691 0.250000
vt 0.609691 0.275000
vt 0.609691 0.311000
vt 0.609691 0.365000
vt 0.609691 0.419000
vt 0.609691 0.455000
vt 0.609691 0.477500
vt 0.609691 0.500000
vt 1.000000 0.772396
vt 1.000000 1.000000
vt 0.127743 1.000000
vt 0.000000 1.000000
vt 1.000000 0.772097
vt 0.872257 1.000000
vt 1.000000 0.772098
vt 1.000000 1.000000
vt 0.124531 1.000000
vt 1.000000 0.770462
vt 0.998181 1.000000
vt 0.115959 1.000000
vt 0.000000 1.000000
vt 1.000000 0.771266
vt 0.886779 1.000000
vt 0.000000 1.000000
vt 1.000000 0.770955
vt 0.886391 1.000000
vt 0.000000 1.000000
vt 1.000000 0.771045
vt 0.884585 1.000000
vt 1.000000 0.770753
vt 1.000000 1.000000
vt 0.118178 1.000000
vt 0.000000 1.000000
vt 0.999999 0.771153
vt 0.875416 1.000000
vt 1.000000 0.771112
vt 1.000000 1.000000
vt 0.113625 1.000000
vt 0.000000 1.000000
vt 1.000000 0.770934
vt 0.999610 0.999610
vt 1.000000 0.770944
vt 1.000000 1.000000
vt 0.000614 0.999386
vt 1.000000 0.771478
vt 1.000000 1.000000
vt 0.007248 0.992752
vt 0.000000 1.000000
vt 1.000000 0.651514
vt 1.000000 1.000000
vt 1.000000 0.662176
vt 0.905267 1.000000
vt 0.117986 1.000000
vt 0.075224 1.000000
vt 1.000000 0.726534
vt 0.912423 1.000000
vt 1.000000 0.707332
vt 0.886581 1.000000
vt 0.018393 1.000000
vt 0.017054 1.000000
vt 1.000000 0.700225
vt 0.869454 1.000000
vt 1.000000 0.741532
vt 0.878404 1.000000
vt 0.000000 1.000000
vt 1.000000 0.770520
vt 1.000000 1.000000
vt 0.125922 1.000000
vt 0.004377 0.995623
vt 1.000000 0.642518
vt 0.970752 1.000000
vt 1.000000 0.770758
vt 0.991269 0.991269
vt 0.001365 1.000000
vt 1.000000 0.771466
vt 0.999803 0.999803
vt 0.000285 1.000000
vt 0.014791 0.985209
vt 1.000000 0.659640
vt 0.977883 1.000000
vt 1.000000 0.771578
vt 0.889293 1.000000
vt 0.000000 1.000000
vt 0.114474 1.000000
vt 1.000000 0.771014
vt 1.000000 1.000000
vt 1.000000 0.771106
vt 0.870225 1.000000
vt 0.000000 1.000000
vt 0.131842 1.000000
vt 1.000000 0.770914
vt 1.000000 1.000000
vt 0.000000 0.000000
vt 1.000000 0.000000
vt 0.000000 0.772098
vt 0.000000 0.000000
vt 1.000000 0.000000
vt 0.001592 0.770868
vt 0.000000 0.000000
vt 1.000000 0.000000
vt 0.000000 0.772396
vt 0.000000 0.000000
vt 1.000000 0.000000
vt 0.000000 0.771112
vt 0.000000 0.000000
vt 1.000000 0.000000
vt 0.000000 0.772098
vt 0.000000 0.000000
vt 1.000000 0.000000
vt 0.000000 0.770943
vt 0.000000 0.000000
vt 1.000000 0.000000
vt 0.000001 0.771478
vt 0.000000 0.000000
vt 1.000000 0.000000
vt 0.000000 0.771266
vt 0.000000 0.000000
vt 1.000000 0.000000
vt 0.000000 0.662176
vt 0.000000 0.000000
vt 1.000000 0.000000
vt 0.000000 0.741532
vt 0.000000 0.000000
vt 1.000000 0.000000
vt 0.000000 0.726534
vt 0.000000 0.000000
vt 1.000000 0.000000
vt 0.000000 0.770520
vt 0.000000 0.000000
vt 1.000000 0.000000
vt 0.000000 0.770934
vt 0.000000 0.000000
vt 1.000000 0.000000
vt 0.000000 0.700225
vt 0.000000 0.000000
vt 1.000000 0.000000
vt 0.000000 0.642518
vt 0.000000 0.000000
vt 1.000000 0.000000
vt 0.000000 0.707332
vt 0.000000 0.000000
vt 1.000000 0.000000
vt 0.000000 0.771045
vt 0.000000 0.000000
vt 1.000000 0.000000
vt 0.000000 0.770758
vt 0.000000 0.000000
vt 1.000000 0.000000
vt 0.000000 0.771466
vt 0.000000 0.000000
vt 1.000000 0.000000
vt 0.000000 0.770955
vt 0.000000 0.000000
vt 1.000000 0.000000
vt 0.000000 0.771578
vt 0.000000 0.000000
vt 1.000000 0.000000
vt 0.000000 0.651514
vt 0.000000 0.000000
vt 1.000000 0.000000
vt 0.000000 0.771106
vt 0.000000 0.000000
vt 1.000000 0.000000
vt 0.000000 0.659640
vt 0.000000 0.000000
vt 1.000000 0.000000
vt 0.000000 0.771153
vt 0.000000 0.000000
vt 1.000000 0.000000
vt 0.000000 0.771015
vt 0.000000 0.000000
vt 1.000000 0.000000
vt 0.000000 0.770753
vt 0.000000 0.000000
vt 1.000000 0.000000
vt 0.000000 0.770913
vt 0.000000 0.142749
vt 1.000000 0.142938
vt 1.000000 1.000000
vt 0.000000 1.000000
vt 0.000000 0.141009
vt 1.000000 0.141253
vt 1.000000 1.000000
vt 0.000000 1.000000
vt 0.000000 0.142938
vt 1.000000 0.142750
vt 1.000000 1.000000
vt 0.000000 1.000000
vt 0.000002 0.142052
vt 1.000000 0.141833
vt 1.000000 1.000000
vt 0.000000 1.000000
vt 0.000000 0.142750
vt 1.000000 0.142069
vt 1.000000 1.000000
vt 0.000000 1.000000
vt 0.000000 0.141950
vt 1.000000 0.142054
vt 1.000000 1.000000
vt 0.000000 1.000000
vt 0.000000 0.142412
vt 1.000000 0.142750
vt 1.000000 1.000000
vt 0.000000 1.000000
vt 0.000000 0.141253
vt 1.000000 0.141569
vt 1.000000 1.000000
vt 0.000000 1.000000
vt 0.000001 0.155718
vt 1.000000 0.148998
vt 1.000000 1.000000
vt 0.000000 1.000000
vt 0.000000 0.145847
vt 1.000000 0.147740
vt 1.000000 1.000000
vt 0.000000 1.000000
vt 0.000000 0.148996
vt 1.000000 0.141008
vt 1.000000 1.000000
vt 0.000000 1.000000
vt 0.000000 0.141912
vt 1.000000 0.145847
vt 1.000000 1.000000
vt 0.000000 1.000000
vt 0.000000 0.142010
vt 1.000000 0.148700
vt 1.000000 1.000000
vt 0.000000 1.000000
vt 0.000000 0.144365
vt 1.000000 0.141835
vt 1.000000 1.000000
vt 0.000000 1.000000
vt 0.000001 0.148700
vt 1.000000 0.155719
vt 1.000000 1.000000
vt 0.000000 1.000000
vt 0.000000 0.147740
vt 1.000000 0.144365
vt 1.000000 1.000000
vt 0.000000 1.000000
vt 0.000000 0.142069
vt 1.000000 0.142010
vt 1.000000 1.000000
vt 0.000000 1.000000
vt 0.000000 0.141835
vt 1.000000 0.141950
vt 1.000000 1.000000
vt 0.000000 1.000000
vt 0.000000 0.140815
vt 1.000000 0.142412
vt 1.000000 1.000000
vt 0.000000 1.000000
vt 0.000000 0.141569
vt 1.000000 0.143224
vt 1.000000 1.000000
vt 0.000000 1.000000
vt 0.000000 0.140884
vt 1.000000 0.140815
vt 1.000000 1.000000
vt 0.000000 1.000000
vt 0.000000 0.143224
vt 1.000000 0.146523
vt 1.000000 1.000000
vt 0.000000 1.000000
vt 0.000000 0.142051
vt 1.000000 0.140884
vt 1.000000 1.000000
vt 0.000000 1.000000
vt 0.000000 0.146523
vt 1.000000 0.142026
vt 1.000000 1.000000
vt 0.000000 1.000000
vt 0.000000 0.142080
vt 0.999999 0.142051
vt 1.000000 1.000000
vt 0.000001 1.000000
vt 0.000000 0.142016
vt 0.999999 0.142013
vt 0.999999 1.000000
vt 0.000000 1.000000
vt 0.000000 0.141833
vt 1.000000 0.142080
vt 1.000000 1.000000
vt 0.000000 1.000000
vt 0.000000 0.142013
vt 1.000000 0.141912
vt 1.000000 1.000000
vt 0.000000 1.000000
vn -0.021653 0.998205 0.055835
vn 0.059663 0.991513 0.115511
vn 0.071102 0.997426 -0.009311
vn -0.001879 0.999992 -0.003659
vn 0.091146 0.991658 -0.091146
vn -0.058894 0.984109 -0.167515
vn 0.018473 0.998411 0.053231
vn 0.164720 0.983025 0.080799
vn -0.149706 0.983898 -0.097641
vn -0.162108 0.975514 -0.148642
vn 0.167856 0.964798 0.202460
vn 0.072339 0.996810 0.033727
vn 0.138329 0.990382 -0.002896
vn 0.219724 0.971896 0.084491
vn 0.110333 0.952216 0.284800
vn 0.028405 0.991731 0.125149
vn 0.087696 0.992170 0.088929
vn 0.128836 0.952135 0.277202
vn 0.125396 0.991688 0.028817
vn 0.213027 0.977015 -0.007826
vn 0.312846 0.943240 -0.111471
vn 0.136421 0.989834 -0.040220
vn -0.036540 0.988517 -0.146628
vn -0.000951 0.996662 -0.081630
vn -0.082736 0.996392 -0.018930
vn -0.118364 0.968759 -0.217937
vn -0.102941 0.977735 -0.182861
vn -0.089265 0.993315 -0.073190
vn -0.023099 0.999633 0.014141
vn 0.069323 0.976531 0.203915
vn 0.071824 0.981376 0.178166
vn 0.035421 0.996643 0.073817
vn 0.057186 0.998351 -0.005037
vn 0.064050 0.980172 -0.187509
vn 0.025413 0.983768 -0.177639
vn 0.033992 0.994225 -0.101795
vn 0.021881 0.999320 -0.029682
vn -0.025991 0.984978 0.170712
vn -0.023834 0.981253 0.191244
vn -0.011976 0.994408 0.104921
vn 0.109854 0.991629 -0.067846
vn 0.107840 0.988207 -0.108707
vn -0.012120 0.988241 -0.152424
vn -0.052690 0.989474 -0.134781
vn -0.096571 0.995272 -0.010427
vn -0.068588 0.982781 0.171572
vn -0.063710 0.972682 0.223228
vn -0.017789 0.995094 0.097319
vn 0.000000 0.997080 -0.076365
vn -0.000000 1.000000 -0.000000
vn -0.149516 0.988355 -0.028259
vn -0.353949 0.924149 -0.143766
vn -0.268819 0.958422 -0.095728
vn -0.104547 0.990368 0.090785
vn 0.017842 0.989582 0.142863
vn 0.004151 0.993248 0.115940
vn -0.059299 0.997580 -0.036314
vn -0.087314 0.996181 -0.000000
vn -0.087096 0.996200 -0.000000
vn -0.103470 0.993691 -0.043279
vn -0.154154 0.985757 -0.067235
vn -0.168038 0.985273 0.031642
vn -0.072620 0.992137 0.101933
vn -0.022915 0.994323 0.103911
vn 0.037211 0.998614 -0.037211
vn -0.075187 0.994331 0.075187
vn -0.000595 0.991926 0.126814
vn -0.015344 0.991667 -0.127910
vn 0.114016 0.993213 0.022969
vn -0.132876 0.991132 0.000829
vn -0.002319 0.989875 0.141919
vn -0.062579 0.996303 -0.058853
vn -0.029587 0.999074 -0.031245
vn -0.074426 0.993726 -0.083483
vn -0.147641 0.989041 0.000875
vn -0.046035 0.998858 0.012775
vn 0.016868 0.998875 -0.044310
vn 0.000661 0.989123 -0.147087
vn 0.038334 0.999085 -0.018947
vn 0.001696 0.989124 -0.147077
vn 0.086644 0.995833 0.028468
vn -0.135545 0.990770 0.001270
vn -0.006155 0.999974 -0.003778
vn 0.095488 0.993712 0.058460
vn 0.140398 0.990095 0.000000
vn -0.039714 0.999211 0.000000
vn 0.000000 0.998711 -0.050766
vn 0.000000 0.991065 0.133378
vn 0.139734 0.990189 0.000000
vn -0.040914 0.999163 -0.000000
vn 0.064094 0.997864 -0.012632
vn -0.134274 0.990944 -0.000766
vn 0.134115 0.990965 -0.001334
vn -0.066677 0.997474 -0.024510
vn -0.002091 0.989361 0.145464
vn -0.046619 0.998837 0.012309
vn 0.021309 0.999231 0.032913
vn 0.001195 0.990715 -0.135947
vn -0.040041 0.998183 0.045035
vn -0.147353 0.989079 0.003008
vn -0.138191 0.990405 0.001198
vn 0.035014 0.999346 0.009086
vn -0.088226 0.995637 0.030388
vn 0.133366 0.991066 0.001733
vn 0.135236 0.990808 0.003213
vn -0.031763 0.997725 0.059458
vn -0.102858 0.994302 -0.027994
vn 0.130353 0.991467 -0.001264
vn 0.091245 0.993914 -0.061725
vn 0.003949 0.999592 0.028304
vn 0.000022 0.991084 -0.133242
vn 0.000323 0.998664 0.051667
vn 0.001712 0.989230 0.146357
vn 0.037457 0.999112 0.019311
vn -0.010871 0.998525 0.053200
vn -0.000633 0.990925 -0.134415
vn 0.001148 0.988649 0.150240
vn 0.036964 0.999314 -0.002369
vn -0.009438 0.999584 0.027270
vn -0.000404 0.989154 -0.146880
vn -0.081997 0.993254 0.081998
vn 0.000000 0.986642 0.162903
vn 0.000000 0.986642 -0.162903
vn -0.077532 0.993234 -0.086459
vn -0.162903 0.986642 -0.000000
vn 0.101672 0.992868 0.062259
vn 0.162903 0.986642 -0.000000
vn -0.162903 0.986642 -0.000000
vn 0.162903 0.986642 0.000000
vn -0.000000 0.986642 0.162903
vn 0.000000 0.986642 -0.162903
vn -0.162903 0.986642 0.000000
vn -0.162903 0.986642 0.000000
vn 0.162903 0.986642 -0.000000
vn 0.162903 0.986642 0.000000
vn 0.097499 0.993014 -0.066457
vn -0.162903 0.986642 -0.000000
vn -0.162903 0.986642 -0.000000
vn 0.162903 0.986642 0.000000
vn 0.162903 0.986642 0.000000
vn 0.000000 0.986642 0.162903
vn -0.000000 0.986642 -0.162903
vn -0.000000 0.986642 0.162903
vn 0.000000 0.986642 -0.162903
vn 0.000000 0.986642 0.162903
vn 0.000000 0.986642 -0.162903
vn 0.000000 0.986642 0.162903
vn 0.000000 0.986642 -0.162903
s 1
g pCube8
usemtl initialShadingGroup
f 13/13/1 14/14/2 9/9/3 3/3/4
f 1/1/5 7/7/6 8/8/7 5/5/8
f 8/8/7 7/7/6 25/25/9 26/26/10
f 9/9/3 14/14/2 31/31/11 32/32/12
f 19/19/13 20/20/14 11/11/15 10/10/16
f 29/29/17 30/30/18 11/11/15 20/20/14
f 10/10/16 11/11/15 14/14/2 13/13/1
f 30/30/18 31/31/11 14/14/2 11/11/15
f 22/22/19 23/23/20 17/17/21 16/16/22
f 27/27/23 28/28/24 17/17/21 23/23/20
f 16/16/22 17/17/21 20/20/14 19/19/13
f 28/28/24 29/29/17 20/20/14 17/17/21
f 5/5/8 8/8/7 23/23/20 22/22/19
f 26/26/10 27/27/23 23/23/20 8/8/7
f 26/26/10 25/25/9 33/33/25 34/34/26
f 34/34/26 35/35/27 27/27/23 26/26/10
f 35/35/27 36/36/28 28/28/24 27/27/23
f 36/36/28 37/37/29 29/29/17 28/28/24
f 37/37/29 38/38/30 30/30/18 29/29/17
f 38/38/30 39/39/31 31/31/11 30/30/18
f 32/32/12 31/31/11 39/39/31 40/40/32
f 34/34/26 33/33/25 41/41/33 42/42/34
f 42/42/34 43/43/35 35/35/27 34/34/26
f 43/43/35 44/44/36 36/36/28 35/35/27
f 44/44/36 45/45/37 37/37/29 36/36/28
f 45/45/37 46/46/38 38/38/30 37/37/29
f 46/46/38 47/47/39 39/39/31 38/38/30
f 40/40/32 39/39/31 47/47/39 48/48/40
f 42/42/34 41/41/33 49/49/41 50/50/42
f 50/50/42 51/51/43 43/43/35 42/42/34
f 51/51/43 52/52/44 44/44/36 43/43/35
f 52/52/44 53/53/45 45/45/37 44/44/36
f 53/53/45 54/54/46 46/46/38 45/45/37
f 54/54/46 55/55/47 47/47/39 46/46/38
f 48/48/40 47/47/39 55/55/47 56/56/48
f 50/50/42 49/49/41 57/57/49 58/58/50
f 58/58/50 59/59/51 51/51/43 50/50/42
f 59/59/51 60/60/52 52/52/44 51/51/43
f 60/60/52 61/61/53 53/53/45 52/52/44
f 61/61/53 62/62/54 54/54/46 53/53/45
f 62/62/54 63/63/55 55/55/47 54/54/46
f 56/56/48 55/55/47 63/63/55 64/64/56
f 58/58/50 57/57/49 2/2/57 6/6/58
f 24/24/59 59/59/51 58/58/50 6/6/58
f 18/18/60 60/60/52 59/59/51 24/24/59
f 21/21/61 61/61/53 60/60/52 18/18/60
f 12/12/62 62/62/54 61/61/53 21/21/61
f 15/15/63 63/63/55 62/62/54 12/12/62
f 64/64/56 63/63/55 15/15/63 4/4/64
f 93/65/65 94/66/66 96/67/67 95/151/68
f 94/68/66 93/157/65 101/69/69 102/70/70
f 95/71/68 96/72/67 112/73/71 111/169/72
f 97/74/73 98/75/74 118/76/75 117/181/76
f 98/77/74 97/154/73 99/78/77 100/79/78
f 100/80/78 99/172/77 113/81/79 114/82/80
f 102/83/70 101/163/69 107/84/81 108/85/82
f 103/86/83 104/87/84 106/88/85 105/160/86
f 104/89/84 103/229/83 145/90/87 146/91/88
f 105/92/86 106/93/85 110/94/89 109/166/90
f 108/95/82 107/199/81 125/96/91 126/97/92
f 109/98/90 110/99/89 130/100/93 129/202/94
f 111/101/72 112/102/71 134/103/95 133/205/96
f 114/104/80 113/208/79 135/105/97 136/106/98
f 115/107/99 116/108/100 128/109/101 127/193/102
f 116/110/100 115/175/99 117/111/76 118/112/75
f 119/113/103 120/114/104 122/115/105 121/178/106
f 120/116/104 119/196/103 131/117/107 132/118/108
f 121/119/106 122/120/105 124/121/109 123/184/110
f 123/122/110 124/123/109 148/124/111 147/232/112
f 126/125/92 125/187/91 127/126/102 128/127/101
f 129/128/94 130/129/93 132/130/108 131/190/107
f 133/131/96 134/132/95 138/133/113 137/211/114
f 136/134/98 135/214/97 139/135/115 140/136/116
f 137/137/114 138/138/113 142/139/117 141/217/118
f 140/140/116 139/220/115 143/141/119 144/142/120
f 141/143/118 142/144/117 146/145/88 145/223/87
f 144/146/120 143/226/119 147/147/112 148/148/111
f 7/149/6 1/150/5 93/65/65 95/151/68
f 3/152/4 9/153/3 99/78/77 97/154/73
f 1/155/5 5/156/8 101/69/69 93/157/65
f 6/158/58 2/159/57 103/86/83 105/160/86
f 5/161/8 22/162/19 107/84/81 101/163/69
f 24/164/59 6/165/58 105/92/86 109/166/90
f 25/167/9 7/168/6 95/71/68 111/169/72
f 9/170/3 32/171/12 113/81/79 99/172/77
f 10/173/16 13/174/1 117/111/76 115/175/99
f 15/176/63 12/177/62 119/113/103 121/178/106
f 13/179/1 3/180/4 97/74/73 117/181/76
f 4/182/64 15/183/63 121/119/106 123/184/110
f 16/185/22 19/186/13 127/126/102 125/187/91
f 21/188/61 18/189/60 129/128/94 131/190/107
f 19/191/13 10/192/16 115/107/99 127/193/102
f 12/194/62 21/195/61 131/117/107 119/196/103
f 22/197/19 16/198/22 125/96/91 107/199/81
f 18/200/60 24/201/59 109/98/90 129/202/94
f 33/203/25 25/204/9 111/101/72 133/205/96
f 32/206/12 40/207/32 135/105/97 113/208/79
f 41/209/33 33/210/25 133/131/96 137/211/114
f 40/212/32 48/213/40 139/135/115 135/214/97
f 49/215/41 41/216/33 137/137/114 141/217/118
f 48/218/40 56/219/48 143/141/119 139/220/115
f 57/221/49 49/222/41 141/143/118 145/223/87
f 56/224/48 64/225/56 147/147/112 143/226/119
f 2/227/57 57/228/49 145/90/87 103/229/83
f 64/230/56 4/231/64 123/122/110 147/232/112
f 96/233/67 94/234/66 65/235/121 66/236/122
f 98/237/74 100/238/78 68/239/123 67/240/124
f 94/241/66 102/242/70 69/243/125 65/244/121
f 106/245/85 104/246/84 70/247/126 71/248/127
f 102/249/70 108/250/82 72/251/128 69/252/125
f 110/253/89 106/254/85 71/255/127 73/256/129
f 112/257/71 96/258/67 66/259/122 74/260/130
f 100/261/78 114/262/80 75/263/131 68/264/123
f 116/265/100 118/266/75 77/267/132 76/268/133
f 122/269/105 120/270/104 78/271/134 79/272/135
f 118/273/75 98/274/74 67/275/124 77/276/132
f 124/277/109 122/278/105 79/279/135 80/280/136
f 126/281/92 128/282/101 82/283/137 81/284/138
f 132/285/108 130/286/93 83/287/139 84/288/140
f 128/289/101 116/290/100 76/291/133 82/292/137
f 120/293/104 132/294/108 84/295/140 78/296/134
f 108/297/82 126/298/92 81/299/138 72/300/128
f 130/301/93 110/302/89 73/303/129 83/304/139
f 134/305/95 112/306/71 74/307/130 85/308/141
f 114/309/80 136/310/98 86/311/142 75/312/131
f 138/313/113 134/314/95 85/315/141 87/316/143
f 136/317/98 140/318/116 88/319/144 86/320/142
f 142/321/117 138/322/113 87/323/143 89/324/145
f 140/325/116 144/326/120 90/327/146 88/328/144
f 146/329/88 142/330/117 89/331/145 91/332/147
f 144/333/120 148/334/111 92/335/148 90/336/146
f 104/337/84 146/338/88 91/339/147 70/340/126
f 148/341/111 124/342/109 80/343/136 92/344/148
