# This file uses meters as units for non-parametric coordinates.

mtllib bottom floor collision.mtl
g default
v 195.785095 -274.363037 -227.609131
v 189.429871 -274.363037 340.346191
v -734.820801 -274.363037 -227.609131
v -734.820801 -274.363037 212.816406
v -744.345215 -28.059143 213.827393
v -293.075195 -274.363037 -227.609131
v -293.075806 -274.363037 212.816406
v -283.551483 -274.363037 602.184326
v 195.785095 -274.363037 602.184326
v 1103.049072 -274.363037 340.346191
v 1109.404297 -274.363037 602.184326
v 195.785095 -274.363037 -227.609131
v -725.865967 -274.363037 -227.609131
v -725.865967 -274.363037 212.816406
v -725.865906 229.955627 -223.668457
v 198.195923 229.955566 -223.668457
v -725.865967 -28.059143 213.827393
v -281.140045 229.955566 -223.668457
v -293.075195 -274.363037 -227.609131
v -293.075806 -274.363037 212.816406
v -1109.404297 229.955566 -602.184326
v 198.195923 229.955566 -602.184326
v -1109.404297 229.955566 -223.668457
v 198.195923 229.955566 -223.668457
v -192.628723 233.394409 -243.432861
v -706.364136 233.394226 -243.432861
v -706.364136 216.538818 -243.432861
v -192.628723 216.539124 -243.432861
v -706.364136 233.394226 -220.558838
v -192.628723 233.394409 -220.558838
v -706.364136 216.538879 -220.558838
v -192.628723 216.539124 -220.558838
v -706.364136 263.053284 -220.558838
v -192.628723 263.053528 -220.558838
v -192.628723 263.053528 -243.432861
v -706.364136 263.053284 -243.432861
v -706.364136 260.152039 -239.344971
v -192.628723 260.152283 -239.344971
v -192.628723 236.295715 -239.344971
v -706.364136 236.295471 -239.344971
v -706.364136 236.295471 -224.646729
v -192.628723 236.295715 -224.646729
v -192.628723 260.152283 -224.646729
v -706.364136 260.152039 -224.646729
v -706.364136 261.602539 -243.432861
v -706.364136 260.152039 -241.912109
v -192.628723 260.152283 -241.912109
v -192.628723 261.602783 -243.432861
v -192.628723 234.845276 -243.432861
v -192.628723 236.295715 -241.912109
v -706.364136 236.295471 -241.912109
v -706.364136 234.845032 -243.432861
v -706.364136 234.845032 -220.558838
v -706.364136 236.295471 -222.079590
v -192.628723 236.295715 -222.079590
v -192.628723 234.845276 -220.558838
v -192.628723 261.602783 -220.558838
v -192.628723 260.152283 -222.079590
v -706.364136 260.152039 -222.079590
v -706.364136 261.602539 -220.558838
v -283.551483 -263.800049 205.416260
v -730.888367 -16.922302 205.416260
v -732.350098 -38.429810 205.416260
v -285.013214 -285.307556 205.416260
v -730.888367 -16.922241 228.290283
v -283.551483 -263.799988 228.290283
v -730.888367 -35.781189 228.290283
v -283.551483 -282.658936 228.290283
v -730.888367 18.592590 228.290283
v -283.551483 -228.285156 228.290283
v -283.551483 -228.285156 205.416504
v -730.888367 18.592590 205.416504
v -727.846741 13.439880 209.504150
v -286.593109 -230.080627 209.504150
v -286.593109 -258.647339 209.504150
v -727.846741 -15.126770 209.504150
v -727.846741 -15.126770 224.202393
v -286.593109 -258.647339 224.202393
v -286.593109 -230.080627 224.202393
v -727.846741 13.439880 224.202393
v -729.367432 16.015930 205.416504
v -727.846741 13.439880 206.937012
v -286.593109 -230.080627 206.937012
v -285.072479 -229.182983 205.416260
v -285.072449 -261.223389 205.416260
v -286.593109 -258.647339 206.937012
v -727.846741 -15.126770 206.937012
v -729.367371 -16.024475 205.416260
v -729.367371 -16.024475 228.290283
v -727.846741 -15.126770 226.769775
v -286.593109 -258.647339 226.769775
v -285.072449 -261.223389 228.290283
v -285.072479 -229.182983 228.290283
v -286.593109 -230.080627 226.769775
v -727.846741 13.439880 226.769775
v -729.367432 16.015930 228.290283
v -283.551483 -280.275330 223.668457
v -730.888367 -16.922241 602.184326
v -730.888367 -16.922241 223.668213
v -283.551483 -280.275330 602.184326
v -730.888367 -16.922241 223.668457
v -1109.404297 -16.922241 223.668457
v -1109.404297 -16.922241 602.184326
v -730.888367 -16.922241 602.184326
v -712.636414 -16.922241 223.668701
v -712.636414 229.955505 -223.668213
v -712.636414 208.447998 -225.130127
v -712.636414 -38.429749 222.206787
v -735.510315 229.955566 -223.668457
v -735.510315 -16.922180 223.668457
v -735.510315 211.096619 -223.668457
v -735.510315 -35.781128 223.668457
v -735.510376 265.470398 -223.668213
v -735.510376 18.592651 223.668457
v -712.636475 18.592651 223.668457
v -712.636475 265.470398 -223.668457
v -716.724304 260.317688 -220.626709
v -716.724304 16.797180 220.626709
v -716.724304 -11.769531 220.626709
v -716.724304 231.751038 -220.626709
v -731.422424 231.751038 -220.626709
v -731.422424 -11.769531 220.626953
v -731.422424 16.797180 220.626953
v -731.422424 260.317688 -220.626709
v -712.636475 262.893738 -222.147461
v -714.157043 260.317688 -220.626709
v -714.157043 16.797180 220.626953
v -712.636414 17.694824 222.147705
v -712.636414 -14.345581 222.147705
v -714.157043 -11.769531 220.626953
v -714.157043 231.751038 -220.626709
v -712.636414 230.853333 -222.147217
v -735.510315 230.853333 -222.147461
v -733.989685 231.751038 -220.626709
v -733.989685 -11.769531 220.626709
v -735.510315 -14.345581 222.147461
v -735.510315 17.694824 222.147461
v -733.989685 16.797180 220.626709
v -733.989685 260.317688 -220.626709
v -735.510254 262.893738 -222.147461
v -730.888489 -33.397522 223.668457
v -1109.404297 229.955566 -223.668457
v -730.888367 229.955566 -223.668213
v -1109.404297 -33.397522 223.668457
v -207.648056 189.022705 -211.877686
v -157.024490 189.022705 -211.877686
v -207.648056 289.022705 -211.877686
v -157.024490 289.022705 -211.877686
v -207.648056 289.022705 -263.858643
v -157.024490 289.022705 -263.858643
v -207.648056 189.022705 -263.858643
v -157.024490 189.022705 -263.858643
v -749.465332 189.022705 -211.877686
v -698.841736 189.022705 -211.877686
v -749.465332 289.022705 -211.877686
v -698.841736 289.022705 -211.877686
v -749.465332 289.022705 -263.858643
v -698.841736 289.022705 -263.858643
v -749.465332 189.022705 -263.858643
v -698.841736 189.022705 -263.858643
v -749.465332 -47.308167 250.124023
v -698.841736 -47.308167 250.124023
v -749.465332 52.691833 250.124023
v -698.841736 52.691833 250.124023
v -749.465332 52.691833 198.143066
v -698.841736 52.691833 198.143066
v -749.465332 -47.308167 198.143066
v -698.841736 -47.308167 198.143066
v -316.300995 -289.022675 250.124023
v -265.677429 -289.022675 250.124023
v -316.300995 -189.022675 250.124023
v -265.677429 -189.022675 250.124023
v -316.300995 -189.022675 198.143066
v -265.677429 -189.022675 198.143066
v -316.300995 -289.022675 198.143066
v -265.677429 -289.022675 198.143066
vt 0.625000 0.414539
vt 0.625000 0.338144
vt 0.453663 0.414539
vt 0.453663 0.338144
vt 0.453663 0.338144
vt 0.548049 0.414539
vt 0.548049 0.338144
vt 0.000000 0.000000
vt 1.000000 0.000000
vt 1.000000 1.000000
vt 0.000000 1.000000
vt 0.000000 0.000000
vt 1.000000 0.000000
vt 1.000000 1.000000
vt 0.000000 1.000000
vt 0.548049 0.414539
vt 0.548049 0.414539
vt 0.625000 0.414539
vt 0.625000 0.414539
vt 0.453663 0.338144
vt 0.453663 0.414539
vt 0.453663 0.414539
vt 0.453663 0.338144
vt 0.548049 0.338144
vt 0.000000 0.000000
vt 1.000000 0.000000
vt 1.000000 1.000000
vt 0.000000 1.000000
vt 1.621767 0.982738
vt -0.342928 0.982738
vt -0.342928 0.875737
vt 1.621766 0.875737
vt -1.014550 0.220268
vt -1.014551 0.210653
vt -1.014550 0.087418
vt 2.150470 0.087418
vt 2.150470 0.210653
vt 2.150470 0.220268
vt 2.150470 0.233807
vt 2.132901 0.668735
vt 3.787541 0.094035
vt 3.787541 0.122713
vt 3.787541 0.146622
vt 3.787541 0.163499
vt -1.890783 0.163499
vt -1.890783 0.146622
vt -1.890783 0.122713
vt -0.831637 0.813679
vt -1.014550 0.249812
vt -1.014551 0.233807
vt -2.656029 0.219710
vt -2.656029 0.200134
vt 3.836680 0.200134
vt 3.836681 0.219710
vt 1.330205 0.171120
vt 2.144932 0.672311
vt 2.410444 0.084950
vt 2.410444 0.103515
vt 2.410444 0.118976
vt 2.410444 0.129884
vt 2.410444 0.248299
vt -1.265371 0.248299
vt -1.265372 0.129884
vt -1.265372 0.118976
vt -1.265371 0.103515
vt -0.829381 0.812339
vt -0.375455 0.159156
vt -2.656029 0.247326
vt 1.609634 0.982477
vt -0.355060 0.982478
vt -0.355061 0.872531
vt 1.609633 0.872531
vt -1.014550 0.220268
vt -1.014551 0.210653
vt -1.014550 0.087418
vt 2.150470 0.087418
vt 2.150470 0.210653
vt 2.150470 0.220268
vt 2.150470 0.233807
vt 2.132901 0.668735
vt 3.787541 0.094035
vt 3.787541 0.122713
vt 3.787541 0.146622
vt 3.790658 0.163499
vt -1.893188 0.163499
vt -1.890783 0.146622
vt -1.890783 0.122713
vt -0.831637 0.813679
vt -1.014550 0.249812
vt -1.014551 0.233807
vt -2.656029 0.219710
vt -2.659593 0.200134
vt 3.839432 0.200135
vt 3.836681 0.219710
vt 1.330205 0.171120
vt 2.144932 0.672311
vt 2.410444 0.084950
vt 2.410444 0.103515
vt 2.410444 0.118976
vt 2.410444 0.129884
vt 2.410444 0.248299
vt -1.265371 0.248299
vt -1.265372 0.129884
vt -1.265372 0.118976
vt -1.265371 0.103515
vt -0.829381 0.812339
vt -0.375455 0.159156
vt -2.656029 0.247326
vt 0.275563 0.966996
vt 1.000000 1.000000
vt 0.515193 0.506007
vt 0.766807 0.966996
vt 0.000000 0.000000
vt 1.000000 0.000000
vt 1.000000 1.000000
vt 0.000000 1.000000
vt 1.609634 0.982477
vt -0.355060 0.982478
vt -0.355061 0.872531
vt 1.609633 0.872531
vt -1.014550 0.220268
vt -1.014551 0.210653
vt -1.014550 0.087418
vt 2.150470 0.087418
vt 2.150470 0.210653
vt 2.150470 0.220268
vt 2.150470 0.233807
vt 2.132901 0.668735
vt 3.787541 0.094035
vt 3.787541 0.122713
vt 3.787541 0.146622
vt 3.790658 0.163499
vt -1.893188 0.163499
vt -1.890783 0.146622
vt -1.890783 0.122713
vt -0.831637 0.813679
vt -1.014550 0.249812
vt -1.014551 0.233807
vt -2.656029 0.219710
vt -2.659593 0.200134
vt 3.839432 0.200135
vt 3.836681 0.219710
vt 1.330205 0.171120
vt 2.144932 0.672311
vt 2.410444 0.084950
vt 2.410444 0.103515
vt 2.410444 0.118976
vt 2.410444 0.129884
vt 2.410444 0.248299
vt -1.265371 0.248299
vt -1.265372 0.129884
vt -1.265372 0.118976
vt -1.265371 0.103515
vt -0.829381 0.812339
vt -0.375455 0.159156
vt -2.656029 0.247326
vt 0.275563 0.966996
vt 1.000000 1.000000
vt 0.515193 0.506007
vt 0.766807 0.966996
vt 0.375000 0.000000
vt 0.625000 0.000000
vt 0.625000 0.250000
vt 0.375000 0.250000
vt 0.625000 0.500000
vt 0.375000 0.500000
vt 0.625000 0.750000
vt 0.375000 0.750000
vt 0.625000 1.000000
vt 0.375000 1.000000
vt 0.875000 0.000000
vt 0.875000 0.250000
vt 0.125000 0.000000
vt 0.125000 0.250000
vt 0.375000 0.000000
vt 0.625000 0.000000
vt 0.625000 0.250000
vt 0.375000 0.250000
vt 0.625000 0.500000
vt 0.375000 0.500000
vt 0.625000 0.750000
vt 0.375000 0.750000
vt 0.625000 1.000000
vt 0.375000 1.000000
vt 0.875000 0.000000
vt 0.875000 0.250000
vt 0.125000 0.000000
vt 0.125000 0.250000
vt 0.375000 0.000000
vt 0.625000 0.000000
vt 0.625000 0.250000
vt 0.375000 0.250000
vt 0.625000 0.500000
vt 0.375000 0.500000
vt 0.625000 0.750000
vt 0.375000 0.750000
vt 0.625000 1.000000
vt 0.375000 1.000000
vt 0.875000 0.000000
vt 0.875000 0.250000
vt 0.125000 0.000000
vt 0.125000 0.250000
vt 0.375000 0.000000
vt 0.625000 0.000000
vt 0.625000 0.250000
vt 0.375000 0.250000
vt 0.625000 0.500000
vt 0.375000 0.500000
vt 0.625000 0.750000
vt 0.375000 0.750000
vt 0.625000 1.000000
vt 0.375000 1.000000
vt 0.875000 0.000000
vt 0.875000 0.250000
vt 0.125000 0.000000
vt 0.125000 0.250000
vn 0.000000 1.000000 0.000000
vn 0.000000 1.000000 0.000000
vn 0.000000 1.000000 0.000000
vn 0.000000 1.000000 0.000000
vn 0.000000 1.000000 0.000000
vn 0.000000 1.000000 0.000000
vn 0.000000 0.004105 -0.999992
vn 0.000000 0.004105 -0.999992
vn 0.000000 0.004105 -0.999992
vn 0.000000 1.000000 0.000000
vn 0.000000 1.000000 0.000000
vn 0.000000 1.000000 0.000000
vn 0.000000 1.000000 0.000000
vn 0.000000 -0.007814 0.999969
vn 0.000000 -0.007814 0.999970
vn 0.000000 -0.007814 0.999970
vn 0.000000 -0.007814 0.999969
vn 1.000000 0.000000 0.000000
vn 1.000000 0.000000 0.000000
vn 1.000000 0.000000 0.000000
vn 1.000000 0.000000 0.000000
vn 0.000000 -0.007814 0.999969
vn 0.000000 -0.007814 0.999969
vn 0.000000 0.004105 -0.999992
vn 0.000000 0.004105 -0.999992
vn 0.000000 0.004105 -0.999992
vn 0.000000 1.000000 0.000000
vn 0.000000 1.000000 0.000000
vn 0.000000 1.000000 0.000000
vn 0.000000 1.000000 0.000000
vn -0.000000 1.000000 0.000000
vn -0.000000 1.000000 0.000000
vn -0.000000 1.000000 0.000000
vn -0.000000 1.000000 0.000000
vn 0.000000 0.000000 -1.000000
vn 0.000000 0.000000 -1.000000
vn 0.000000 0.000000 -1.000000
vn 0.000000 0.000000 -1.000000
vn 0.000000 0.000000 -1.000000
vn 0.000000 0.000000 -1.000000
vn 0.000000 0.000000 -1.000000
vn 0.000000 0.000000 -1.000000
vn 0.000000 0.000000 -1.000000
vn 0.000000 0.000000 -1.000000
vn 0.000000 0.000000 -1.000000
vn 0.000000 0.000000 -1.000000
vn 0.000000 0.000000 -1.000000
vn 0.000000 0.000000 -1.000000
vn 0.000000 0.000000 -1.000000
vn 0.000000 0.000000 -1.000000
vn 0.000000 0.000000 -1.000000
vn 0.000000 0.000000 -1.000000
vn 0.000000 -0.000000 1.000000
vn 0.000000 -0.000000 1.000000
vn 0.000000 -0.000000 1.000000
vn 0.000000 -0.000000 1.000000
vn 0.000000 -0.000000 1.000000
vn 0.000000 -0.000000 1.000000
vn 0.000000 -0.000000 1.000000
vn 0.000000 -0.000000 1.000000
vn 0.000000 -0.000000 1.000000
vn 0.000000 -0.000000 1.000000
vn 0.000000 -0.000000 1.000000
vn 0.000000 -0.000000 1.000000
vn 0.000000 -0.000000 1.000000
vn 0.000000 -0.000000 1.000000
vn 0.000000 -0.000000 1.000000
vn 0.000000 -0.000000 1.000000
vn 0.000000 -0.000000 1.000000
vn 0.000000 -0.000000 1.000000
vn 0.483184 0.875519 0.000000
vn 0.483184 0.875519 0.000000
vn 0.483184 0.875519 0.000000
vn 0.483184 0.875519 0.000000
vn 0.000002 0.000004 -1.000000
vn 0.000002 0.000004 -1.000000
vn 0.000002 0.000004 -1.000000
vn 0.000002 0.000004 -1.000000
vn 0.000002 0.000004 -1.000000
vn 0.000002 0.000004 -1.000000
vn 0.000002 0.000004 -1.000000
vn 0.000002 0.000004 -1.000000
vn 0.000002 0.000004 -1.000000
vn 0.000002 0.000004 -1.000000
vn 0.000002 0.000004 -1.000000
vn 0.000002 0.000004 -1.000000
vn 0.000002 0.000004 -1.000000
vn 0.000002 0.000004 -1.000000
vn 0.000002 0.000004 -1.000000
vn 0.000002 0.000004 -1.000000
vn 0.000002 0.000004 -1.000000
vn 0.000002 0.000004 -1.000000
vn 0.000000 -0.000000 1.000000
vn 0.000000 -0.000000 1.000000
vn 0.000000 -0.000000 1.000000
vn 0.000000 -0.000000 1.000000
vn 0.000000 -0.000000 1.000000
vn 0.000000 -0.000000 1.000000
vn 0.000000 -0.000000 1.000000
vn 0.000000 -0.000000 1.000000
vn 0.000000 -0.000000 1.000000
vn 0.000000 -0.000000 1.000000
vn 0.000000 -0.000000 1.000000
vn 0.000000 -0.000000 1.000000
vn 0.000000 -0.000000 1.000000
vn 0.000000 -0.000000 1.000000
vn 0.000000 -0.000000 1.000000
vn 0.000000 -0.000000 1.000000
vn 0.000000 -0.000000 1.000000
vn 0.000000 -0.000000 1.000000
vn 0.507326 0.861754 0.000000
vn 0.507326 0.861754 0.000000
vn 0.507326 0.861754 0.000000
vn 0.507326 0.861754 0.000000
vn 0.000000 1.000000 0.000000
vn 0.000000 1.000000 0.000000
vn 0.000000 1.000000 0.000000
vn 0.000000 1.000000 0.000000
vn 0.000003 0.875519 0.483184
vn 0.000003 0.875519 0.483184
vn 0.000003 0.875519 0.483184
vn 0.000003 0.875519 0.483184
vn 1.000000 0.000000 0.000001
vn 1.000000 0.000000 0.000001
vn 1.000000 0.000000 0.000001
vn 1.000000 0.000000 0.000001
vn 1.000000 0.000000 0.000001
vn 1.000000 0.000000 0.000001
vn 1.000000 0.000000 0.000001
vn 1.000000 0.000000 0.000001
vn 1.000000 0.000000 0.000001
vn 1.000000 0.000000 0.000001
vn 1.000000 0.000000 0.000001
vn 1.000000 0.000000 0.000001
vn 1.000000 0.000000 0.000001
vn 1.000000 0.000000 0.000001
vn 1.000000 0.000000 0.000001
vn 1.000000 0.000000 0.000001
vn 1.000000 0.000000 0.000001
vn 1.000000 0.000000 0.000001
vn -1.000000 -0.000001 -0.000001
vn -1.000000 -0.000001 -0.000001
vn -1.000000 -0.000001 -0.000001
vn -1.000000 -0.000001 -0.000001
vn -1.000000 -0.000001 -0.000001
vn -1.000000 -0.000001 -0.000001
vn -1.000000 -0.000001 -0.000001
vn -1.000000 -0.000001 -0.000001
vn -1.000000 -0.000001 -0.000001
vn -1.000000 -0.000001 -0.000001
vn -1.000000 -0.000001 -0.000001
vn -1.000000 -0.000001 -0.000001
vn -1.000000 -0.000001 -0.000001
vn -1.000000 -0.000001 -0.000001
vn -1.000000 -0.000001 -0.000001
vn -1.000000 -0.000001 -0.000001
vn -1.000000 -0.000001 -0.000001
vn -1.000000 -0.000001 -0.000001
vn -0.000000 0.861754 0.507326
vn -0.000000 0.861754 0.507326
vn -0.000000 0.861754 0.507326
vn -0.000000 0.861754 0.507326
vn 0.000000 0.000000 1.000000
vn 0.000000 0.000000 1.000000
vn 0.000000 0.000000 1.000000
vn 0.000000 0.000000 1.000000
vn 0.000000 1.000000 0.000000
vn 0.000000 1.000000 0.000000
vn 0.000000 1.000000 0.000000
vn 0.000000 1.000000 0.000000
vn 0.000000 0.000000 -1.000000
vn 0.000000 0.000000 -1.000000
vn 0.000000 0.000000 -1.000000
vn 0.000000 0.000000 -1.000000
vn 0.000000 -1.000000 0.000000
vn 0.000000 -1.000000 0.000000
vn 0.000000 -1.000000 0.000000
vn 0.000000 -1.000000 0.000000
vn 1.000000 0.000000 0.000000
vn 1.000000 0.000000 0.000000
vn 1.000000 0.000000 0.000000
vn 1.000000 0.000000 0.000000
vn -1.000000 0.000000 0.000000
vn -1.000000 0.000000 0.000000
vn -1.000000 0.000000 0.000000
vn -1.000000 0.000000 0.000000
vn 0.000000 0.000000 1.000000
vn 0.000000 0.000000 1.000000
vn 0.000000 0.000000 1.000000
vn 0.000000 0.000000 1.000000
vn 0.000000 1.000000 0.000000
vn 0.000000 1.000000 0.000000
vn 0.000000 1.000000 0.000000
vn 0.000000 1.000000 0.000000
vn 0.000000 0.000000 -1.000000
vn 0.000000 0.000000 -1.000000
vn 0.000000 0.000000 -1.000000
vn 0.000000 0.000000 -1.000000
vn 0.000000 -1.000000 0.000000
vn 0.000000 -1.000000 0.000000
vn 0.000000 -1.000000 0.000000
vn 0.000000 -1.000000 0.000000
vn 1.000000 0.000000 0.000000
vn 1.000000 0.000000 0.000000
vn 1.000000 0.000000 0.000000
vn 1.000000 0.000000 0.000000
vn -1.000000 0.000000 0.000000
vn -1.000000 0.000000 0.000000
vn -1.000000 0.000000 0.000000
vn -1.000000 0.000000 0.000000
vn 0.000000 0.000000 1.000000
vn 0.000000 0.000000 1.000000
vn 0.000000 0.000000 1.000000
vn 0.000000 0.000000 1.000000
vn 0.000000 1.000000 0.000000
vn 0.000000 1.000000 0.000000
vn 0.000000 1.000000 0.000000
vn 0.000000 1.000000 0.000000
vn 0.000000 0.000000 -1.000000
vn 0.000000 0.000000 -1.000000
vn 0.000000 0.000000 -1.000000
vn 0.000000 0.000000 -1.000000
vn 0.000000 -1.000000 0.000000
vn 0.000000 -1.000000 0.000000
vn 0.000000 -1.000000 0.000000
vn 0.000000 -1.000000 0.000000
vn 1.000000 0.000000 0.000000
vn 1.000000 0.000000 0.000000
vn 1.000000 0.000000 0.000000
vn 1.000000 0.000000 0.000000
vn -1.000000 0.000000 0.000000
vn -1.000000 0.000000 0.000000
vn -1.000000 0.000000 0.000000
vn -1.000000 0.000000 0.000000
vn 0.000000 0.000000 1.000000
vn 0.000000 0.000000 1.000000
vn 0.000000 0.000000 1.000000
vn 0.000000 0.000000 1.000000
vn 0.000000 1.000000 0.000000
vn 0.000000 1.000000 0.000000
vn 0.000000 1.000000 0.000000
vn 0.000000 1.000000 0.000000
vn 0.000000 0.000000 -1.000000
vn 0.000000 0.000000 -1.000000
vn 0.000000 0.000000 -1.000000
vn 0.000000 0.000000 -1.000000
vn 0.000000 -1.000000 0.000000
vn 0.000000 -1.000000 0.000000
vn 0.000000 -1.000000 0.000000
vn 0.000000 -1.000000 0.000000
vn 1.000000 0.000000 0.000000
vn 1.000000 0.000000 0.000000
vn 1.000000 0.000000 0.000000
vn 1.000000 0.000000 0.000000
vn -1.000000 0.000000 0.000000
vn -1.000000 0.000000 0.000000
vn -1.000000 0.000000 0.000000
vn -1.000000 0.000000 0.000000
s 1
g bottom_floor_coll group26
usemtl lambert2SG
f 6/6/1 7/7/2 2/2/3 1/1/4
f 3/3/5 4/4/6 7/7/2 6/6/1
s off
f 7/7/7 4/4/8 5/5/9
s 1
f 2/8/3 7/9/2 8/10/10 9/11/11
f 2/12/3 9/13/11 11/14/12 10/15/13
s 2
f 18/16/14 19/17/15 12/18/16 16/19/17
s off
f 14/20/18 13/21/19 15/22/20 17/23/21
s 2
f 13/21/22 19/17/15 18/16/14 15/22/23
s off
f 20/24/24 14/20/25 17/23/26
f 22/25/27 21/26/28 23/27/29 24/28/30
f 33/29/31 34/30/32 35/31/33 36/32/34
f 49/33/35 25/34/36 28/35/37 27/36/38 26/37/39 52/38/40 51/39/41 40/40/42 37/41/43 46/42/44 45/43/45 36/44/46 35/45/47 48/46/48 47/47/49 38/48/50 39/49/51 50/50/52
f 57/51/53 34/52/54 33/53/55 60/54/56 59/55/57 44/56/58 41/57/59 54/58/60 53/59/61 29/60/62 31/61/63 32/62/64 30/63/65 56/64/66 55/65/67 42/66/68 43/67/69 58/68/70
f 69/69/71 70/70/72 71/71/73 72/72/74
f 85/73/75 61/74/76 64/75/77 63/76/78 62/77/79 88/78/80 87/79/81 76/80/82 73/81/83 82/82/84 81/83/85 72/84/86 71/85/87 84/86/88 83/87/89 74/88/90 75/89/91 86/90/92
f 93/91/93 70/92/94 69/93/95 96/94/96 95/95/97 80/96/98 77/97/99 90/98/100 89/99/101 65/100/102 67/101/103 68/102/104 66/103/105 92/104/106 91/105/107 78/106/108 79/107/109 94/108/110
f 98/109/111 100/110/112 97/111/113 99/112/114
f 101/113/115 102/114/116 103/115/117 104/116/118
f 113/117/119 114/118/120 115/119/121 116/120/122
f 129/121/123 105/122/124 108/123/125 107/124/126 106/125/127 132/126/128 131/127/129 120/128/130 117/129/131 126/130/132 125/131/133 116/132/134 115/133/135 128/134/136 127/135/137 118/136/138 119/137/139 130/138/140
f 137/139/141 114/140/142 113/141/143 140/142/144 139/143/145 124/144/146 121/145/147 134/146/148 133/147/149 109/148/150 111/149/151 112/150/152 110/151/153 136/152/154 135/153/155 122/154/156 123/155/157 138/156/158
f 142/157/159 144/158/160 141/159/161 143/160/162
f 145/161/163 146/162/164 148/163/165 147/164/166
f 147/164/167 148/163/168 150/165/169 149/166/170
f 149/166/171 150/165/172 152/167/173 151/168/174
f 151/168/175 152/167/176 146/169/177 145/170/178
f 146/162/179 152/171/180 150/172/181 148/163/182
f 151/173/183 145/161/184 147/164/185 149/174/186
f 153/175/187 154/176/188 156/177/189 155/178/190
f 155/178/191 156/177/192 158/179/193 157/180/194
f 157/180/195 158/179/196 160/181/197 159/182/198
f 159/182/199 160/181/200 154/183/201 153/184/202
f 154/176/203 160/185/204 158/186/205 156/177/206
f 159/187/207 153/175/208 155/178/209 157/188/210
f 161/189/211 162/190/212 164/191/213 163/192/214
f 163/192/215 164/191/216 166/193/217 165/194/218
f 165/194/219 166/193/220 168/195/221 167/196/222
f 167/196/223 168/195/224 162/197/225 161/198/226
f 162/190/227 168/199/228 166/200/229 164/191/230
f 167/201/231 161/189/232 163/192/233 165/202/234
f 169/203/235 170/204/236 172/205/237 171/206/238
f 171/206/239 172/205/240 174/207/241 173/208/242
f 173/208/243 174/207/244 176/209/245 175/210/246
f 175/210/247 176/209/248 170/211/249 169/212/250
f 170/204/251 176/213/252 174/214/253 172/205/254
f 175/215/255 169/203/256 171/206/257 173/216/258
