# This file uses centimeters as units for non-parametric coordinates.

mtllib window frame.mtl
g default
v -128.980011 -161.465057 -18.464996
v 128.575165 -161.465057 -18.465179
v 128.575165 172.851593 -18.465179
v -128.980011 172.851593 -18.464996
v -128.980011 -11.857643 -18.464996
v 128.575165 -11.898659 -18.465179
v 128.575165 -161.465057 -31.927704
v -128.980011 -161.465057 -31.927521
v -128.980011 172.851593 -31.927521
v 128.575165 172.851593 -31.927704
v -128.980011 -11.857643 -31.927521
v 128.575165 -11.898659 -31.927704
v 118.388145 -151.450897 31.927521
v -121.250038 -151.450897 31.927704
v -121.250038 162.837433 31.927704
v 118.388145 162.837433 31.927521
v -121.250038 -11.857643 31.927704
v 118.387657 -11.898659 31.927521
v 122.252892 -155.315399 -31.927704
v 118.388145 -151.450897 -28.063080
v -125.114784 -155.315399 -31.927521
v -121.250038 -151.450897 -28.062897
v -125.114784 166.701935 -31.927521
v -121.250038 162.837433 -28.062897
v 122.252892 166.701935 -31.927704
v 118.388145 162.837433 -28.063080
v -125.114784 -11.857643 -31.927521
v -121.250038 -11.857643 -28.062897
v 122.252403 -11.898659 -31.927704
v 118.387657 -11.898659 -28.063080
v 143.898468 -184.101837 -18.465179
v -143.898468 -184.101837 -18.464996
v -143.898468 -184.101837 -31.927521
v 143.898468 -184.101837 -31.927704
v -143.898468 184.101837 -18.464996
v 143.898468 184.101837 -18.465179
v 143.898468 184.101837 -31.927704
v -143.898468 184.101837 -31.927521
v -143.898560 -11.857643 -18.464996
v -143.898560 -11.857643 -31.927521
v 143.898560 -11.898659 -18.465179
v 143.898560 -11.898659 -31.927704
vt 1.134571 0.122916
vt 0.660613 0.129803
vt -0.127518 0.137565
vt 0.348734 0.144392
vt 0.313348 0.121445
vt 1.603101 0.121304
vt 0.681513 0.139481
vt 1.186797 0.140777
vt 0.079919 0.121445
vt 0.079919 0.137565
vt 0.922164 0.122916
vt 0.922164 0.139481
vt 1.098740 0.166033
vt 0.375547 0.181527
vt 0.922164 0.172758
vt 0.922164 0.166033
vt 0.639841 0.175604
vt -0.086309 0.166402
vt 0.079919 0.159858
vt 0.079919 0.166402
vt 0.291700 0.159858
vt 1.220835 0.173883
vt 1.572307 0.165977
vt 0.706754 0.172758
vt 1.106399 0.158253
vt 0.644102 0.168925
vt 0.300628 0.155230
vt 1.581321 0.157055
vt 0.079919 0.155230
vt 0.922164 0.158253
vt -0.086309 0.238231
vt 0.375547 0.246537
vt 0.706754 0.246573
vt 1.220835 0.260661
vt 0.079919 0.238231
vt 0.922164 0.246573
vt 1.107037 0.103979
vt 0.644790 0.105274
vt 0.299127 0.103386
vt 1.580550 0.105034
vt 0.079919 0.103386
vt 0.922164 0.103979
vt 1.208762 0.157055
vt 0.313348 0.137565
vt 1.186797 0.121304
vt 1.207992 0.105034
vt 0.291700 0.238231
vt 0.291700 0.166402
vt 1.214485 0.165977
vt 1.603101 0.140777
vt 0.695037 0.158253
vt 0.695675 0.103979
vt 0.681513 0.122916
vt 0.660613 0.144392
vt -0.099663 0.155230
vt 0.364995 0.168925
vt 1.134571 0.139481
vt 0.348734 0.129803
vt 0.365683 0.105274
vt -0.101164 0.103386
vt -0.127518 0.121445
vt 1.567476 0.173883
vt 1.567476 0.260660
vt 1.093472 0.246573
vt 1.093472 0.172758
vt 0.635237 0.181527
vt 0.635237 0.246537
vt 0.702513 0.166033
vt 0.371774 0.175604
vt -0.092166 0.159858
vn 0.353041 -0.590024 0.726109
vn -0.352909 -0.589664 0.726465
vn -0.352909 -0.589664 -0.726465
vn 0.353040 -0.590024 -0.726109
vn -0.477094 0.700687 0.530489
vn 0.475132 0.697659 0.536210
vn 0.475132 0.697659 -0.536210
vn -0.477094 0.700687 -0.530489
vn -0.352909 -0.589664 0.726465
vn -0.687195 0.000000 0.726473
vn -0.687195 0.000000 -0.726473
vn -0.352909 -0.589664 -0.726465
vn -0.687195 0.000000 0.726473
vn -0.477094 0.700687 0.530489
vn -0.477094 0.700687 -0.530489
vn -0.687195 0.000000 -0.726473
vn 0.475132 0.697659 0.536210
vn 0.677432 0.000000 0.735586
vn 0.677432 0.000000 -0.735586
vn 0.475132 0.697659 -0.536210
vn 0.677432 0.000000 0.735586
vn 0.353041 -0.590024 0.726109
vn 0.353040 -0.590024 -0.726109
vn 0.677432 0.000000 -0.735586
vn -0.071125 0.122403 -0.989929
vn -0.499921 0.858621 -0.113353
vn -0.998131 0.000000 -0.061108
vn -0.348732 0.000000 -0.937223
vn -0.499921 0.858621 -0.113353
vn -0.071125 0.122403 -0.989929
vn 0.083208 0.143158 -0.986196
vn 0.500029 0.858558 -0.113356
vn 0.500029 0.858558 -0.113356
vn 0.083208 0.143158 -0.986196
vn 0.441611 0.000000 -0.897207
vn 0.998131 0.000000 -0.061108
vn 0.096403 -0.132898 -0.986430
vn 0.584969 -0.802768 -0.115653
vn 0.998131 0.000000 -0.061108
vn 0.441611 0.000000 -0.897207
vn 0.584969 -0.802768 -0.115653
vn 0.096403 -0.132898 -0.986430
vn -0.081545 -0.112388 -0.990313
vn -0.585059 -0.802701 -0.115655
vn -0.585059 -0.802701 -0.115655
vn -0.081545 -0.112388 -0.990313
vn -0.348732 0.000000 -0.937223
vn -0.998131 0.000000 -0.061108
vn 0.000000 0.000000 -1.000000
vn 0.000000 0.000000 -1.000000
vn 0.083208 0.143158 -0.986196
vn -0.071125 0.122403 -0.989929
vn -0.000000 0.000000 -1.000000
vn -0.000000 0.000000 -1.000000
vn -0.081545 -0.112388 -0.990313
vn 0.096403 -0.132898 -0.986430
vn 0.000000 0.000000 -1.000000
vn 0.000000 0.000000 -1.000000
vn 0.441611 0.000000 -0.897207
vn 0.083208 0.143158 -0.986196
vn 0.000000 0.000000 -1.000000
vn -0.000000 0.000000 -1.000000
vn 0.096403 -0.132898 -0.986430
vn 0.441611 0.000000 -0.897207
vn -0.000000 0.000000 -1.000000
vn -0.000000 0.000000 -1.000000
vn -0.348732 0.000000 -0.937223
vn -0.081545 -0.112388 -0.990313
vn -0.000000 0.000000 -1.000000
vn 0.000000 0.000000 -1.000000
vn -0.071125 0.122403 -0.989929
vn -0.348732 0.000000 -0.937223
vn -0.499921 0.858621 -0.113353
vn 0.500029 0.858558 -0.113356
vn 0.503345 0.864086 0.000000
vn -0.503235 0.864150 0.000000
vn 0.584969 -0.802768 -0.115653
vn -0.585059 -0.802701 -0.115655
vn -0.589173 -0.808007 0.000000
vn 0.589082 -0.808073 0.000000
vn 0.500029 0.858558 -0.113356
vn 0.998131 0.000000 -0.061108
vn 1.000000 0.000000 0.000000
vn 0.503345 0.864086 0.000000
vn 0.998131 0.000000 -0.061108
vn 0.584969 -0.802768 -0.115653
vn 0.589082 -0.808073 0.000000
vn 1.000000 0.000000 0.000000
vn -0.585059 -0.802701 -0.115655
vn -0.998131 0.000000 -0.061108
vn -1.000000 0.000000 0.000000
vn -0.589173 -0.808007 0.000000
vn -0.998131 0.000000 -0.061108
vn -0.499921 0.858621 -0.113353
vn -0.503235 0.864150 0.000000
vn -1.000000 0.000000 0.000000
vn 0.000000 0.000000 1.000000
vn 0.000000 0.000000 1.000000
vn -0.352909 -0.589664 0.726465
vn 0.353041 -0.590024 0.726109
vn 0.000000 0.000000 -1.000000
vn 0.000000 0.000000 -1.000000
vn 0.353040 -0.590024 -0.726109
vn -0.352909 -0.589664 -0.726465
vn 0.000000 -0.000000 1.000000
vn 0.000000 -0.000000 1.000000
vn 0.475132 0.697659 0.536210
vn -0.477094 0.700687 0.530489
vn -0.000000 0.000000 -1.000000
vn -0.000000 0.000000 -1.000000
vn -0.477094 0.700687 -0.530489
vn 0.475132 0.697659 -0.536210
vn 0.000000 0.000000 1.000000
vn 0.000000 0.000000 1.000000
vn -0.687195 0.000000 0.726473
vn -0.352909 -0.589664 0.726465
vn 0.000000 0.000000 -1.000000
vn 0.000000 0.000000 -1.000000
vn -0.352909 -0.589664 -0.726465
vn -0.687195 0.000000 -0.726473
vn 0.000000 0.000000 1.000000
vn 0.000000 -0.000000 1.000000
vn -0.477094 0.700687 0.530489
vn -0.687195 0.000000 0.726473
vn -0.000000 0.000000 -1.000000
vn 0.000000 0.000000 -1.000000
vn -0.687195 0.000000 -0.726473
vn -0.477094 0.700687 -0.530489
vn 0.000000 -0.000000 1.000000
vn 0.000000 0.000000 1.000000
vn 0.677432 0.000000 0.735586
vn 0.475132 0.697659 0.536210
vn -0.000000 0.000000 -1.000000
vn -0.000000 0.000000 -1.000000
vn 0.475132 0.697659 -0.536210
vn 0.677432 0.000000 -0.735586
vn 0.000000 0.000000 1.000000
vn 0.000000 0.000000 1.000000
vn 0.353041 -0.590024 0.726109
vn 0.677432 0.000000 0.735586
vn 0.000000 0.000000 -1.000000
vn -0.000000 0.000000 -1.000000
vn 0.677432 0.000000 -0.735586
vn 0.353040 -0.590024 -0.726109
s off
g window_frame_WINDOW_FRamegroup26
usemtl blinn2SG
f 31/58/1 32/2/2 33/54/3 34/4/4
f 35/45/5 36/6/6 37/50/7 38/8/8
f 32/61/9 39/9/10 40/10/11 33/3/12
f 39/9/13 35/5/14 38/44/15 40/10/16
f 36/53/17 41/11/18 42/12/19 37/7/20
f 41/11/21 31/1/22 34/57/23 42/12/24
f 19/13/25 20/65/26 30/15/27 29/16/28
f 20/14/29 19/69/30 21/17/31 22/66/32
f 22/18/33 21/70/34 27/19/35 28/20/36
f 23/21/37 24/48/38 28/20/39 27/19/40
f 24/22/41 23/49/42 25/23/43 26/62/44
f 26/24/45 25/68/46 29/16/47 30/15/48
f 7/56/49 8/26/50 21/17/51 19/69/52
f 9/43/53 10/28/54 25/23/55 23/49/56
f 8/55/57 11/29/58 27/19/59 21/70/60
f 11/29/61 9/27/62 23/21/63 27/19/64
f 10/51/65 12/30/66 29/16/67 25/68/68
f 12/30/69 7/25/70 19/13/71 29/16/72
f 20/14/73 22/66/74 14/67/75 13/32/76
f 24/22/77 26/62/78 16/63/79 15/34/80
f 22/18/81 28/20/82 17/35/83 14/31/84
f 28/20/85 24/48/86 15/47/87 17/35/88
f 26/24/89 30/15/90 18/36/91 16/33/92
f 30/15/93 20/65/94 13/64/95 18/36/96
f 2/59/97 1/38/98 32/2/99 31/58/100
f 8/26/101 7/56/102 34/4/103 33/54/104
f 4/46/105 3/40/106 36/6/107 35/45/108
f 10/28/109 9/43/110 38/8/111 37/50/112
f 1/60/113 5/41/114 39/9/115 32/61/116
f 11/29/117 8/55/118 33/3/119 40/10/120
f 5/41/121 4/39/122 35/5/123 39/9/124
f 9/27/125 11/29/126 40/10/127 38/44/128
f 3/52/129 6/42/130 41/11/131 36/53/132
f 12/30/133 10/51/134 37/7/135 42/12/136
f 6/42/137 2/37/138 31/1/139 41/11/140
f 7/25/141 12/30/142 42/12/143 34/57/144
