# This file uses centimeters as units for non-parametric coordinates.

mtllib garden 2.mtl
g default
v 6.443573 -0.426284 -15.088270
v -5.248825 -0.426284 -9.003908
v -14.488838 -0.426284 0.395800
v 11.868423 -0.426284 1.252756
v 4.987015 -0.426283 4.833616
v -0.477951 -0.426283 10.393033
v 6.790520 5.514050 -14.043180
v 11.521477 3.300797 0.207666
v -4.594139 5.514174 -8.118916
v 4.332367 3.300695 3.948614
v -13.592758 5.514164 1.035185
v -1.374031 3.300685 9.753648
v 6.729759 4.206442 -14.226290
v 11.460716 1.993192 0.024557
v -4.708839 4.206540 -8.273933
v 4.217697 1.993059 3.793600
v -13.749878 4.206558 0.923103
v -1.531151 1.993078 9.641567
v 19.809662 -0.426284 -16.147345
v 18.705009 -0.426284 -17.082758
v 18.939171 -0.426283 0.102606
v 19.874580 -0.426283 -1.002048
v -19.874573 -0.426284 11.193515
v -19.309227 -0.426284 12.526039
v -4.865196 -0.426283 17.082758
v -3.532646 -0.426283 16.517387
v 18.715401 5.355177 -14.880308
v 17.611862 5.517784 -15.802832
v 18.683975 4.047546 -15.073080
v 17.580269 4.210199 -15.995382
v 17.834824 3.297221 -0.819828
v 18.770958 3.436162 -1.915100
v 18.739555 2.128532 -2.107866
v 17.803802 1.989634 -1.012264
v -18.327774 5.517784 10.529507
v -17.774353 5.355169 11.857117
v -17.949120 4.047540 11.769900
v -18.502258 4.210200 10.442176
v -5.409485 3.436155 15.757917
v -4.085701 3.297229 15.189081
v -4.260254 1.989641 15.102335
v -5.584236 2.128524 15.670705
v 6.443573 5.461211 -15.088270
v 6.512955 5.647758 -14.879274
v -5.248825 5.461224 -9.003908
v -5.117912 5.647793 -8.826942
v 11.808891 3.162344 1.073431
v 11.868423 2.944929 1.252756
v 4.987015 2.944921 4.833616
v 4.874680 3.162337 4.681755
v -14.488838 5.461225 0.395800
v -14.309654 5.647783 0.523657
v -0.477951 2.944921 10.393033
v -0.631714 3.162327 10.283318
v -19.641075 5.649499 11.199053
v -19.874573 5.464552 11.193515
v -3.668541 3.161752 16.371023
v -3.532646 2.942932 16.517387
v 19.597031 5.506858 -16.049444
v 19.809662 5.308001 -16.147345
v 19.673454 3.289971 -1.073385
v 19.874580 3.077179 -1.002048
v 18.639275 5.648652 -16.852137
v 18.705009 5.464551 -17.082758
v 18.837929 3.162263 -0.073759
v 18.939171 2.942931 0.102606
v -19.161728 5.507398 12.362153
v -19.309227 5.307995 12.526038
v -4.873260 3.289285 16.878904
v -4.865196 3.077171 17.082758
vt 0.409601 0.033881
vt 0.409601 0.033881
vt 0.451790 0.011928
vt 0.376262 0.067797
vt 0.495580 0.004852
vt 0.451790 0.011928
vt 0.500016 0.004135
vt 0.355034 0.110356
vt 0.357899 0.104613
vt 0.376262 0.067797
vt 0.500016 0.004135
vt 0.493793 0.005140
vt 0.357046 0.106323
vt 0.355034 0.110356
vt 0.357474 0.105464
vt 0.496392 0.004721
vt 0.496046 0.004776
vt 0.496046 0.004776
vt 0.451790 0.011928
vt 0.451790 0.011928
vt 0.502803 0.003684
vt 0.500016 0.004135
vt 0.451790 0.011928
vt 0.451790 0.011928
vt 0.409601 0.033881
vt 0.409601 0.033881
vt 0.409601 0.033881
vt 0.409601 0.033881
vt 0.376262 0.067797
vt 0.376262 0.067797
vt 0.376262 0.067797
vt 0.376262 0.067797
vt 0.354600 0.111226
vt 0.355034 0.110356
vt 0.357626 0.105159
vt 0.357626 0.105159
vt 0.494699 0.004994
vt 0.451790 0.011928
vt 0.409601 0.033881
vt 0.451790 0.011928
vt 0.451790 0.011928
vt 0.409601 0.033881
vt 0.376262 0.067797
vt 0.409601 0.033881
vt 0.409601 0.033881
vt 0.376262 0.067797
vt 0.356706 0.107003
vt 0.376262 0.067797
vt 0.451790 0.011928
vt 0.495570 0.004853
vt 0.501412 0.003909
vt 0.500016 0.004135
vt 0.355034 0.110356
vt 0.376262 0.067797
vt 0.357912 0.104587
vt 0.500016 0.004135
vt 0.501889 0.003832
vt 0.494360 0.005049
vt 0.494360 0.005049
vt 0.356829 0.106757
vt 0.356829 0.106757
vt 0.355034 0.110356
vt 0.353740 0.112951
vt 0.500016 0.004135
vt 0.493765 0.005145
vt 0.502233 0.003777
vt 0.357050 0.106314
vt 0.354766 0.110894
vt 0.355034 0.110356
vt 0.353988 0.112452
vn 0.048091 0.989291 0.137805
vn 0.086772 0.989302 0.117270
vn 0.086772 0.989302 0.117271
vn 0.048098 0.989291 0.137802
vn 0.117293 0.989282 0.086969
vn 0.117288 0.989282 0.086975
vn 0.132331 0.989000 0.066082
vn 0.132335 0.989000 0.066086
vn 0.132538 0.988959 0.066284
vn 0.132538 0.988959 0.066284
vn 0.159040 -0.145877 0.976436
vn 0.159040 -0.145877 0.976436
vn 0.323639 -0.146745 0.934732
vn 0.323664 -0.146745 0.934723
vn -0.329635 0.146657 -0.932648
vn -0.159177 0.145802 -0.976424
vn -0.159177 0.145802 -0.976424
vn -0.329575 0.146658 -0.932669
vn -0.999709 0.022886 0.007672
vn -0.999709 0.022886 0.007672
vn -0.999709 0.022886 0.007672
vn -0.999709 0.022886 0.007672
vn 0.588338 -0.145927 0.795339
vn 0.588340 -0.145927 0.795337
vn -0.588602 0.145919 -0.795145
vn -0.588603 0.145919 -0.795144
vn 0.796385 -0.146728 0.586721
vn 0.796369 -0.146728 0.586743
vn -0.791624 0.146623 -0.593155
vn -0.791663 0.146624 -0.593103
vn 0.885190 -0.145926 0.441752
vn 0.885190 -0.145926 0.441752
vn 0.304009 0.022892 -0.952394
vn 0.304009 0.022892 -0.952394
vn 0.304009 0.022892 -0.952394
vn 0.304009 0.022892 -0.952394
vn -0.885137 0.145853 -0.441881
vn -0.885137 0.145853 -0.441881
vn 0.023946 0.988959 0.146241
vn 0.023818 0.989001 0.145981
vn 0.023815 0.989002 0.145976
vn 0.023946 0.988959 0.146241
vn -0.646629 -0.095917 0.756750
vn -0.646629 -0.095917 0.756750
vn -0.646629 -0.095917 0.756750
vn -0.646629 -0.095917 0.756750
vn -0.762470 0.112061 -0.637245
vn -0.762470 0.112061 -0.637245
vn -0.762470 0.112061 -0.637245
vn -0.762470 0.112061 -0.637245
vn 0.914574 -0.095915 -0.392881
vn 0.914574 -0.095915 -0.392881
vn 0.914574 -0.095915 -0.392881
vn 0.914574 -0.095915 -0.392881
vn -0.382202 0.112063 -0.917259
vn -0.382202 0.112063 -0.917259
vn -0.382202 0.112063 -0.917259
vn -0.382202 0.112063 -0.917259
vn -0.206778 0.763881 -0.611334
vn -0.206772 0.763881 -0.611336
vn -0.104338 0.760786 -0.640561
vn -0.104338 0.760786 -0.640561
vn -0.384502 0.762874 -0.519790
vn -0.384499 0.762874 -0.519792
vn -0.524771 0.761389 -0.380662
vn -0.524770 0.761388 -0.380663
vn 0.242355 0.656987 0.713885
vn 0.242361 0.656987 0.713884
vn 0.187829 0.665222 0.722634
vn 0.192685 0.665967 0.720667
vn 0.449162 0.655854 0.606720
vn 0.449161 0.655854 0.606720
vn 0.610063 0.655455 0.445199
vn 0.610069 0.655455 0.445191
vn -0.585817 0.755797 -0.292557
vn -0.585817 0.755797 -0.292557
vn 0.632374 0.662116 0.402126
vn 0.635710 0.661454 0.397934
vn -0.595730 0.729229 0.336647
vn -0.595730 0.729229 0.336647
vn -0.595730 0.729229 0.336647
vn -0.595730 0.729229 0.336647
vn -0.085699 0.687509 0.721101
vn -0.077683 0.688189 0.721360
vn 0.489726 0.744800 -0.453256
vn 0.489726 0.744800 -0.453256
vn 0.489726 0.744800 -0.453256
vn 0.489726 0.744800 -0.453256
vn 0.704968 0.702102 0.100364
vn 0.704968 0.702102 0.100364
vn 0.696569 0.704911 0.133761
vn 0.694593 0.705420 0.141148
vn -0.121274 0.683946 0.719383
vn -0.121274 0.683946 0.719383
vn -0.160553 0.000000 -0.987027
vn -0.160553 0.000000 -0.987027
vn -0.319559 0.000000 -0.947566
vn -0.319546 0.000000 -0.947571
vn 0.321151 0.000000 0.947028
vn 0.160553 0.000000 0.987027
vn 0.160553 0.000000 0.987027
vn 0.321164 0.000000 0.947023
vn 0.999991 0.000000 -0.004286
vn 0.999991 0.000000 -0.004286
vn 0.999991 0.000000 -0.004286
vn 0.999991 0.000000 -0.004286
vn -0.594696 0.000000 -0.803950
vn -0.594696 0.000000 -0.803950
vn 0.595009 0.000000 0.803719
vn 0.595009 0.000000 0.803719
vn -0.809955 0.000000 -0.586492
vn -0.809963 0.000000 -0.586481
vn 0.807986 0.000000 0.589202
vn 0.807977 0.000000 0.589214
vn -0.894862 0.000000 -0.446343
vn -0.894862 0.000000 -0.446343
vn -0.300858 0.000000 0.953669
vn -0.300858 0.000000 0.953669
vn -0.300858 0.000000 0.953669
vn -0.300858 0.000000 0.953669
vn 0.894864 0.000000 0.446339
vn 0.894864 0.000000 0.446339
vn 0.049165 0.988798 0.140930
vn 0.024351 0.988717 0.147801
vn 0.024389 0.988688 0.147994
vn 0.049161 0.988798 0.140931
vn 0.048292 0.988808 0.141161
vn 0.089223 0.988681 0.120617
vn 0.089222 0.988681 0.120617
vn 0.048292 0.988808 0.141161
vn 0.089260 0.988681 0.120589
vn 0.089260 0.988681 0.120590
vn 0.120484 0.988806 0.088009
vn 0.120482 0.988806 0.088013
vn 0.119860 0.988794 0.089000
vn 0.119860 0.988794 0.089000
vn 0.134313 0.988687 0.066773
vn 0.134114 0.988720 0.066676
vn 0.132623 0.988958 0.066129
vn 0.023897 0.988678 0.148138
vn 0.023862 0.988712 0.147917
vn 0.023833 0.988958 0.146266
vn 0.023770 0.988958 0.146275
vn 0.023791 0.988959 0.146265
vn 0.023811 0.988959 0.146262
vn 0.132596 0.988958 0.066186
vn 0.132598 0.988959 0.066164
vn 0.132607 0.988959 0.066145
vn 0.133856 0.988726 0.067111
vn 0.134029 0.988696 0.067205
vn 0.646227 0.000000 -0.763146
vn 0.646227 0.000000 -0.763146
vn 0.646227 0.000000 -0.763146
vn 0.646227 0.000000 -0.763146
vn 0.763147 0.000000 0.646225
vn 0.763147 0.000000 0.646225
vn 0.763147 0.000000 0.646225
vn 0.763147 0.000000 0.646225
vn -0.920574 -0.000000 0.390569
vn -0.920574 -0.000000 0.390569
vn -0.920574 -0.000000 0.390569
vn -0.920574 -0.000000 0.390569
vn 0.390576 0.000000 0.920571
vn 0.390576 0.000000 0.920571
vn 0.390576 0.000000 0.920571
vn 0.390576 0.000000 0.920571
s 1
g pCylinder39 group35
usemtl initialShadingGroup
f 13/6/1 15/1/2 16/2/3 14/3/4
f 15/1/2 17/4/5 18/10/6 16/2/3
f 41/9/7 38/13/8 37/8/9 42/14/10
s 2
f 30/5/11 28/50/12 7/40/13 13/6/14
s 3
f 8/38/15 31/65/16 34/12/17 14/3/18
s off
f 33/7/19 32/52/20 27/64/21 29/11/22
s 2
f 7/40/13 9/44/23 15/1/24 13/6/14
s 3
f 10/42/25 8/38/15 14/3/18 16/2/26
s 2
f 9/44/23 11/48/27 17/4/28 15/1/24
s 3
f 12/46/29 10/42/25 16/2/26 18/10/30
s 2
f 11/48/27 35/67/31 38/13/32 17/4/28
s off
f 37/8/33 36/53/34 39/69/35 42/14/36
s 3
f 41/9/37 40/55/38 12/46/29 18/10/30
s 1
f 29/11/39 30/5/40 34/12/41 33/7/42
s off
f 27/64/43 28/50/44 30/5/45 29/11/46
f 31/65/47 32/52/48 33/7/49 34/12/50
f 35/67/51 36/53/52 37/8/53 38/13/54
f 39/69/55 40/55/56 41/9/57 42/14/58
s 4
f 43/24/59 44/49/60 63/16/61 64/17/62
f 44/49/60 43/24/59 45/28/63 46/39/64
f 46/39/64 45/28/63 51/32/65 52/43/66
s 5
f 47/41/67 48/20/68 66/59/69 65/37/70
f 48/20/68 47/41/67 50/45/71 49/26/72
f 49/26/72 50/45/71 54/54/73 53/30/74
s 4
f 52/43/66 51/32/65 56/61/75 55/47/76
s 5
f 53/30/74 54/54/73 57/15/77 58/35/78
s off
f 55/47/79 56/61/80 68/33/81 67/68/82
s 5
f 58/35/78 57/15/77 69/70/83 70/63/84
s off
f 59/51/85 60/57/86 64/17/87 63/16/88
s 5
f 60/57/89 59/51/90 61/66/91 62/21/92
f 62/21/92 61/66/91 65/37/70 66/59/69
f 67/68/93 68/33/94 70/63/84 69/70/83
s 6
f 64/17/95 20/18/96 1/23/97 43/24/98
s 7
f 4/19/99 21/58/100 66/59/101 48/20/102
s off
f 62/21/103 22/22/104 19/56/105 60/57/106
s 6
f 1/23/97 2/27/107 45/28/108 43/24/98
s 7
f 5/25/109 4/19/99 48/20/102 49/26/110
s 6
f 2/27/107 3/31/111 51/32/112 45/28/108
s 7
f 6/29/113 5/25/109 49/26/110 53/30/114
s 6
f 3/31/111 23/60/115 56/61/116 51/32/112
s off
f 68/33/117 24/34/118 25/62/119 70/63/120
s 7
f 58/35/121 26/36/122 6/29/113 53/30/114
s 8
f 47/41/123 65/37/124 31/65/125 8/38/126
f 44/49/127 46/39/128 9/44/129 7/40/130
f 50/45/131 47/41/123 8/38/126 10/42/132
f 46/39/128 52/43/133 11/48/134 9/44/129
f 54/54/135 50/45/131 10/42/132 12/46/136
f 35/67/137 55/47/138 67/68/139
f 28/50/140 63/16/141 44/49/127 7/40/130
f 61/66/142 59/51/143 27/64/144 32/52/145
f 67/68/139 69/70/146 39/69/147 36/53/148
f 69/70/146 57/15/149 40/55/150
s off
f 19/56/151 20/18/152 64/17/153 60/57/154
f 21/58/155 22/22/156 62/21/157 66/59/158
f 23/60/159 24/34/160 68/33/161 56/61/162
f 25/62/163 26/36/164 58/35/165 70/63/166
s 8
f 27/64/144 59/51/143 28/50/140
f 31/65/125 61/66/142 32/52/145
f 35/67/137 67/68/139 36/53/148
f 39/69/147 69/70/146 40/55/150
s 1
f 34/12/41 30/5/40 13/6/1 14/3/4
f 17/4/5 38/13/8 41/9/7 18/10/6
s 8
f 40/55/150 57/15/149 54/54/135 12/46/136
f 31/65/125 65/37/124 61/66/142
f 59/51/143 63/16/141 28/50/140
f 52/43/133 55/47/138 35/67/137 11/48/134
