# This file uses centimeters as units for non-parametric coordinates.

mtllib floor.mtl
g default
v 19.833995 0.000000 37.100302
v 19.833995 0.000000 13.495550
v 6.028972 0.000000 58.620771
v 19.833995 0.000000 58.620771
v -19.833997 0.000000 -19.587898
v 19.833995 0.000000 -19.587898
v 19.833995 0.000000 -2.620543
v -19.833997 0.000000 -8.414617
v 19.833995 0.000000 -8.414617
v -19.833997 0.000000 -9.765276
v 19.833995 0.000000 -9.765276
v -19.833997 0.000000 -31.810539
v 8.062312 0.000000 -31.810541
v -5.166051 0.000000 13.082045
v -4.161382 0.000000 13.495550
v -5.588582 0.000000 12.081133
v -0.071034 0.000000 13.911697
v 0.345119 0.000000 14.916372
v -1.075704 0.000000 13.495550
v 0.761271 0.000000 36.684149
v 1.765941 0.000000 37.100302
v 0.345119 0.000000 35.679480
v 5.612834 0.000000 37.516447
v 6.028972 0.000000 38.521124
v 4.608150 0.000000 37.100302
v -19.417851 0.000000 -56.204622
v -19.833997 0.000000 -55.199953
v -18.413175 0.000000 -56.620775
v 3.845866 0.000000 -56.204622
v 2.841197 0.000000 -56.620775
v 4.262019 0.000000 -55.199953
v -6.009084 0.000000 -3.460125
v -5.609769 0.000000 -2.620527
v -7.013761 0.000000 -3.883222
v 19.417842 0.000000 -31.394390
v 18.413173 0.000000 -31.810539
v 19.833995 0.000000 -30.389717
v -19.417790 0.000000 -4.299388
v -18.413121 0.000000 -3.883242
v -19.833959 0.000000 -5.304056
v 4.678172 0.000000 -32.226688
v 4.262019 0.000000 -33.231363
v 5.682841 0.000000 -31.810539
v 19.833995 0.000000 9.695883
v -5.608205 0.000000 9.695871
v -5.678792 0.000000 -0.080636
v 19.833995 0.000000 -0.080638
vt 0.859812 0.522437
vt 0.926028 0.522698
vt 0.882717 0.965571
vt 0.865303 0.958139
vt 0.858166 0.940602
vt 0.858377 0.886828
vt 0.851194 0.869292
vt 0.833714 0.861970
vt 0.471878 0.860546
vt 0.454398 0.853225
vt 0.447215 0.835688
vt 0.447410 0.786157
vt 0.440226 0.768620
vt 0.422747 0.761299
vt 0.072472 0.759920
vt 0.073419 0.519341
vt 0.448454 0.520818
vt 0.247164 0.332024
vt 0.279266 0.020787
vt 0.278163 0.331292
vt 0.349974 0.021038
vt 0.366457 0.021097
vt 0.486328 0.021523
vt 0.618149 0.021991
vt 0.630391 0.027113
vt 0.635426 0.039391
vt 0.634978 0.165709
vt 0.634875 0.194747
vt 0.639910 0.207025
vt 0.652152 0.212147
vt 0.920247 0.213100
vt 0.932490 0.218222
vt 0.937525 0.230500
vt 0.936603 0.489879
vt 0.931481 0.502122
vt 0.919203 0.507157
vt 0.633769 0.506143
vt 0.484609 0.505613
vt 0.364738 0.505188
vt 0.348255 0.505129
vt 0.310295 0.504994
vt 0.298053 0.499872
vt 0.293018 0.487593
vt 0.293511 0.348480
vt 0.288392 0.336201
vt 0.248270 0.020677
vt 0.924283 0.966077
vn 0.000000 1.000000 0.000000
vn 0.000000 1.000000 0.000000
vn 0.000000 1.000000 0.000000
vn 0.000000 1.000000 -0.000000
vn 0.000000 1.000000 -0.000000
vn 0.000000 1.000000 0.000000
vn 0.000000 1.000000 0.000000
vn 0.000000 1.000000 -0.000000
vn 0.000000 1.000000 0.000000
vn 0.000000 1.000000 -0.000000
vn 0.000000 1.000000 -0.000000
vn 0.000000 1.000000 0.000000
vn 0.000000 1.000000 -0.000000
vn 0.000000 1.000000 -0.000000
vn 0.000000 1.000000 -0.000000
vn 0.000000 1.000000 0.000000
vn 0.000000 1.000000 -0.000000
vn 0.000000 1.000000 0.000000
vn 0.000000 1.000000 -0.000000
vn 0.000000 1.000000 -0.000000
vn 0.000000 1.000000 -0.000000
vn 0.000000 1.000000 -0.000000
vn 0.000000 1.000000 -0.000000
vn 0.000000 1.000000 0.000000
vn 0.000000 1.000000 0.000000
vn 0.000000 1.000000 0.000000
vn 0.000000 1.000000 -0.000000
vn 0.000000 1.000000 0.000000
vn 0.000000 1.000000 -0.000000
vn 0.000000 1.000000 0.000000
vn 0.000000 1.000000 0.000000
vn 0.000000 1.000000 0.000000
vn 0.000000 1.000000 0.000000
vn 0.000000 1.000000 0.000000
vn 0.000000 1.000000 0.000000
vn 0.000000 1.000000 -0.000000
vn 0.000000 1.000000 -0.000000
vn 0.000000 1.000000 0.000000
vn 0.000000 1.000000 0.000000
vn 0.000000 1.000000 0.000000
vn 0.000000 1.000000 -0.000000
vn 0.000000 1.000000 -0.000000
vn 0.000000 1.000000 -0.000000
vn 0.000000 1.000000 -0.000000
vn 0.000000 1.000000 0.000000
vn 0.000000 1.000000 0.000000
vn 0.000000 1.000000 0.000000
s 1
g Corridor_floor corroridor_4
usemtl initialShadingGroup
f 2/1/1 44/2/2 45/47/3 16/3/4
f 16/3/4 14/4/5 2/1/1
f 3/15/6 4/16/7 24/14/8
f 4/16/7 1/17/9 24/14/8
f 1/17/9 2/1/1 24/14/8
f 24/14/8 2/1/1 23/13/10
f 23/13/10 2/1/1 25/12/11
f 25/12/11 2/1/1 21/11/12
f 21/11/12 2/1/1 20/10/13
f 20/10/13 2/1/1 22/9/14
f 15/5/15 19/6/16 14/4/5
f 14/4/5 19/6/16 2/1/1
f 19/6/16 17/7/17 2/1/1
f 17/7/17 18/8/18 2/1/1
f 2/1/1 18/8/18 22/9/14
s 3
f 46/18/19 47/46/20 7/19/21 33/20/22
f 7/19/21 9/21/23 33/20/22
f 33/20/22 9/21/23 32/45/24
f 9/21/23 11/22/25 32/45/24
f 11/22/25 6/23/26 32/45/24
f 6/23/26 37/24/27 32/45/24
f 32/45/24 37/24/27 34/44/28
f 37/24/27 35/25/29 34/44/28
f 35/25/29 36/26/30 34/44/28
f 36/26/30 13/27/31 34/44/28
f 13/27/31 43/28/32 34/44/28
f 43/28/32 41/29/33 34/44/28
f 34/44/28 41/29/33 39/43/34
f 39/43/34 41/29/33 38/42/35
f 38/42/35 41/29/33 40/41/36
f 40/41/36 41/29/33 8/40/37
f 8/40/37 41/29/33 10/39/38
f 10/39/38 41/29/33 5/38/39
f 5/38/39 41/29/33 12/37/40
f 41/29/33 42/30/41 12/37/40
f 12/37/40 42/30/41 27/36/42
f 27/36/42 42/30/41 26/35/43
f 26/35/43 42/30/41 28/34/44
f 29/32/45 30/33/46 31/31/47
f 42/30/41 31/31/47 28/34/44
f 31/31/47 30/33/46 28/34/44
