# This file uses centimeters as units for non-parametric coordinates.

mtllib pumps 2.mtl
g default
v -1.886106 7.088651 1.973127
v -2.318875 7.521420 1.597979
v -2.318875 8.040377 1.597979
v -1.886106 8.126458 1.973127
v 2.318870 7.521420 1.597979
v 1.886096 7.088651 1.973127
v 1.886096 8.126458 1.973127
v 2.318870 8.040377 1.597979
v -1.886106 9.125360 -0.241161
v -2.318875 8.692591 -0.241161
v -2.318875 8.692591 -1.032610
v -1.886106 9.125360 -1.107231
v 2.318870 8.692591 -0.241161
v 1.886096 9.125360 -0.241161
v 1.886096 9.125360 -1.107231
v 2.318870 8.692591 -1.032610
v 2.318870 7.521420 -0.616308
v 1.886096 7.088651 -0.241161
v -1.886106 7.088651 -0.241161
v -2.318875 7.521420 -0.616308
v -1.886106 7.088651 -1.973129
v -2.318875 7.088651 -1.597982
v 2.318870 7.088651 -1.597982
v 1.886096 7.088651 -1.973129
v -1.886106 9.125360 1.107229
v -2.318875 8.692591 1.032606
v 2.318870 8.692591 1.032606
v 1.886096 9.125360 1.107229
v -1.886106 8.126458 -1.973129
v -2.318875 8.040377 -1.597982
v 2.318870 8.040377 -1.597982
v 1.886096 8.126458 -1.973129
v -1.886106 8.832788 1.719511
v -2.318875 8.501561 1.432386
v 2.318870 8.501561 1.432386
v 1.886096 8.832788 1.719511
v -1.886106 8.832788 -1.719515
v -2.318875 8.501561 -1.432390
v 2.318870 8.501561 -1.432390
v 1.886096 8.832788 -1.719515
v -1.131665 8.076902 1.757162
v -1.131665 7.218147 1.860872
v 0.980769 7.218147 1.860872
v 0.980769 8.076902 1.757162
v -1.131665 8.876224 -1.064276
v -1.131665 8.866366 -0.241161
v 0.980769 8.866366 -0.241161
v 0.980769 8.876224 -1.064276
v -1.131665 7.088651 -1.748621
v -1.131665 8.076902 -1.757166
v 0.980769 8.076902 -1.757166
v 0.980769 7.088651 -1.748621
v -1.131665 8.876224 1.064272
v 0.980769 8.876224 1.064272
v -1.131665 7.218147 -0.353415
v 0.980769 7.218147 -0.353415
v -1.131665 8.663593 1.572844
v 0.980769 8.663593 1.572844
v -1.131665 8.663593 -1.572847
v 0.980769 8.663593 -1.572847
v -1.242185 7.088651 -1.973129
v -1.131665 7.088651 -1.877323
v -1.242185 8.126458 -1.973129
v -1.131665 8.104474 -1.877323
v -1.242185 8.832788 -1.719515
v -1.131665 8.748199 -1.646189
v -1.242185 9.125360 -1.107231
v -1.131665 9.014838 -1.088175
v -1.242185 9.125360 -0.241161
v -1.131665 9.014838 -0.241161
v -1.242185 9.125360 1.107229
v -1.131665 9.014838 1.088171
v -1.242185 8.832788 1.719511
v -1.131665 8.748199 1.646185
v -1.242185 8.126458 1.973127
v -1.131665 8.104474 1.877321
v -1.242185 7.088651 1.973127
v -1.131665 7.199172 1.877321
v -1.242185 7.088651 -0.241161
v -1.131665 7.199172 -0.336966
v 1.091292 7.088651 -0.241161
v 0.980769 7.199172 -0.336966
v 1.091292 7.088651 1.973127
v 0.980769 7.199172 1.877321
v 1.091292 8.126458 1.973127
v 0.980769 8.104474 1.877321
v 1.091292 8.832788 1.719511
v 0.980769 8.748199 1.646185
v 1.091292 9.125360 1.107229
v 0.980769 9.014838 1.088171
v 1.091292 9.125360 -0.241161
v 0.980769 9.014838 -0.241161
v 1.091292 9.125360 -1.107231
v 0.980769 9.014838 -1.088175
v 1.091292 8.832788 -1.719515
v 0.980769 8.748199 -1.646189
v 1.091292 8.126458 -1.973129
v 0.980769 8.104474 -1.877323
v 1.091292 7.088651 -1.973129
v 0.980769 7.088651 -1.877323
v 2.318870 7.088651 -1.424612
v 2.318870 7.721419 -0.789675
v 2.318870 7.721419 1.424608
v 2.318870 8.492591 -0.241161
v 2.318870 8.492591 0.998121
v 2.318870 8.348489 1.299696
v 2.318870 8.000594 1.424608
v 2.318870 8.492591 -0.998125
v 2.318870 8.000594 -1.424612
v 2.318870 8.348489 -1.299700
v -2.318875 7.721419 -0.789675
v -2.318875 7.088651 -1.424612
v -2.318875 8.492591 -0.241161
v -2.318875 8.492591 0.998121
v -2.318875 7.721419 1.424608
v -2.318875 8.000594 1.424608
v -2.318875 8.348489 1.299696
v -2.318875 8.492591 -0.998125
v -2.318875 8.348489 -1.299700
v -2.318875 8.000594 -1.424612
v 2.425181 7.721419 -0.789675
v 2.509845 7.806085 -0.863068
v 2.509845 7.151068 -1.361982
v 2.414367 7.088651 -1.424612
v 2.425181 7.721419 1.424608
v 2.509845 7.806085 1.351217
v 2.415114 8.492591 -0.241161
v 2.509845 8.419358 -0.293249
v 2.509845 8.407926 0.983522
v 2.425181 8.492591 0.998121
v 2.509845 8.283689 1.243521
v 2.425181 8.348489 1.299696
v 2.509845 7.983753 1.351217
v 2.425181 8.000594 1.424608
v 2.425181 8.492591 -0.998125
v 2.509845 8.407926 -0.983526
v 2.509845 7.983753 -1.351221
v 2.425181 8.000594 -1.424612
v 2.509845 8.283689 -1.243528
v 2.425181 8.348489 -1.299700
v -2.414372 7.088651 -1.424612
v -2.509847 7.151068 -1.361982
v -2.509847 7.806085 -0.863068
v -2.425183 7.721419 -0.789675
v -2.509847 8.419358 -0.293249
v -2.415120 8.492591 -0.241161
v -2.425183 8.492591 0.998121
v -2.509847 8.407926 0.983522
v -2.509847 7.806085 1.351217
v -2.425183 7.721419 1.424608
v -2.509847 7.983753 1.351217
v -2.425183 8.000594 1.424608
v -2.509847 8.283689 1.243521
v -2.425183 8.348489 1.299696
v -2.509847 8.407926 -0.983526
v -2.425183 8.492591 -0.998125
v -2.509847 8.283689 -1.243528
v -2.425183 8.348489 -1.299700
v -2.509847 7.983753 -1.351221
v -2.425183 8.000594 -1.424612
v 1.886096 -9.125360 -0.241161
v 2.318870 -9.125360 -0.616308
v -2.318875 -9.125360 -0.616308
v -1.886106 -9.125360 -0.241161
v -1.886106 -9.125360 -1.973129
v -2.318875 -9.125360 -1.597982
v 2.318870 -9.125360 -1.597982
v 1.886096 -9.125360 -1.973129
v -1.242185 -9.125360 -0.241161
v -1.131665 -9.125360 -0.336966
v 1.091292 -9.125360 -1.973129
v 0.980769 -9.125360 -1.877323
v -1.242185 -9.125360 -1.973129
v 1.091292 -9.125360 -0.241159
v 0.980769 -9.125360 -1.748621
v -1.131665 -9.125360 -0.412992
v 2.318870 -9.125360 -0.789675
v -2.318875 -9.125360 -1.424612
v 2.425181 -9.125360 -0.789675
v 2.509845 -9.125360 -0.863068
v -2.420205 -9.125360 -1.424612
v -2.509847 -9.125360 -1.356123
v 2.509845 -9.125360 -1.356188
v -2.509847 -9.125360 -0.863068
v -1.131665 -9.125360 -1.748621
v 0.980769 -9.125360 -0.412725
v -1.131665 -9.125360 -1.877323
v 0.980769 -9.125360 -0.336966
v 2.318870 -9.125360 -1.424612
v -2.318875 -9.125360 -0.789675
v 2.420138 -9.125360 -1.424612
v -2.425183 -9.125360 -0.789675
vt 0.380581 0.458394
vt 0.942419 0.674766
vt 0.933916 0.690455
vt 0.267311 0.458394
vt 0.426448 0.458394
vt 0.946715 0.676405
vt 0.467363 0.458394
vt 0.950090 0.679411
vt 0.893484 0.662985
vt 0.614745 0.462892
vt 0.720892 0.462892
vt 0.720892 0.496755
vt 0.897572 0.671433
vt 0.572053 0.462892
vt 0.904089 0.677777
vt 0.533438 0.462892
vt 0.589609 0.458394
vt 0.945852 0.693084
vt 0.950424 0.683479
vt 0.504427 0.458394
vt 0.644297 0.458394
vt 0.942971 0.698678
vt 0.680543 0.458394
vt 0.940361 0.701070
vt 0.930964 0.667406
vt 0.420618 0.462892
vt 0.499317 0.462892
vt 0.912272 0.677843
vt 0.941949 0.660887
vt 0.369831 0.462892
vt 0.946439 0.655261
vt 0.335905 0.462892
vt 1.171265 0.462892
vt 1.171266 0.496755
vt 0.866500 0.682557
vt -0.219259 0.458394
vt 0.783542 0.458394
vt 0.783542 0.495082
vt 0.936457 0.701398
vt 0.720073 0.458394
vt 1.278157 0.458394
vt 1.278157 0.495082
vt 0.943447 0.632690
vt 0.241208 0.462892
vt 0.299871 0.462892
vt 0.946580 0.647372
vt 0.921261 0.504911
vt -0.213072 0.462892
vt 0.426448 0.401244
vt 0.380581 0.401244
vt 0.614745 0.400257
vt 0.572053 0.400257
vt 0.644297 0.401244
vt 0.589609 0.401244
vt 0.420618 0.400257
vt 0.369831 0.400257
vt 0.544485 0.846348
vt 0.720073 0.401244
vt 0.299871 0.400257
vt 0.241208 0.400257
vt 0.504427 0.401244
vt 0.499317 0.400257
vt 0.272954 0.401244
vt 0.198082 0.788408
vt 0.467363 0.401244
vt 0.533438 0.400257
vt 0.680543 0.401244
vt 0.335905 0.400257
vt 0.783542 0.407082
vt 0.783542 0.416721
vt 0.720073 0.416721
vt 0.720073 0.407082
vt 0.680543 0.416721
vt 0.680543 0.407082
vt 0.644297 0.416721
vt 0.644297 0.407082
vt 0.589609 0.416721
vt 0.589609 0.407082
vt 0.504427 0.416721
vt 0.504427 0.407082
vt 0.467363 0.416721
vt 0.467363 0.407082
vt 0.426448 0.416721
vt 0.426448 0.407082
vt 0.380581 0.416721
vt 0.380581 0.407082
vt 0.267311 0.416721
vt 0.267311 0.407082
vt -0.219259 0.416721
vt -0.219259 0.407082
vt 0.720892 0.407228
vt 0.720892 0.415956
vt 0.614745 0.415956
vt 0.614745 0.407228
vt 0.572053 0.415956
vt 0.572053 0.407228
vt 0.533438 0.415956
vt 0.533438 0.407228
vt 0.499317 0.415956
vt 0.499317 0.407228
vt 0.420618 0.415956
vt 0.420618 0.407228
vt 0.369831 0.415956
vt 0.369831 0.407228
vt 0.335905 0.415956
vt 0.335905 0.407228
vt 0.299871 0.415956
vt 0.299871 0.407228
vt 0.241208 0.415956
vt 0.241208 0.407228
vt -0.213072 0.415956
vt -0.213072 0.407228
vt 1.278157 0.416721
vt 1.171265 0.415956
vt -0.213072 0.400257
vt -0.219259 0.401244
vt 0.903342 0.507672
vt 0.927486 0.645603
vt 0.897719 0.664228
vt 0.911262 0.674666
vt 0.929303 0.664558
vt 0.904875 0.674519
vt 0.899698 0.669717
vt 0.939844 0.658278
vt 0.943671 0.647416
vt 0.940631 0.633157
vt 0.943491 0.653775
vt 0.865660 0.691465
vt 0.929239 0.698851
vt 0.944400 0.692349
vt 0.948825 0.683093
vt 0.943202 0.676780
vt 0.935039 0.692033
vt 0.945975 0.677534
vt 0.948522 0.679929
vt 0.941621 0.697723
vt 0.939529 0.699668
vt 0.936391 0.699963
vt 0.929156 0.646031
vt 0.931230 0.647083
vt 0.901289 0.665740
vt 0.899259 0.664891
vt 0.905074 0.507409
vt 0.906899 0.507131
vt 0.937400 0.634730
vt 0.939079 0.633415
vt 0.941936 0.647529
vt 0.940043 0.647584
vt 0.902418 0.667994
vt 0.900959 0.668931
vt 0.928509 0.663186
vt 0.928227 0.661023
vt 0.937367 0.655449
vt 0.938663 0.656960
vt 0.910813 0.673041
vt 0.910297 0.671184
vt 0.905430 0.673025
vt 0.905906 0.671260
vt 0.940253 0.652344
vt 0.941930 0.653188
vt 0.929322 0.698079
vt 0.929925 0.697215
vt 0.936367 0.698157
vt 0.936394 0.699090
vt 0.865738 0.690644
vt 0.865825 0.689730
vt 0.935871 0.693836
vt 0.935283 0.692845
vt 0.943603 0.677489
vt 0.944088 0.678466
vt 0.942627 0.691929
vt 0.943700 0.691999
vt 0.940949 0.697197
vt 0.940166 0.696604
vt 0.947061 0.682731
vt 0.947991 0.682929
vt 0.946954 0.680561
vt 0.947811 0.680272
vt 0.945654 0.678210
vt 0.945231 0.678948
vt 0.939180 0.698920
vt 0.938720 0.698118
vt 0.914948 0.505885
vt 0.866210 0.685728
vt 0.866583 0.846348
vt -0.129284 0.788408
vt 1.278157 0.407082
vt 1.171265 0.407228
vt 0.918438 0.505346
vt 0.866373 0.683960
vt 0.916788 0.505601
vt 0.866294 0.684821
vt 1.171266 0.400257
vt 0.714720 0.400257
vt 1.278157 0.401244
vt 0.783542 0.401244
vt 0.865527 0.692869
vt 0.929087 0.700252
vt 0.900519 0.508096
vt 0.924171 0.643535
vt 0.456977 0.788408
vt 0.479367 0.788408
vt 0.479367 0.846348
vt 0.456977 0.846348
vt 0.504344 0.788408
vt 0.504344 0.846348
vt 0.323152 0.788408
vt 0.348130 0.788408
vt 0.348130 0.846348
vt 0.323152 0.846348
vt 0.370519 0.788408
vt 0.370519 0.846348
vt 0.198082 0.846348
vt -0.129284 0.846348
vt 0.544485 0.788408
vt 0.866583 0.788408
vt 0.288019 0.788408
vt 0.288019 0.846348
vt 0.423543 0.788408
vt 0.423543 0.846348
vt 0.335905 0.496755
vt 0.299871 0.496755
vt 0.720073 0.495082
vt 0.680543 0.495082
vt 0.533438 0.496755
vt 0.499317 0.496755
vt 0.504427 0.495082
vt 0.467363 0.495082
vt 0.241208 0.496755
vt -0.213072 0.496755
vt 0.267311 0.495082
vt -0.219259 0.495082
vt 0.369831 0.496755
vt 0.420618 0.496755
vt 0.644297 0.495082
vt 0.589609 0.495082
vt 0.572053 0.496755
vt 0.614745 0.496755
vt 0.426448 0.495082
vt 0.380581 0.495082
vn -0.336387 -0.867354 0.366799
vn -0.820574 -0.536438 0.197215
vn -0.911656 -0.060543 0.406470
vn -0.435558 -0.118492 0.892328
vn -0.278692 0.142058 0.949816
vn -0.736430 0.100506 0.669007
vn -0.301109 0.630545 0.715364
vn -0.769494 0.409363 0.490205
vn 0.820571 -0.536441 0.197216
vn 0.292963 -0.878580 0.377187
vn 0.396740 -0.121191 0.909896
vn 0.911655 -0.060544 0.406473
vn 0.736427 0.100507 0.669010
vn 0.243140 0.142948 0.959400
vn 0.769491 0.409365 0.490208
vn 0.262486 0.637219 0.724606
vn -0.366358 0.930474 0.000000
vn -0.821105 0.570777 0.000000
vn -0.802573 0.591019 0.081075
vn -0.343738 0.929791 0.131655
vn -0.337732 0.924715 -0.175611
vn -0.798523 0.591820 -0.110047
vn -0.301108 0.630546 -0.715364
vn -0.769494 0.409363 -0.490205
vn 0.821102 0.570781 0.000000
vn 0.325929 0.945394 0.000000
vn 0.303369 0.943332 0.134508
vn 0.802571 0.591022 0.081076
vn 0.798521 0.591823 -0.110048
vn 0.297504 0.937776 -0.179077
vn 0.769491 0.409365 -0.490208
vn 0.262485 0.637219 -0.724606
vn 0.294554 0.000000 0.955635
vn 0.786889 0.000000 0.617095
vn -0.786892 0.000000 0.617091
vn -0.331352 0.000000 0.943507
vn -0.328587 0.000000 -0.944474
vn -0.784723 0.000000 -0.619847
vn -0.759039 0.083499 -0.645668
vn -0.302995 0.134286 -0.943484
vn -0.329026 0.000000 -0.944321
vn -0.785071 0.000000 -0.619406
vn 0.784720 0.000000 -0.619851
vn 0.291825 0.000000 -0.956472
vn 0.266426 0.136193 -0.954185
vn 0.759037 0.083499 -0.645671
vn 0.785068 0.000000 -0.619409
vn 0.292257 0.000000 -0.956340
vn 0.044687 0.195229 0.979739
vn 0.033055 -0.925756 0.376673
vn -0.033055 -0.925756 0.376673
vn -0.044687 0.195229 0.979739
vn 0.075386 0.985792 -0.150104
vn 0.068124 0.997677 0.000000
vn -0.068124 0.997677 0.000000
vn -0.075386 0.985792 -0.150104
vn 0.060724 -0.000496 -0.998155
vn 0.064968 0.110683 -0.991730
vn -0.064968 0.110683 -0.991730
vn -0.060724 -0.000496 -0.998155
vn 0.075482 0.990975 0.110773
vn -0.075482 0.990975 0.110773
vn 0.010500 -0.137787 0.990406
vn -0.010596 -0.137787 0.990405
vn 0.081081 0.652852 0.753133
vn -0.081081 0.652852 0.753134
vn 0.081080 0.652852 -0.753134
vn -0.081080 0.652852 -0.753134
vn 0.896842 0.000000 -0.442351
vn 0.125911 0.000000 -0.992042
vn 0.117854 0.143044 -0.982675
vn 0.865675 0.068853 -0.495849
vn 0.118873 0.652714 -0.748221
vn 0.855311 0.332100 -0.397684
vn 0.131951 0.972637 -0.191221
vn 0.889224 0.448687 -0.089221
vn 0.143904 0.989592 0.000000
vn 0.915328 0.402710 0.000000
vn 0.133261 0.980400 0.145112
vn 0.892866 0.445364 0.066648
vn 0.118873 0.652714 0.748221
vn 0.855311 0.332100 0.397684
vn 0.114742 0.143697 0.982947
vn 0.828631 0.079570 0.554111
vn 0.121571 -0.901241 0.415915
vn 0.815508 -0.526009 0.241373
vn 0.189743 -0.131651 0.972968
vn 0.907101 -0.062611 0.416230
vn 0.126336 0.000000 0.991988
vn 0.789661 0.000000 0.613543
vn -0.906859 -0.062689 0.416745
vn -0.160492 -0.132540 0.978098
vn -0.100595 -0.902939 0.417830
vn -0.815499 -0.526021 0.241378
vn -0.095512 0.143864 0.984978
vn -0.828623 0.079572 0.554123
vn -0.098750 0.653760 0.750231
vn -0.855304 0.332107 0.397694
vn -0.111056 0.983075 0.145709
vn -0.892860 0.445376 0.066650
vn -0.120276 0.992741 0.000000
vn -0.915322 0.402722 0.000000
vn -0.109928 0.975230 -0.191946
vn -0.889218 0.448699 -0.089224
vn -0.098750 0.653760 -0.750231
vn -0.855304 0.332107 -0.397694
vn -0.098181 0.143326 -0.984794
vn -0.865668 0.068855 -0.495862
vn -0.105179 0.000000 -0.994453
vn -0.896836 0.000000 -0.442364
vn -0.105238 0.000000 -0.994447
vn -0.897177 0.000000 -0.441671
vn 0.125978 0.000000 -0.992033
vn -0.105546 0.000000 0.994414
vn -0.060813 0.000000 -0.998149
vn 0.021765 -0.003636 0.999757
vn 0.851090 0.000000 0.525021
vn 0.653972 -0.098586 0.750068
vn 0.953557 -0.298848 0.037678
vn 0.918532 0.393491 0.038256
vn 0.895216 0.445632 0.000000
vn 0.939318 0.224700 0.259215
vn 0.921076 0.076070 0.381880
vn 0.921691 0.384131 -0.054126
vn 0.899135 0.044817 -0.435370
vn 0.869679 0.000000 -0.493618
vn 0.939318 0.224700 -0.259214
vn -0.869656 0.000000 -0.493658
vn -0.869617 0.000000 -0.493727
vn -0.895220 0.445625 0.000000
vn -0.918536 0.393483 0.038255
vn -0.953560 -0.298837 0.037677
vn -0.653985 -0.098585 0.750057
vn -0.921081 0.076069 0.381868
vn -0.939322 0.224693 0.259207
vn -0.921694 0.384122 -0.054124
vn -0.939322 0.224692 -0.259206
vn -0.899140 0.044816 -0.435362
vn 0.462420 -0.112762 0.879462
vn 0.987010 -0.023039 0.158996
vn 0.968499 -0.247581 0.026711
vn 0.343910 -0.932864 0.107197
vn 0.359162 0.000000 0.933275
vn 0.988807 -0.000000 0.149202
vn 0.996738 0.000007 -0.080707
vn 0.361375 -0.000006 -0.932421
vn 0.326363 0.094704 -0.940488
vn 0.964799 0.023993 -0.261893
vn 0.953278 0.061216 0.295826
vn 0.332067 0.189730 0.923977
vn 0.390788 0.920481 0.000142
vn 0.995836 0.091162 -0.000033
vn 0.973943 0.224779 -0.030165
vn 0.367965 0.921577 -0.123684
vn 0.375048 0.923286 0.082959
vn 0.995702 0.092266 0.008036
vn 0.356391 0.619017 0.699859
vn 0.934095 0.228846 0.274037
vn 0.981955 0.121219 -0.145158
vn 0.356387 0.619020 -0.699859
vn -0.361547 -0.000007 -0.932354
vn -0.996740 0.000007 -0.080683
vn -0.964800 0.023994 -0.261889
vn -0.326368 0.094704 -0.940487
vn -0.325060 -0.000024 -0.945694
vn -0.987191 -0.000008 -0.159543
vn -0.987009 -0.023040 0.159003
vn -0.462426 -0.112762 0.879458
vn -0.343917 -0.932861 0.107197
vn -0.968499 -0.247581 0.026711
vn -0.995836 0.091161 -0.000033
vn -0.390795 0.920478 0.000142
vn -0.367971 0.921574 -0.123684
vn -0.973943 0.224776 -0.030166
vn -0.995702 0.092265 0.008036
vn -0.375053 0.923284 0.082960
vn -0.934095 0.228845 0.274038
vn -0.356398 0.619016 0.699857
vn -0.332073 0.189730 0.923975
vn -0.953278 0.061215 0.295828
vn -0.356394 0.619018 -0.699857
vn -0.981955 0.121219 -0.145158
vn 0.987182 -0.000008 -0.159601
vn -0.988806 0.000000 0.149210
vn 0.060813 0.000000 -0.998149
vn -0.021828 -0.003636 0.999755
vn 0.897183 0.000000 -0.441659
vn -0.789372 0.000000 0.613915
vn 0.869722 0.000000 -0.493542
vn -0.851098 0.000000 0.525007
vn 0.324910 -0.000024 -0.945745
vn -0.359168 0.000000 0.933273
s 1
g pump corroridor_4
usemtl lambert4SG
f 1/1/1 2/240/2 20/231/3 19/4/4
f 2/240/2 1/1/1 4/5/5 3/239/6
f 3/239/6 4/5/5 33/7/7 34/228/8
f 5/238/9 6/10/10 18/11/11 17/12/12
f 6/10/10 5/238/9 8/237/13 7/14/14
f 7/14/14 8/237/13 35/225/15 36/16/16
f 9/17/17 10/236/18 26/227/19 25/20/20
f 10/236/18 9/17/17 12/21/21 11/235/22
f 11/235/22 12/21/21 37/23/23 38/224/24
f 13/234/25 14/26/26 28/27/27 27/226/28
f 14/26/26 13/234/25 16/233/29 15/30/30
f 15/30/30 16/233/29 39/221/31 40/32/32
f 17/12/12 18/11/11 161/33/33 162/34/34
f 19/4/4 20/231/3 163/232/35 164/36/36
f 21/37/37 22/38/38 30/223/39 29/40/40
f 22/38/38 21/37/37 165/41/41 166/42/42
f 23/229/43 24/44/44 32/45/45 31/222/46
f 24/44/44 23/229/43 167/230/47 168/48/48
f 25/20/20 26/227/19 34/228/8 33/7/7
f 27/226/28 28/27/27 36/16/16 35/225/15
f 29/40/40 30/223/39 38/224/24 37/23/23
f 31/222/46 32/45/45 40/32/32 39/221/31
f 41/210/49 42/218/50 43/217/51 44/207/52
f 45/204/53 46/220/54 47/219/55 48/201/56
f 49/57/57 50/206/58 51/205/59 52/215/60
f 46/220/54 53/212/61 54/211/62 47/219/55
f 42/218/50 55/213/63 56/64/64 43/217/51
f 53/212/61 57/209/65 58/208/66 54/211/62
f 57/209/65 41/210/49 44/207/52 58/208/66
f 50/206/58 59/203/67 60/202/68 51/205/59
f 59/203/67 45/204/53 48/201/56 60/202/68
f 62/69/69 61/70/70 63/71/71 64/72/72
f 64/72/72 63/71/71 65/73/73 66/74/74
f 66/74/74 65/73/73 67/75/75 68/76/76
f 68/76/76 67/75/75 69/77/77 70/78/78
f 70/78/78 69/77/77 71/79/79 72/80/80
f 72/80/80 71/79/79 73/81/81 74/82/82
f 74/82/82 73/81/81 75/83/83 76/84/84
f 76/84/84 75/83/83 77/85/85 78/86/86
f 78/86/86 77/85/85 79/87/87 80/88/88
f 80/88/88 79/87/87 169/89/89 170/90/90
f 82/91/91 81/92/92 83/93/93 84/94/94
f 84/94/94 83/93/93 85/95/95 86/96/96
f 86/96/96 85/95/95 87/97/97 88/98/98
f 88/98/98 87/97/97 89/99/99 90/100/100
f 90/100/100 89/99/99 91/101/101 92/102/102
f 92/102/102 91/101/101 93/103/103 94/104/104
f 94/104/104 93/103/103 95/105/105 96/106/106
f 96/106/106 95/105/105 97/107/107 98/108/108
f 98/108/108 97/107/107 99/109/109 100/110/110
f 100/110/110 99/109/109 171/111/111 172/112/112
f 21/37/37 61/70/70 173/113/113 165/41/41
f 29/40/40 63/71/71 61/70/70 21/37/37
f 29/40/40 37/23/23 65/73/73 63/71/71
f 37/23/23 12/21/21 67/75/75 65/73/73
f 9/17/17 69/77/77 67/75/75 12/21/21
f 25/20/20 71/79/79 69/77/77 9/17/17
f 25/20/20 33/7/7 73/81/81 71/79/79
f 33/7/7 4/5/5 75/83/83 73/81/81
f 1/1/1 77/85/85 75/83/83 4/5/5
f 19/4/4 79/87/87 77/85/85 1/1/1
f 18/11/11 81/92/92 174/114/114 161/33/33
f 83/93/93 81/92/92 18/11/11 6/10/10
f 85/95/95 83/93/93 6/10/10 7/14/14
f 87/97/97 85/95/95 7/14/14 36/16/16
f 89/99/99 87/97/97 36/16/16 28/27/27
f 91/101/101 89/99/99 28/27/27 14/26/26
f 93/103/103 91/101/101 14/26/26 15/30/30
f 95/105/105 93/103/103 15/30/30 40/32/32
f 97/107/107 95/105/105 40/32/32 32/45/45
f 99/109/109 97/107/107 32/45/45 24/44/44
f 76/84/84 78/86/86 42/50/50 41/49/49
f 84/94/94 86/96/96 44/52/52 43/51/51
f 68/76/76 70/78/78 46/54/54 45/53/53
f 92/102/102 94/104/104 48/56/56 47/55/55
f 62/69/69 64/72/72 50/58/58 49/196/57
f 98/108/108 100/110/110 52/60/60 51/59/59
f 70/78/78 72/80/80 53/61/61 46/54/54
f 90/100/100 92/102/102 47/55/55 54/62/62
f 78/86/86 80/88/88 55/63/63 42/50/50
f 82/91/91 84/94/94 43/51/51 56/194/64
f 100/110/110 172/112/112 175/115/115 52/60/60
f 80/88/88 170/90/90 176/116/116 55/63/63
f 72/80/80 74/82/82 57/65/65 53/61/61
f 88/98/98 90/100/100 54/62/62 58/66/66
f 74/82/82 76/84/84 41/49/49 57/65/65
f 86/96/96 88/98/98 58/66/66 44/52/52
f 64/72/72 66/74/74 59/67/67 50/58/58
f 96/106/106 98/108/108 51/59/59 60/68/68
f 66/74/74 68/76/76 45/53/53 59/67/67
f 94/104/104 96/106/106 60/68/68 48/56/56
f 17/200/12 162/199/34 177/117/117 102/118/118
f 5/9/9 17/200/12 102/118/118 103/119/119
f 13/25/25 27/28/28 105/120/120 104/121/121
f 27/28/28 35/15/15 106/122/122 105/120/120
f 35/15/15 8/13/13 107/123/123 106/122/122
f 8/13/13 5/9/9 103/119/119 107/123/123
f 16/29/29 13/25/25 104/121/121 108/124/124
f 23/43/43 31/46/46 109/125/125 101/126/126
f 31/46/46 39/31/31 110/127/127 109/125/125
f 39/31/31 16/29/29 108/124/124 110/127/127
f 22/198/38 166/197/42 178/128/128 112/129/129
f 26/19/19 10/18/18 113/130/130 114/131/131
f 20/3/3 2/2/2 115/132/132 111/133/133
f 2/2/2 3/6/6 116/134/134 115/132/132
f 3/6/6 34/8/8 117/135/135 116/134/134
f 34/8/8 26/19/19 114/131/131 117/135/135
f 10/18/18 11/22/22 118/136/136 113/130/130
f 11/22/22 38/24/24 119/137/137 118/136/136
f 38/24/24 30/39/39 120/138/138 119/137/137
f 30/39/39 22/198/38 112/129/129 120/138/138
f 121/139/139 122/140/140 126/141/141 125/142/142
f 122/140/140 121/139/139 179/143/143 180/144/144
f 123/145/145 124/146/146 138/147/147 137/148/148
f 125/142/142 126/141/141 133/149/149 134/150/150
f 127/151/151 128/152/152 136/153/153 135/154/154
f 128/152/152 127/151/151 130/155/155 129/156/156
f 129/156/156 130/155/155 132/157/157 131/158/158
f 131/158/158 132/157/157 134/150/150 133/149/149
f 135/154/154 136/153/153 139/159/159 140/160/160
f 137/148/148 138/147/147 140/160/160 139/159/159
f 141/161/161 142/162/162 159/163/163 160/164/164
f 142/162/162 141/161/161 181/165/165 182/166/166
f 143/167/167 144/168/168 150/169/169 149/170/170
f 145/171/171 146/172/172 156/173/173 155/174/174
f 146/172/172 145/171/171 148/175/175 147/176/176
f 147/176/176 148/175/175 153/177/177 154/178/178
f 149/170/170 150/169/169 152/179/179 151/180/180
f 151/180/180 152/179/179 154/178/178 153/177/177
f 155/174/174 156/173/173 158/181/181 157/182/182
f 157/182/182 158/181/181 160/164/164 159/163/163
f 123/145/145 122/140/140 180/144/144 183/183/183
f 143/167/167 142/162/162 182/166/166 184/184/184
f 148/175/175 149/170/170 151/180/180 153/177/177
f 126/141/141 122/140/140 128/152/152 129/156/156
f 155/174/174 143/167/167 145/171/171
f 136/153/153 122/140/140 137/148/148 139/159/159
f 102/118/118 177/117/117 179/143/143 121/139/139
f 103/119/119 102/118/118 121/139/139 125/142/142
f 104/121/121 105/120/120 130/155/155 127/151/151
f 105/120/120 106/122/122 132/157/157 130/155/155
f 106/122/122 107/123/123 134/150/150 132/157/157
f 107/123/123 103/119/119 125/142/142 134/150/150
f 108/124/124 104/121/121 127/151/151 135/154/154
f 101/126/126 109/125/125 138/147/147 124/146/146
f 109/125/125 110/127/127 140/160/160 138/147/147
f 110/127/127 108/124/124 135/154/154 140/160/160
f 112/129/129 178/128/128 181/165/165 141/161/161
f 114/131/131 113/130/130 146/172/172 147/176/176
f 111/133/133 115/132/132 150/169/169 144/168/168
f 115/132/132 116/134/134 152/179/179 150/169/169
f 116/134/134 117/135/135 154/178/178 152/179/179
f 117/135/135 114/131/131 147/176/176 154/178/178
f 113/130/130 118/136/136 156/173/173 146/172/172
f 118/136/136 119/137/137 158/181/181 156/173/173
f 119/137/137 120/138/138 160/164/164 158/181/181
f 120/138/138 112/129/129 141/161/161 160/164/164
f 175/216/115 185/185/185 49/57/57 52/215/60
f 176/214/116 186/186/186 56/64/64 55/213/63
f 187/187/187 173/113/113 61/70/70 62/69/69
f 188/188/188 174/114/114 81/92/92 82/91/91
f 164/36/36 169/89/89 79/87/87 19/4/4
f 168/48/48 171/111/111 99/109/109 24/44/44
f 185/195/185 187/187/187 62/69/69 49/196/57
f 186/193/186 188/188/188 82/91/91 56/194/64
f 189/189/189 167/47/47 23/43/43 101/126/126
f 190/190/190 163/35/35 20/3/3 111/133/133
f 183/183/183 191/191/191 124/146/146 123/145/145
f 184/184/184 192/192/192 144/168/168 143/167/167
f 191/191/191 189/189/189 101/126/126 124/146/146
f 192/192/192 190/190/190 111/133/133 144/168/168
f 159/163/163 143/167/167 155/174/174 157/182/182
f 142/162/162 143/167/167 159/163/163
f 148/175/175 145/171/171 143/167/167 149/170/170
f 126/141/141 129/156/156 131/158/158 133/149/149
f 136/153/153 128/152/152 122/140/140
f 137/148/148 122/140/140 123/145/145
