# This file uses centimeters as units for non-parametric coordinates.

mtllib roof.mtl
g default
v 19.833995 0.000000 36.100302
v 19.833995 0.000000 12.495550
v 6.028972 0.000000 57.620771
v 19.833995 0.000000 57.620771
v -19.833997 0.000000 -20.587898
v 19.833995 0.000000 -20.587898
v 19.833995 0.000000 -9.414617
v -19.833997 0.000000 -9.414617
v -19.833997 0.000000 -10.765276
v 19.833995 0.000000 -10.765276
v -19.833997 0.000000 -32.810539
v 8.062312 0.000000 -32.810541
v -5.166051 0.000000 12.082045
v -4.161382 0.000000 12.495550
v -5.588582 0.000000 11.081133
v -0.071034 0.000000 12.911697
v 0.345119 0.000000 13.916372
v -1.075704 0.000000 12.495550
v 0.761271 0.000000 35.684149
v 1.765941 0.000000 36.100302
v 0.345119 0.000000 34.679480
v 5.612834 0.000000 36.516447
v 6.028972 0.000000 37.521124
v 4.608150 0.000000 36.100302
v -19.417851 0.000000 -57.204622
v -19.833997 0.000000 -56.199953
v -18.413175 0.000000 -57.620775
v 3.845866 0.000000 -57.204622
v 2.841197 0.000000 -57.620775
v 4.262019 0.000000 -56.199953
v -6.009084 0.000000 -4.460125
v -5.609769 0.000000 -3.620527
v -7.013761 0.000000 -4.883222
v 19.417842 0.000000 -32.394390
v 18.413173 0.000000 -32.810539
v 19.833995 0.000000 -31.389717
v -19.417790 0.000000 -5.299388
v -18.413121 0.000000 -4.883242
v -19.833959 0.000000 -6.304056
v 4.678172 0.000000 -33.226688
v 4.262019 0.000000 -34.231363
v 5.682841 0.000000 -32.810539
vt 0.859812 0.522437
vt 0.882717 0.965571
vt 0.865303 0.958139
vt 0.858166 0.940602
vt 0.858377 0.886828
vt 0.851194 0.869292
vt 0.833714 0.861970
vt 0.471878 0.860546
vt 0.454398 0.853225
vt 0.447215 0.835688
vt 0.447410 0.786157
vt 0.440226 0.768620
vt 0.422747 0.761299
vt 0.072472 0.759920
vt 0.073419 0.519341
vt 0.448454 0.520818
vt 0.098754 0.330396
vt 0.349974 0.021038
vt 0.278163 0.331292
vt 0.366457 0.021097
vt 0.486328 0.021523
vt 0.618149 0.021991
vt 0.630391 0.027113
vt 0.635426 0.039391
vt 0.634978 0.165709
vt 0.634875 0.194747
vt 0.639910 0.207025
vt 0.652152 0.212147
vt 0.920247 0.213100
vt 0.932490 0.218222
vt 0.937525 0.230500
vt 0.936603 0.489879
vt 0.931481 0.502122
vt 0.919203 0.507157
vt 0.633769 0.506143
vt 0.484609 0.505613
vt 0.364738 0.505188
vt 0.348255 0.505129
vt 0.310295 0.504994
vt 0.298053 0.499872
vt 0.293018 0.487593
vt 0.293511 0.348480
vt 0.288392 0.336201
vt 0.082595 0.020089
vn 0.000000 1.000000 -0.000000
vn 0.000000 1.000000 -0.000000
vn 0.000000 1.000000 -0.000000
vn 0.000000 1.000000 0.000000
vn 0.000000 1.000000 0.000000
vn 0.000000 1.000000 -0.000000
vn 0.000000 1.000000 0.000000
vn 0.000000 1.000000 -0.000000
vn 0.000000 1.000000 -0.000000
vn 0.000000 1.000000 0.000000
vn 0.000000 1.000000 -0.000000
vn 0.000000 1.000000 -0.000000
vn 0.000000 1.000000 -0.000000
vn 0.000000 1.000000 0.000000
vn 0.000000 1.000000 -0.000000
vn 0.000000 1.000000 0.000000
vn 0.000000 1.000000 -0.000000
vn 0.000000 1.000000 -0.000000
vn 0.000000 1.000000 0.000000
vn 0.000000 1.000000 0.000000
vn 0.000000 1.000000 0.000000
vn 0.000000 1.000000 -0.000000
vn 0.000000 1.000000 0.000000
vn 0.000000 1.000000 -0.000000
vn 0.000000 1.000000 0.000000
vn 0.000000 1.000000 0.000000
vn 0.000000 1.000000 0.000000
vn 0.000000 1.000000 0.000000
vn 0.000000 1.000000 0.000000
vn 0.000000 1.000000 0.000000
vn 0.000000 1.000000 -0.000000
vn 0.000000 1.000000 -0.000000
vn 0.000000 1.000000 0.000000
vn 0.000000 1.000000 0.000000
vn 0.000000 1.000000 0.000000
vn 0.000000 1.000000 -0.000000
vn 0.000000 1.000000 -0.000000
vn 0.000000 1.000000 -0.000000
vn 0.000000 1.000000 -0.000000
vn 0.000000 1.000000 0.000000
vn 0.000000 1.000000 0.000000
vn 0.000000 1.000000 0.000000
s 1
g Corridor_roof corroridor_4
usemtl initialShadingGroup
f 15/2/1 13/3/2 2/1/3
f 3/14/4 4/15/5 23/13/6
f 4/15/5 1/16/7 23/13/6
f 1/16/7 2/1/3 23/13/6
f 23/13/6 2/1/3 22/12/8
f 22/12/8 2/1/3 24/11/9
f 24/11/9 2/1/3 20/10/10
f 20/10/10 2/1/3 19/9/11
f 19/9/11 2/1/3 21/8/12
f 14/4/13 18/5/14 13/3/2
f 13/3/2 18/5/14 2/1/3
f 18/5/14 16/6/15 2/1/3
f 16/6/15 17/7/16 2/1/3
f 2/1/3 17/7/16 21/8/12
f 15/17/1 2/44/3 7/18/17 32/19/18
f 32/19/18 7/18/17 31/43/19
f 7/18/17 10/20/20 31/43/19
f 10/20/20 6/21/21 31/43/19
f 6/21/21 36/22/22 31/43/19
f 31/43/19 36/22/22 33/42/23
f 36/22/22 34/23/24 33/42/23
f 34/23/24 35/24/25 33/42/23
f 35/24/25 12/25/26 33/42/23
f 12/25/26 42/26/27 33/42/23
f 42/26/27 40/27/28 33/42/23
f 33/42/23 40/27/28 38/41/29
f 38/41/29 40/27/28 37/40/30
f 37/40/30 40/27/28 39/39/31
f 39/39/31 40/27/28 8/38/32
f 8/38/32 40/27/28 9/37/33
f 9/37/33 40/27/28 5/36/34
f 5/36/34 40/27/28 11/35/35
f 40/27/28 41/28/36 11/35/35
f 11/35/35 41/28/36 26/34/37
f 26/34/37 41/28/36 25/33/38
f 25/33/38 41/28/36 27/32/39
f 28/30/40 29/31/41 30/29/42
f 41/28/36 30/29/42 27/32/39
f 30/29/42 29/31/41 27/32/39
