# This file uses centimeters as units for non-parametric coordinates.

mtllib vent.mtl
g default
v -0.112822 -0.860165 1.682759
v 0.112822 -0.860165 1.682759
v -0.112822 0.860165 1.682759
v 0.112822 0.860165 1.682759
v -0.112822 0.860165 -1.682759
v 0.112822 0.860165 -1.682759
v -0.112822 -0.860165 -1.682759
v 0.112822 -0.860165 -1.682759
v 0.112822 -0.760165 -1.582759
v 0.112822 -0.760165 1.582761
v 0.112822 0.760165 -1.582759
v 0.112822 0.760165 1.582761
v 0.014082 -0.760165 -1.582759
v 0.014082 -0.760165 1.582761
v 0.014082 0.760165 -1.582759
v 0.014082 0.760165 1.582761
vt 0.571101 0.603414
vt 0.597156 0.579645
vt 0.500518 0.069676
vt 0.594871 0.629469
vt 0.501111 0.001199
vt 0.523562 0.551306
vt 0.249229 0.001031
vt 0.547332 0.577360
vt 0.573386 0.553591
vt 0.248635 0.069509
vt 0.644695 0.631754
vt 0.620925 0.605700
vt 0.618640 0.655523
vt 0.549617 0.527536
vt 0.248635 0.069509
vt 0.249229 0.001031
vt 0.501111 0.001199
vt 0.500518 0.069676
vt 0.248635 0.069509
vt 0.249229 0.001031
vt 0.501111 0.001199
vt 0.500518 0.069676
vn 0.000000 0.000000 1.000000
vn 0.000000 0.000000 1.000000
vn 0.000000 0.000000 1.000000
vn 0.000000 0.000000 1.000000
vn 0.000000 1.000000 0.000000
vn 0.000000 1.000000 0.000000
vn 0.000000 1.000000 0.000000
vn 0.000000 1.000000 0.000000
vn 0.000000 0.000000 -1.000000
vn 0.000000 0.000000 -1.000000
vn 0.000000 0.000000 -1.000000
vn 0.000000 0.000000 -1.000000
vn 0.000000 -1.000000 0.000000
vn 0.000000 -1.000000 0.000000
vn 0.000000 -1.000000 0.000000
vn 0.000000 -1.000000 0.000000
vn 1.000000 0.000000 0.000000
vn 1.000000 0.000000 0.000000
vn 1.000000 0.000000 0.000000
vn 1.000000 0.000000 0.000000
vn 1.000000 -0.000001 0.000000
vn 1.000000 -0.000001 0.000000
vn 1.000000 -0.000001 0.000000
vn 1.000000 -0.000001 0.000000
vn 1.000000 0.000001 0.000000
vn 1.000000 0.000001 0.000000
vn 1.000000 0.000001 0.000000
vn 1.000000 0.000001 0.000000
vn 0.000000 1.000000 0.000000
vn 0.000000 1.000000 0.000000
vn 0.000000 1.000000 0.000000
vn 0.000000 1.000000 0.000000
vn 0.000000 0.000000 1.000000
vn 0.000000 0.000000 1.000000
vn 0.000000 0.000000 1.000000
vn 0.000000 0.000000 1.000000
vn 0.000000 -1.000000 0.000000
vn 0.000000 -1.000000 0.000000
vn 0.000000 -1.000000 0.000000
vn 0.000000 -1.000000 0.000000
vn 0.000000 0.000000 -1.000000
vn 0.000000 0.000000 -1.000000
vn 0.000000 0.000000 -1.000000
vn 0.000000 0.000000 -1.000000
s off
g vent corroridor_4
usemtl lambert4SG
f 1/1/1 2/2/2 4/12/3 3/4/4
f 3/4/5 4/12/6 6/11/7 5/13/8
f 5/6/9 6/14/10 8/9/11 7/8/12
f 7/8/13 8/9/14 2/2/15 1/1/16
f 14/19/17 13/20/18 15/21/19 16/22/20
s 1
f 2/10/21 8/7/22 9/16/23 10/15/24
f 8/7/22 6/5/25 11/17/26 9/16/23
f 6/5/25 4/3/27 12/18/28 11/17/26
f 4/3/27 2/10/21 10/15/24 12/18/28
s off
f 10/15/29 9/16/30 13/20/31 14/19/32
f 9/16/33 11/17/34 15/21/35 13/20/36
f 11/17/37 12/18/38 16/22/39 15/21/40
f 12/18/41 10/15/42 14/19/43 16/22/44
