# This file uses centimeters as units for non-parametric coordinates.

mtllib STAIR 1 COLLIDER.mtl
g default
v -7.500540 -4.757895 9.000401
v 5.500540 -4.757895 9.000401
v 5.462037 4.757895 9.000401
v -7.500540 -4.757895 -9.000401
v 5.462037 4.757895 -9.000401
v 5.500540 -4.757895 -9.000401
vt 0.364360 0.099160
vt 0.625000 0.000000
vt 0.625000 0.250000
vt 0.373548 0.633595
vt 0.625000 0.500000
vt 0.625000 0.750000
vt 0.375000 0.999987
vt 0.625000 1.000000
vt 0.875000 0.000000
vt 0.875000 0.250000
vn 0.000000 0.000000 1.000000
vn 0.000000 0.000000 1.000000
vn 0.000000 0.000000 1.000000
vn -0.591764 0.806111 0.000000
vn -0.591764 0.806111 0.000000
vn -0.591764 0.806111 0.000000
vn -0.591764 0.806111 0.000000
vn 0.000000 0.000000 -1.000000
vn 0.000000 0.000000 -1.000000
vn 0.000000 0.000000 -1.000000
vn 0.000000 -1.000000 0.000000
vn 0.000000 -1.000000 0.000000
vn 0.000000 -1.000000 0.000000
vn 0.000000 -1.000000 0.000000
vn 0.999992 0.004046 0.000000
vn 0.999992 0.004046 0.000000
vn 0.999992 0.004046 0.000000
vn 0.999992 0.004046 0.000000
s off
g pCube13
usemtl initialShadingGroup
f 1/1/1 2/2/2 3/3/3
f 1/1/4 3/3/5 5/5/6 4/4/7
f 4/4/8 5/5/9 6/6/10
f 4/4/11 6/6/12 2/8/13 1/7/14
f 2/2/15 6/9/16 5/10/17 3/3/18
