# This file uses meters as units for non-parametric coordinates.

mtllib basic vent.mtl
g default
v -72.197538 46.590417 99.999938
v -76.856115 41.931765 99.999938
v -76.856115 41.931765 -100.000013
v -72.197538 46.590417 -100.000013
v 76.856115 41.931765 99.999938
v 72.197538 46.590417 99.999938
v 72.197538 46.590417 -100.000013
v 76.856115 41.931765 -100.000013
v -76.856115 -41.931615 99.999938
v -72.197538 -46.590117 99.999938
v -72.197538 -46.590117 -100.000013
v -76.856115 -41.931615 -100.000013
v 72.197538 -46.590117 99.999938
v 76.856115 -41.931615 99.999938
v 76.856115 -41.931615 -100.000013
v 72.197538 -46.590117 -100.000013
vt 0.026008 0.397284
vt 0.268263 0.398882
vt 0.267109 0.573785
vt 0.024854 0.572186
vt 0.265179 0.866230
vt 0.022924 0.864631
vt 0.024078 0.689729
vt 0.266334 0.691327
vt 0.266386 0.683347
vt 0.024131 0.681748
vt 0.024801 0.580167
vt 0.267056 0.581765
vt 0.022871 0.872611
vt 0.265127 0.874210
vt 0.264456 0.975792
vt 0.026060 0.389304
vt 0.268316 0.390902
vt 0.022201 0.974193
vn 0.000000 1.000000 0.000000
vn 0.000000 1.000000 0.000000
vn 0.000000 1.000000 0.000000
vn 0.000000 1.000000 0.000000
vn 0.000000 -1.000000 0.000000
vn 0.000000 -1.000000 0.000000
vn 0.000000 -1.000000 0.000000
vn 0.000000 -1.000000 0.000000
vn 1.000000 0.000000 0.000000
vn 1.000000 0.000000 0.000000
vn 1.000000 0.000000 0.000000
vn 1.000000 0.000000 0.000000
vn -1.000000 0.000000 0.000000
vn -1.000000 0.000000 0.000000
vn -1.000000 0.000000 0.000000
vn -1.000000 0.000000 0.000000
vn -0.707112 0.707101 0.000000
vn -0.707112 0.707101 0.000000
vn -0.707112 0.707101 0.000000
vn -0.707112 0.707101 0.000000
vn 0.707112 0.707101 0.000000
vn 0.707112 0.707101 0.000000
vn 0.707112 0.707101 0.000000
vn 0.707112 0.707101 0.000000
vn -0.707101 -0.707113 0.000000
vn -0.707101 -0.707113 0.000000
vn -0.707101 -0.707113 0.000000
vn -0.707101 -0.707113 0.000000
vn 0.707101 -0.707113 0.000000
vn 0.707101 -0.707113 0.000000
vn 0.707101 -0.707113 0.000000
vn 0.707101 -0.707113 0.000000
s off
g pCube19 vents
usemtl initialShadingGroup
f 4/1/1 1/2/2 6/3/3 7/4/4
f 10/5/5 11/6/6 16/7/7 13/8/8
f 14/9/9 15/10/10 8/11/11 5/12/12
f 12/13/13 9/14/14 2/15/15 3/18/16
f 2/17/17 1/2/18 4/1/19 3/16/20
f 6/3/21 5/12/22 8/11/23 7/4/24
f 10/5/25 9/14/26 12/13/27 11/6/28
f 14/9/29 13/8/30 16/7/31 15/10/32
