# This file uses meters as units for non-parametric coordinates.

mtllib upwards vent.mtl
g default
v 72.197540 110.120829 100.000013
v 76.856110 105.462259 100.000013
v -76.856110 105.462259 100.000013
v -72.197540 110.120829 100.000013
v 76.856110 21.598856 100.000013
v 72.197540 16.940287 100.000013
v -72.197540 16.940287 100.000013
v -76.856110 21.598856 100.000013
v 76.856110 -21.598776 -99.999987
v 72.197540 -16.940206 -99.999987
v -72.197540 -16.940206 -99.999987
v -76.856110 -21.598776 -99.999987
v 72.197540 -110.120748 -99.999987
v 76.856110 -105.462179 -99.999987
v -76.856110 -105.462179 -99.999987
v -72.197540 -110.120748 -99.999987
vt 0.615462 0.702064
vt 0.615252 0.865287
vt 0.347409 0.864943
vt 0.347618 0.701721
vt 0.612420 0.872174
vt 0.344576 0.871831
vt 0.561482 0.952125
vt 0.293639 0.951782
vt 0.558650 0.959013
vt 0.291465 0.444628
vt 0.559100 0.608194
vt 0.291256 0.607850
vt 0.561915 0.615088
vt 0.294071 0.614745
vt 0.612647 0.695170
vt 0.344803 0.694826
vt 0.559309 0.444971
vt 0.290806 0.958669
vn 0.000000 0.844066 -0.536239
vn 0.000000 0.844066 -0.536239
vn 0.000000 0.844066 -0.536239
vn 0.000000 0.844066 -0.536239
vn 0.645011 0.645014 -0.409779
vn 0.645011 0.645014 -0.409778
vn 0.645011 0.645014 -0.409779
vn 0.645011 0.645014 -0.409778
vn 1.000000 0.000000 0.000000
vn 1.000000 0.000000 0.000000
vn 1.000000 0.000000 0.000000
vn 1.000000 0.000000 0.000000
vn 0.645011 -0.645014 0.409779
vn 0.645011 -0.645014 0.409778
vn 0.645011 -0.645014 0.409779
vn 0.645011 -0.645014 0.409778
vn 0.000000 -0.844066 0.536240
vn 0.000000 -0.844066 0.536240
vn 0.000000 -0.844066 0.536240
vn 0.000000 -0.844066 0.536240
vn -0.645011 -0.645014 0.409778
vn -0.645011 -0.645014 0.409779
vn -0.645011 -0.645014 0.409778
vn -0.645011 -0.645014 0.409779
vn -1.000000 0.000000 0.000000
vn -1.000000 0.000000 0.000000
vn -1.000000 0.000000 0.000000
vn -1.000000 0.000000 0.000000
vn -0.645011 0.645014 -0.409778
vn -0.645011 0.645014 -0.409779
vn -0.645011 0.645014 -0.409778
vn -0.645011 0.645014 -0.409779
s off
g pCube26 vents
usemtl initialShadingGroup
f 4/1/1 1/2/2 10/3/3 11/4/4
f 1/2/5 2/5/6 9/6/7 10/3/8
f 2/5/9 5/7/10 14/8/11 9/6/12
f 5/7/13 6/9/14 13/18/15 14/8/16
f 6/17/17 7/11/18 16/12/19 13/10/20
f 7/11/21 8/13/22 15/14/23 16/12/24
f 8/13/25 3/15/26 12/16/27 15/14/28
f 3/15/29 4/1/30 11/4/31 12/16/32
