# This file uses centimeters as units for non-parametric coordinates.

mtllib rock 7.mtl
g default
v -0.253003 1.095217 -1.539388
v -1.290849 0.196394 0.125004
v -2.586797 1.981928 -0.169765
v 1.396620 -0.108080 -1.266653
v 0.280980 -0.994524 0.443264
v -2.384812 -0.278093 1.811454
v -3.792455 0.871874 1.573622
v -1.525624 2.714838 -1.774703
v -4.229707 3.367811 -0.579814
v 3.007347 -1.741234 -1.317129
v 4.529387 -3.059797 -0.701538
v 1.890502 -2.600424 0.543302
v -2.669938 -0.325274 2.008904
v -2.947225 -0.177431 2.082511
v -2.520452 -0.418068 1.977223
v -3.569932 0.078360 2.235358
v -3.777932 0.166365 2.283799
v -4.120278 0.692522 1.974475
v -4.294370 1.046637 1.833907
v -4.555768 1.722578 1.346126
v -4.372319 1.176054 1.765338
v -4.788404 2.559626 0.781670
v -4.963376 2.993929 0.401672
v -5.107900 3.599424 -0.128970
v -5.116925 3.433752 0.054812
v -4.752049 3.833372 -0.627398
v -5.106687 3.621710 -0.151361
v -4.804585 3.834158 -0.587842
v -3.882009 3.693060 -1.168203
v -4.443475 3.826719 -0.861299
v -2.315751 3.379370 -1.928864
v -1.250665 2.982721 -2.240224
v -2.117497 3.340734 -2.023425
v -0.214581 2.345739 -2.598250
v -1.169358 2.938517 -2.273221
v -0.504109 2.573294 -2.540219
v -0.314124 2.423975 -2.578300
v -0.165944 2.307123 -2.608356
v 0.627261 1.677340 -2.773175
v 0.970287 1.463125 -2.791167
v 1.080292 1.394426 -2.796937
v 1.181782 1.331049 -2.802260
v 2.068966 0.774946 -2.846631
v 2.345896 0.612898 -2.850041
v 2.818442 0.308706 -2.880908
v 2.845161 0.257883 -2.844251
v 3.381767 -0.597622 -2.296735
v 3.784333 -1.181606 -2.197637
v 3.627188 -0.988377 -2.214252
v 4.482829 -2.066921 -1.937217
v 4.454551 -2.028509 -1.949708
v 4.950482 -2.782698 -1.351236
v 4.746011 -3.130515 -0.837380
v 4.954728 -2.788343 -1.349935
v 4.784188 -3.046003 -0.951527
v 4.701320 -3.237300 -0.672328
v 3.598386 -3.907220 0.552778
v 4.466186 -3.712202 -0.151796
v 4.465178 -3.717484 -0.147029
v 4.413756 -3.986895 0.096102
v 4.351480 -4.313169 0.390549
v 3.869786 -4.075756 0.511683
v 2.769158 -3.557419 0.778054
v 3.546555 -3.877102 0.560194
v 2.893285 -3.615888 0.749264
v 2.363557 -3.359670 0.874277
v 1.969657 -3.234023 1.023396
v 1.452991 -3.018744 1.176671
v 0.274890 -2.271086 1.437154
v 0.750718 -2.661827 1.400391
v -0.533046 -1.705629 1.573493
v 0.042491 -2.080845 1.454984
v -1.784429 -0.878456 1.839669
v -2.025460 -0.703659 1.879083
v -0.572850 -1.679174 1.581848
v -2.036405 -0.696442 1.880675
v 2.534022 0.477152 1.836566
v 2.640436 0.345331 1.778083
v 3.221573 -0.373638 1.482083
v 1.422723 1.788504 0.810065
v 1.975910 1.163214 2.010003
v 3.420170 -0.601347 1.386209
v 2.772718 0.272963 -0.342064
v 3.461664 -0.662430 1.362213
v 2.518646 0.256269 1.769750
v 0.420800 3.495527 1.101401
v -2.793824 2.691442 2.837970
v 0.436969 3.468153 1.129670
v 1.672863 1.648535 2.137856
v 0.768218 2.906042 1.467679
v 0.381825 3.561514 1.032201
v 1.294981 2.724016 -1.072132
v -2.679925 2.631227 2.880908
v -2.611169 2.623884 2.872668
v -1.986207 2.587782 2.761672
v 1.207636 1.870230 2.177873
v 0.693248 3.033262 1.391315
v 0.995568 1.969969 2.195720
v 0.982016 1.961241 2.192351
v 0.983932 1.975492 2.196652
v 0.966571 1.979986 2.201417
v -1.424661 2.502905 2.723699
v 0.888291 -1.329723 1.691944
v 3.941199 -1.367891 1.096529
v 4.578866 -2.318804 0.401125
v 5.014686 -2.962840 0.068281
v 3.836242 -1.322933 -1.589802
v 2.335408 1.067278 -2.291863
v 0.886081 3.191633 -0.834259
v 0.880813 3.195898 -0.752871
v 0.910319 3.172728 -1.240652
v 0.377995 3.563444 0.149555
v -1.104569 4.313169 0.496264
v 0.467280 3.518293 -1.169034
v 0.474469 3.514662 -0.078084
v -5.071698 4.259062 -0.061306
v -3.639005 1.983145 2.758357
v -5.071980 4.258795 -0.061306
v -3.396943 2.172159 2.791852
v -3.109944 2.387960 2.837970
v -2.061154 1.937220 2.601624
v -0.706761 2.384443 2.686870
v -0.401139 2.250853 2.652007
v -0.571342 0.272684 2.197915
v 2.397394 -2.898718 1.019343
v 3.957313 -1.391493 1.087627
v 4.035360 -1.505787 1.044773
v 4.705440 -2.479628 0.826840
v 5.074887 -3.160506 0.676620
v 5.095082 -3.198572 0.662825
v 5.116925 -3.231512 0.650455
v 5.099057 -3.256957 0.644328
v 5.111495 -3.216990 0.618888
v 5.017138 -2.966008 0.077900
v 4.948007 -2.892960 -0.602625
v 4.935981 -2.883066 -0.791869
v 2.237269 1.223379 -2.352170
v 2.302381 1.137732 -2.396817
v 1.205303 2.866411 -1.382799
v 0.917212 3.167349 -1.256762
v -1.104569 4.313169 -0.619266
v -5.071698 4.259062 -0.061696
v -5.071980 4.258795 -0.061696
v -3.687432 1.833559 2.714751
v -3.774076 0.997881 2.449174
v -3.541139 0.752443 2.340310
v -3.785832 0.518606 2.342406
v 2.347175 1.065847 -2.439414
vt 0.891142 0.286961
vt 0.891500 0.285972
vt 0.898304 0.308845
vt 0.887236 0.304664
vt 0.892643 0.285493
vt 0.881570 0.329983
vt 0.891822 0.285115
vt 0.906708 0.292018
vt 0.880456 0.332955
vt 0.891981 0.284454
vt 0.906235 0.265476
vt 0.912556 0.272480
vt 0.906958 0.292101
vt 0.880224 0.333568
vt 0.898579 0.256993
vt 0.912680 0.272618
vt 0.950067 0.334737
vt 0.917627 0.376229
vt 0.926214 0.284965
vt 0.924401 0.293917
vt 0.873317 0.351910
vt 0.929321 0.294175
vt 0.968320 0.396881
vt 0.872693 0.353498
vt 0.930505 0.287741
vt 0.959424 0.316393
vt 0.933472 0.289938
vt 0.943831 0.296637
vt 0.936608 0.439955
vt 0.966302 0.343435
vt 0.870200 0.359418
vt 0.887672 0.415632
vt 0.959100 0.315394
vt 0.965870 0.338412
vt 0.943865 0.296784
vt 0.944685 0.443657
vt 0.969888 0.400940
vt 0.968447 0.353595
vt 0.862504 0.378111
vt 0.941408 0.451482
vt 0.940989 0.451621
vt 0.971049 0.398713
vt 0.928307 0.452224
vt 0.982682 0.375837
vt 0.860984 0.381538
vt 0.939128 0.460606
vt 0.930424 0.452113
vt 0.972157 0.396844
vt 0.910764 0.460511
vt 0.983635 0.377159
vt 0.856475 0.399375
vt 0.904845 0.461780
vt 0.853150 0.411993
vt 0.870575 0.444688
vt 0.881897 0.461730
vt 0.879363 0.459302
vt 0.880098 0.460014
vt 0.872560 0.447995
vt 0.917030 0.239894
vt 0.914534 0.222157
vt 0.917041 0.239894
vt 0.902381 0.228072
vt 0.915157 0.221536
vt 0.917041 0.239902
vt 0.917030 0.239902
vt 0.920274 0.216923
vt 0.995547 0.176535
vt 0.901280 0.228050
vt 0.994332 0.172371
vt 0.996479 0.181798
vt 0.894768 0.227865
vt 0.929931 0.204678
vt 0.997763 0.187806
vt 0.940511 0.192586
vt 0.997763 0.196256
vt 0.956227 0.169281
vt 0.967899 0.154064
vt 0.962561 0.145595
vt 0.969808 0.150461
vt 0.986938 0.149104
vt 0.973722 0.140602
vt 0.983966 0.135760
vt 0.982334 0.125952
vt 0.350613 0.759497
vt 0.373955 0.759599
vt 0.364786 0.798805
vt 0.394287 0.798805
vt 0.302859 0.843478
vt 0.379975 0.757047
vt 0.379531 0.903717
vt 0.379542 0.903717
vt 0.348783 0.758467
vt 0.408825 0.757238
vt 0.400687 0.887103
vt 0.348036 0.758039
vt 0.445087 0.782926
vt 0.438026 0.800519
vt 0.408803 0.872255
vt 0.301724 0.840466
vt 0.437153 0.802669
vt 0.431420 0.825593
vt 0.446094 0.777902
vt 0.411145 0.745339
vt 0.428919 0.830835
vt 0.301942 0.838648
vt 0.446621 0.775270
vt 0.304877 0.822120
vt 0.446889 0.773983
vt 0.305881 0.807270
vt 0.414479 0.737720
vt 0.306855 0.788285
vt 0.451247 0.753007
vt 0.341117 0.751262
vt 0.451723 0.743935
vt 0.307777 0.780203
vt 0.440114 0.710430
vt 0.319693 0.744034
vt 0.451876 0.741026
vt 0.441294 0.708708
vt 0.319819 0.743575
vt 0.452016 0.738342
vt 0.442421 0.707523
vt 0.319844 0.743267
vt 0.453190 0.714881
vt 0.320316 0.737659
vt 0.453280 0.707557
vt 0.321374 0.725356
vt 0.339097 0.749279
vt 0.454096 0.695061
vt 0.123204 0.225911
vt 0.118825 0.234124
vt 0.121806 0.217465
vt 0.125953 0.221483
vt 0.087744 0.259160
vt 0.134198 0.207145
vt 0.134412 0.206821
vt 0.111248 0.252569
vt 0.107752 0.185062
vt 0.143027 0.138504
vt 0.108641 0.258730
vt 0.054864 0.223448
vt 0.139589 0.199682
vt 0.093056 0.268871
vt 0.116771 0.105458
vt 0.081129 0.154320
vt 0.037752 0.288661
vt 0.062546 0.281770
vt 0.163307 0.163794
vt 0.165145 0.057748
vt 0.033155 0.192016
vt 0.024888 0.293843
vt 0.013813 0.272112
vt 0.164091 0.162615
vt 0.131271 0.046657
vt 0.190595 0.090829
vt 0.095415 0.077340
vt 0.090615 0.085543
vt 0.044088 0.153182
vt 0.006953 0.298124
vt 0.011860 0.298392
vt 0.175205 0.145568
vt 0.105931 0.062552
vt 0.142845 0.039388
vt 0.204201 0.012664
vt 0.180840 0.138684
vt 0.104425 0.063343
vt 0.074143 0.111822
vt 0.041770 0.156131
vt 0.045231 0.151742
vt 0.013471 0.215420
vt 0.004179 0.261813
vt 0.006293 0.298088
vt 0.148569 0.034733
vt 0.195994 0.000191
vt 0.174792 0.014043
vt 0.218941 0.064803
vt 0.202986 0.103788
vt 0.192414 0.124590
vt 0.072266 0.114828
vt 0.037347 0.161758
vt 0.063886 0.128247
vt 0.025220 0.183872
vt 0.014615 0.209548
vt 0.000023 0.287584
vt 0.000220 0.278444
vt 0.173654 0.014881
vt 0.196161 0.000065
vt 0.220673 0.061126
vt 0.213084 0.076817
vt 0.209362 0.088484
vt 0.070231 0.118086
vt 0.026529 0.181463
vt 0.000000 0.289140
vt 0.203793 0.005117
vt 0.228410 0.041776
vt 0.206296 0.006248
vt 0.229302 0.040241
vt 0.209459 0.007572
vt 0.234295 0.032202
vt 0.223526 0.014536
vt 0.223682 0.014566
vt 0.231662 0.016089
vt 0.241327 0.017934
vt 0.723246 0.617979
vt 0.717962 0.618347
vt 0.720093 0.615433
vt 0.758749 0.655106
vt 0.702893 0.601531
vt 0.739658 0.631330
vt 0.680021 0.657349
vt 0.697446 0.596780
vt 0.758958 0.654782
vt 0.718355 0.692267
vt 0.642487 0.621247
vt 0.695985 0.595787
vt 0.756572 0.649709
vt 0.759090 0.655061
vt 0.765678 0.688195
vt 0.759198 0.655476
vt 0.662053 0.677582
vt 0.634466 0.631480
vt 0.751269 0.638580
vt 0.768873 0.695506
vt 0.671662 0.692303
vt 0.657502 0.672023
vt 0.648154 0.660640
vt 0.639616 0.643840
vt 0.631460 0.622057
vt 0.679108 0.584315
vt 0.771707 0.712680
vt 0.690817 0.721287
vt 0.671029 0.691350
vt 0.626729 0.612354
vt 0.625331 0.609384
vt 0.678544 0.583930
vt 0.758175 0.727907
vt 0.694998 0.727053
vt 0.675810 0.582063
vt 0.695171 0.727314
vt 0.773738 0.726114
vt 0.619082 0.593756
vt 0.701830 0.738894
vt 0.774601 0.741064
vt 0.652513 0.566033
vt 0.704050 0.742470
vt 0.768957 0.752996
vt 0.636225 0.557195
vt 0.729832 0.763311
vt 0.774777 0.742709
vt 0.763795 0.759862
vt 0.618361 0.592516
vt 0.707587 0.749103
vt 0.713706 0.764000
vt 0.776218 0.745434
vt 0.614330 0.586024
vt 0.759273 0.765653
vt 0.715811 0.768976
vt 0.724238 0.769165
vt 0.635314 0.556712
vt 0.755695 0.766811
vt 0.735703 0.768884
vt 0.634526 0.556189
vt 0.633917 0.556617
vt 0.608650 0.574501
vn -0.486442 -0.613981 -0.621612
vn -0.488678 -0.633049 -0.600369
vn -0.495025 -0.586053 -0.641477
vn -0.470128 -0.625071 -0.623109
vn -0.481095 -0.618997 -0.620798
vn -0.478089 -0.689882 -0.543593
vn -0.480613 -0.588297 -0.650322
vn -0.508198 -0.596055 -0.621654
vn -0.437676 -0.672092 -0.597271
vn -0.472350 -0.616609 -0.629824
vn -0.406378 -0.691938 -0.596724
vn -0.489078 -0.603739 -0.629525
vn 0.004271 -0.323880 0.946088
vn -0.327365 -0.920491 0.213376
vn -0.018396 -0.352378 0.935677
vn -0.300225 -0.904645 0.302461
vn -0.491455 -0.813304 0.311462
vn -0.824166 -0.554649 -0.114519
vn -0.734053 -0.592999 -0.330936
vn -0.669807 -0.535104 -0.514803
vn -0.945814 -0.295755 0.134031
vn -0.587887 -0.608623 -0.532885
vn -0.613597 -0.642273 -0.459330
vn -0.608732 -0.573431 -0.548290
vn -0.962338 -0.152120 0.225313
vn -0.761687 -0.226426 -0.607095
vn -0.568045 -0.351955 -0.743944
vn -0.796237 0.119934 -0.592978
vn -0.439492 0.001226 -0.898246
vn -0.198713 0.715437 -0.669823
vn -0.425741 0.060892 -0.902794
vn 0.091449 0.673063 -0.733910
vn -0.111761 0.413052 -0.903824
vn -0.497550 -0.429615 -0.753575
vn 0.291434 0.567240 -0.770263
vn 0.174089 0.695930 -0.696688
vn 0.116784 0.717117 -0.687099
vn -0.051474 0.191669 -0.980109
vn -0.054582 0.124440 -0.990725
vn -0.390556 -0.646656 -0.655212
vn -0.369155 -0.527225 -0.765348
vn -0.031348 0.033696 -0.998940
vn 0.259133 0.485099 -0.835182
vn -0.399553 -0.639360 -0.656945
vn -0.410184 -0.523436 -0.746836
vn 0.104920 -0.490321 -0.865203
vn -0.353810 -0.576982 -0.736145
vn 0.323087 0.017436 -0.946209
vn 0.812260 0.467616 -0.348668
vn -0.389804 -0.691621 -0.608041
vn 0.176789 -0.178600 -0.967909
vn -0.319224 -0.716201 -0.620607
vn 0.570133 -0.766138 -0.296616
vn 0.429697 -0.796460 -0.425455
vn 0.322148 -0.845038 -0.426768
vn 0.389816 -0.765803 -0.511458
vn -0.519803 -0.854032 0.020822
vn -0.336893 -0.787995 0.515333
vn 0.180517 -0.761535 -0.622477
vn 0.761864 -0.508041 -0.401818
vn 0.614466 -0.589981 -0.523788
vn 0.333961 -0.720072 0.608248
vn -0.449893 -0.655644 -0.606405
vn 0.067588 -0.463974 0.883267
vn -0.186514 -0.716352 0.672348
vn -0.398457 -0.917185 -0.001756
vn -0.026978 -0.638424 0.769212
vn -0.410567 -0.904761 0.113326
vn -0.634214 -0.762244 -0.129447
vn -0.501148 -0.858797 0.106394
vn -0.282685 -0.589941 0.756346
vn -0.490736 -0.533879 -0.688587
vn -0.552763 -0.644192 -0.528649
vn -0.344743 -0.700235 0.625159
vn -0.443762 -0.798854 0.406089
vn -0.052839 -0.318815 0.946343
vn 0.763846 0.643687 0.046967
vn 0.812411 0.577323 0.081771
vn 0.786352 0.616007 0.046750
vn 0.715530 0.443385 0.539839
vn 0.824643 0.561725 0.066549
vn 0.765672 0.641454 0.047785
vn 0.815857 0.576445 0.045704
vn 0.492660 0.007154 0.870193
vn 0.133731 -0.191725 0.972295
vn 0.430697 0.761052 0.485077
vn -0.101761 0.808228 0.580011
vn 0.460089 0.696884 0.550155
vn 0.832709 0.553705 0.002437
vn 0.770608 0.611444 0.179724
vn 0.419861 0.803474 0.422074
vn 0.828779 0.545726 0.123724
vn 0.138473 0.702495 0.698088
vn 0.145090 0.127670 0.981147
vn 0.159149 0.544235 0.823699
vn 0.319214 0.529691 0.785831
vn 0.353169 0.626258 0.695034
vn 0.184076 -0.187601 0.964843
vn 0.331927 0.571467 0.750500
vn 0.352086 0.619500 0.701609
vn 0.312975 0.000402 0.949761
vn 0.094772 0.270650 0.958001
vn 0.121908 -0.216880 0.968556
vn 0.826654 0.421527 0.372771
vn 0.825159 0.564496 -0.021353
vn 0.914073 0.402358 -0.050784
vn 0.823465 0.567285 0.009637
vn 0.849157 0.527704 0.021481
vn 0.671934 0.740595 0.004842
vn 0.763415 0.626434 0.157408
vn 0.685123 0.728123 0.021045
vn 0.651659 0.758069 0.025918
vn 0.052604 0.904379 0.423475
vn 0.290575 0.802614 -0.520938
vn 0.654863 0.747464 0.111588
vn -0.068103 0.943267 0.324975
vn -0.551948 0.273667 0.787693
vn -0.847088 0.119549 0.517832
vn -0.426176 0.393029 0.814802
vn -0.275263 0.165345 0.947043
vn 0.023956 -0.261160 0.964998
vn 0.128094 0.313060 0.941055
vn 0.282920 0.059288 0.957310
vn 0.085200 -0.222667 0.971165
vn 0.183333 -0.235142 0.954514
vn 0.243020 -0.191071 0.951017
vn 0.190069 -0.161629 0.968375
vn 0.240033 -0.067821 0.968393
vn 0.456881 0.046482 0.888313
vn 0.801983 0.259651 0.537963
vn 0.123897 -0.293314 0.947954
vn 0.823724 -0.553717 -0.121968
vn 0.909180 -0.293942 -0.294941
vn 0.960296 -0.147418 -0.236852
vn 0.913371 0.404434 -0.046757
vn 0.937561 0.346212 0.033422
vn 0.627446 0.648551 -0.430921
vn 0.403035 0.642610 -0.651625
vn 0.556807 0.660201 -0.504084
vn 0.426320 0.672597 -0.604867
vn 0.119138 0.938900 -0.322913
vn -0.036358 0.987979 -0.150250
vn -0.842740 0.120401 -0.524684
vn -0.789320 0.039622 0.612702
vn 0.068304 -0.265360 0.961727
vn -0.583866 -0.186038 0.790247
vn -0.362033 -0.166101 0.917247
vn 0.501511 0.647681 -0.573582
s 1
g rock_7 solidShatter1
usemtl initialShadingGroup
f 1/145/1 2/138/2 3/141/3
f 4/144/4 5/139/5 2/138/2
f 2/138/2 6/132/6 7/134/7
f 3/141/3 2/138/2 7/134/7
f 8/150/8 3/141/3 9/152/9
f 8/150/8 1/145/1 3/141/3
f 1/145/1 4/144/4 2/138/2
f 4/144/4 10/149/10 5/139/5
f 10/149/10 11/164/11 12/155/12
f 10/149/10 12/155/12 5/139/5
f 2/138/2 5/139/5 6/132/6
f 13/130/13 14/131/14 6/132/6 15/133/15
f 6/132/6 14/131/14 7/134/7
f 14/131/14 16/137/16 7/134/7
f 16/137/16 17/140/17 7/134/7
f 17/140/17 18/143/18 7/134/7
f 19/79/19 7/78/7 18/81/18
f 20/76/20 7/78/7 19/79/19 21/77/21
f 22/146/22 3/141/3 7/134/7 20/147/20
f 23/151/23 9/152/9 3/141/3 22/146/22
f 24/159/24 9/152/9 23/151/23 25/160/25
f 24/159/24 27/172/26 9/152/9
f 9/152/9 27/172/26 26/184/27
f 26/184/27 27/172/26 28/193/28
f 29/171/29 9/152/9 26/184/27 30/185/30
f 31/170/31 8/150/8 9/152/9 29/171/29
f 32/182/32 8/150/8 31/170/31 33/183/33
f 34/158/34 8/150/8 37/168/35
f 37/168/35 8/150/8 36/180/36
f 32/182/32 35/192/37 8/150/8
f 8/150/8 35/192/37 36/180/36
f 8/150/8 34/158/34 1/145/1
f 34/158/34 38/169/38 1/145/1
f 38/169/38 39/181/39 1/145/1
f 43/157/40 1/145/1 42/167/41
f 42/167/41 1/145/1 41/179/42
f 41/179/42 1/145/1 40/191/43
f 40/191/43 1/145/1 39/181/39
f 44/156/44 4/144/4 1/145/1 43/157/40
f 47/154/45 4/144/4 46/162/46
f 44/156/44 45/166/47 4/144/4
f 45/166/47 46/162/46 4/144/4
f 48/173/48 10/149/10 49/163/49
f 49/163/49 10/149/10 47/154/45
f 10/149/10 4/144/4 47/154/45
f 50/175/50 10/149/10 48/173/48 51/186/51
f 52/174/52 11/164/11 10/149/10 50/175/50
f 52/174/52 54/187/53 11/164/11
f 53/196/54 11/164/11 55/194/55
f 11/164/11 54/187/53 55/194/55
f 56/198/56 11/164/11 53/196/54
f 57/197/57 11/164/11 62/199/58
f 11/164/11 56/198/56 62/199/58
f 56/198/56 58/200/59 62/199/58
f 58/200/59 59/201/60 62/199/58
f 59/201/60 60/202/61 62/199/58
f 60/202/61 61/203/62 62/199/58
f 12/155/12 11/164/11 63/176/63
f 63/176/63 11/164/11 65/188/64
f 57/197/57 64/195/65 11/164/11
f 11/164/11 64/195/65 65/188/64
f 63/176/63 66/189/66 12/155/12
f 66/189/66 67/190/67 12/155/12
f 67/190/67 68/177/68 12/155/12
f 69/165/69 12/155/12 68/177/68 70/178/70
f 12/155/12 69/165/69 5/139/5
f 69/165/69 72/161/71 5/139/5
f 71/153/72 5/139/5 72/161/71
f 6/132/6 5/139/5 74/136/73
f 74/136/73 5/139/5 73/142/74
f 71/153/72 75/148/75 5/139/5
f 73/142/74 5/139/5 75/148/75
f 76/135/76 15/133/15 6/132/6 74/136/73
f 79/31/77 80/32/78 78/39/79
f 78/39/79 80/32/78 77/45/80
f 77/45/80 80/32/78 81/51/81
f 79/31/77 82/24/82 83/18/83 80/32/78
f 82/24/82 84/21/84 83/18/83
f 77/204/80 85/205/85 78/206/79
f 86/92/86 87/88/87 88/95/88
f 89/53/89 81/51/81 80/32/78 90/54/90
f 86/92/86 91/84/91 87/88/87
f 92/29/92 80/32/78 83/18/83
f 87/88/87 93/99/93 88/95/88
f 94/105/94 95/107/95 88/95/88
f 96/125/96 89/127/89 90/128/90 97/113/97
f 85/205/85 77/204/80 99/207/98
f 77/204/80 81/209/81 99/207/98
f 99/207/98 81/209/81 98/212/99
f 98/212/99 81/209/81 96/216/96
f 81/209/81 89/222/89 96/216/96
f 100/217/100 99/207/98 98/212/99
f 101/219/101 99/207/98 100/217/100
f 95/107/95 102/109/102 88/95/88
f 85/205/85 99/207/98 103/210/103
f 84/21/84 104/14/104 83/18/83
f 84/215/84 82/211/82 85/205/85
f 82/211/82 79/208/77 85/205/85
f 78/206/79 85/205/85 79/208/77
f 105/3/105 83/18/83 104/14/104
f 105/3/105 106/13/106 107/17/107
f 107/17/107 83/18/83 105/3/105
f 108/23/108 92/29/92 83/18/83
f 109/47/109 110/43/110 92/29/92 111/41/111
f 112/52/112 91/55/91 80/32/78
f 91/55/91 86/57/86 80/32/78
f 86/57/86 88/56/88 80/32/78
f 80/32/78 88/56/88 90/54/90
f 97/58/97 90/54/90 88/56/88
f 91/84/91 113/86/113 87/88/87
f 110/43/110 109/47/109 114/46/114 115/49/115
f 92/29/92 110/43/110 80/32/78
f 112/52/112 80/32/78 115/49/115
f 115/49/115 80/32/78 110/43/110
f 113/86/113 116/90/116 87/88/87
f 117/67/117 116/64/116 118/61/118
f 87/75/87 116/64/116 120/73/119
f 120/73/119 116/64/116 119/70/120
f 117/67/117 119/70/120 116/64/116
f 120/246/119 93/249/93 87/254/87
f 93/99/93 94/105/94 88/95/88
f 94/243/94 121/236/121 95/240/95
f 102/109/102 122/111/122 88/95/88
f 96/125/96 97/113/97 98/123/99
f 98/123/99 97/113/97 100/120/100
f 88/95/88 122/111/122 97/113/97
f 122/111/122 123/115/123 97/113/97
f 100/120/100 97/113/97 101/117/101
f 123/115/123 101/117/101 97/113/97
f 123/218/123 124/213/124 99/207/98 101/219/101
f 95/240/95 121/236/121 102/230/102
f 99/207/98 124/213/124 103/210/103
f 85/205/85 103/210/103 125/214/125
f 85/205/85 125/214/125 84/215/84
f 126/235/126 104/229/104 125/214/125
f 84/215/84 125/214/125 104/229/104
f 104/14/104 126/9/126 105/3/105
f 126/9/126 127/6/127 105/3/105
f 127/6/127 128/4/128 105/3/105
f 129/1/129 130/2/130 105/3/105 128/4/128
f 131/7/131 132/10/132 133/5/133
f 131/7/131 133/5/133 130/2/130
f 130/2/130 133/5/133 105/3/105
f 133/5/133 134/8/134 105/3/105
f 134/8/134 106/13/106 105/3/105
f 107/17/107 106/13/106 135/20/135
f 136/22/136 107/17/107 135/20/135
f 108/23/108 83/18/83 107/17/107
f 137/37/137 108/23/108 138/42/138
f 139/36/139 92/29/92 108/23/108 137/37/137
f 140/40/140 111/41/111 92/29/92 139/36/139
f 111/41/111 140/40/140 114/46/114 109/47/109
f 91/84/91 112/85/112 113/86/113
f 113/86/113 112/85/112 141/87/141
f 114/93/114 141/87/141 115/89/115
f 112/85/112 115/89/115 141/87/141
f 116/90/116 113/86/113 141/87/141 142/91/142
f 118/61/118 116/64/116 142/65/142 143/59/143
f 117/67/117 118/61/118 144/69/144
f 119/250/120 117/256/117 146/248/145
f 117/256/117 144/260/144 146/248/145
f 144/260/144 145/261/146 146/248/145
f 147/258/147 146/248/145 145/261/146
f 146/248/145 121/236/121 119/250/120
f 119/250/120 121/236/121 120/246/119
f 121/236/121 94/243/94 120/246/119
f 94/243/94 93/249/93 120/246/119
f 121/236/121 124/213/124 102/230/102
f 102/230/102 124/213/124 122/223/122
f 124/213/124 123/218/123 122/223/122
f 73/231/74 75/224/75 124/213/124
f 103/210/103 124/213/124 72/220/71
f 124/213/124 75/224/75 72/220/71
f 75/224/75 71/232/72 72/220/71
f 72/220/71 69/225/69 70/226/70 103/210/103
f 125/214/125 103/210/103 67/221/67
f 67/221/67 103/210/103 68/227/68
f 70/226/70 68/227/68 103/210/103
f 67/221/67 66/228/66 125/214/125
f 66/228/66 63/233/63 65/234/64 125/214/125
f 64/241/65 127/238/127 65/234/64
f 126/235/126 125/214/125 127/238/127
f 65/234/64 127/238/127 125/214/125
f 127/238/127 64/241/65 128/244/128
f 128/244/128 64/241/65 129/247/129
f 64/241/65 57/251/57 129/247/129
f 57/251/57 62/255/58 129/247/129
f 129/247/129 62/255/58 130/259/130
f 130/259/130 62/255/58 131/262/131
f 131/262/131 62/255/58 132/263/132
f 62/255/58 61/264/62 132/263/132
f 61/15/62 60/11/61 133/5/133 132/10/132
f 60/11/61 59/12/60 134/8/134 133/5/133
f 59/12/60 58/16/59 106/13/106 134/8/134
f 58/16/59 56/19/56 106/13/106
f 106/13/106 56/19/56 135/20/135
f 56/19/56 53/25/54 135/20/135
f 53/25/54 55/27/55 135/20/135
f 55/27/55 54/28/53 136/22/136 135/20/135
f 107/17/107 136/22/136 51/26/51
f 51/26/51 136/22/136 50/33/50
f 54/28/53 52/35/52 136/22/136
f 52/35/52 50/33/50 136/22/136
f 51/26/51 48/34/48 49/30/49 107/17/107
f 107/17/107 49/30/49 108/23/108
f 49/30/49 47/38/45 108/23/108
f 47/38/45 46/44/46 108/23/108
f 46/44/46 45/50/47 108/23/108
f 138/42/138 108/23/108 148/48/148
f 45/50/47 148/48/148 108/23/108
f 42/121/41 148/122/148 43/124/40
f 45/129/47 44/126/44 148/122/148
f 43/124/40 148/122/148 44/126/44
f 42/121/41 41/118/42 138/119/138 148/122/148
f 41/118/42 40/114/43 137/116/137 138/119/138
f 137/116/137 40/114/43 139/110/139
f 40/114/43 39/112/39 139/110/139
f 39/112/39 38/108/38 139/110/139
f 37/102/35 140/103/140 34/106/34
f 34/106/34 140/103/140 38/108/38
f 140/103/140 139/110/139 38/108/38
f 37/102/35 36/96/36 114/93/114 140/103/140
f 36/96/36 35/97/37 141/87/141 114/93/114
f 35/97/37 32/100/32 33/101/33 141/87/141
f 142/91/142 141/87/141 30/94/30
f 30/94/30 141/87/141 29/98/29
f 33/101/33 31/104/31 141/87/141
f 31/104/31 29/98/29 141/87/141
f 143/59/143 142/65/142 28/62/28
f 30/71/30 26/68/27 142/65/142
f 26/68/27 28/62/28 142/65/142
f 28/62/28 27/60/26 143/59/143
f 143/59/143 27/60/26 118/61/118
f 25/66/25 118/61/118 24/63/24
f 27/60/26 24/63/24 118/61/118
f 118/61/118 25/66/25 144/69/144
f 25/66/25 23/72/23 144/69/144
f 23/72/23 22/74/22 144/69/144
f 22/74/22 20/76/20 144/69/144
f 20/76/20 21/77/21 144/69/144
f 17/83/17 147/82/147 18/81/18
f 147/82/147 145/80/146 18/81/18
f 18/81/18 145/80/146 19/79/19
f 144/69/144 21/77/21 145/80/146
f 21/77/21 19/79/19 145/80/146
f 17/257/17 16/253/16 146/248/145 147/258/147
f 14/252/14 13/245/13 146/248/145 16/253/16
f 76/239/76 121/236/121 15/242/15
f 15/242/15 121/236/121 13/245/13
f 121/236/121 146/248/145 13/245/13
f 73/231/74 124/213/124 74/237/73
f 74/237/73 124/213/124 76/239/76
f 76/239/76 124/213/124 121/236/121
