# This file uses centimeters as units for non-parametric coordinates.

mtllib rock 8.mtl
g default
v 0.261024 -2.106100 -0.450076
v -1.447884 -3.035368 -0.833363
v 0.713596 -1.676453 -2.363572
v 2.356906 -0.630798 -1.824576
v 1.968380 -1.097378 0.381364
v -0.195847 -2.556057 1.764381
v -1.741650 -3.336857 -0.189396
v -1.662419 -3.447297 0.597224
v -1.769608 -3.297889 -0.655415
v -1.772492 -3.293865 -0.682510
v -1.607594 -3.127949 -0.914752
v -1.388108 -2.974010 -1.191760
v -0.126442 -2.130243 -2.757129
v -0.797638 -2.578856 -1.927873
v 0.866066 -1.398878 -3.089322
v 0.095481 -1.909399 -3.065450
v 1.947625 -0.600082 -3.114266
v 1.947806 -0.599951 -3.114270
v 2.638061 -0.099161 -3.132241
v 2.722294 -0.058786 -3.052125
v 3.526403 0.267809 -2.340545
v 3.511737 0.178839 -1.420157
v 3.834012 0.463999 -2.003840
v 2.999669 -0.271688 -0.495662
v 2.937552 -0.323238 -0.420942
v 2.795697 -0.445494 -0.195602
v 2.350241 -0.830437 0.512877
v 1.945570 -1.331652 1.304809
v 1.784951 -1.517447 1.563078
v 2.043169 -1.205790 1.092575
v 1.213502 -2.023293 2.361652
v 1.163509 -2.046089 2.354464
v 0.880653 -2.175524 2.313648
v 0.493289 -2.353193 2.259196
v -0.312172 -2.779760 2.346786
v -1.154706 -3.482038 2.394744
v -0.821896 -3.205564 2.380036
v -1.643982 -3.472991 1.163906
v -1.303074 -3.597436 2.402395
v -1.437165 -3.691490 2.376286
v -1.475842 -3.707357 2.332457
v -1.491341 -3.685756 2.224748
v -1.575097 -3.569010 1.642654
v -1.604290 -3.528320 1.439775
v -1.654503 -3.458326 0.840457
v -3.663136 3.306952 0.903254
v -3.509587 2.867128 1.250114
v -2.775918 3.241011 0.268628
v -3.654110 3.472624 0.719472
v -3.334614 2.432825 1.630112
v -1.133008 1.855127 0.678677
v -3.101979 1.595778 2.194568
v -2.338665 0.745073 2.422064
v -2.840580 0.919836 2.682349
v -3.097043 -1.447620 1.916770
v -2.666489 0.565722 2.822917
v -2.918530 1.049253 2.613780
v 0.162941 0.069593 0.973446
v -0.071835 2.588037 -0.926261
v 0.949678 2.446493 -1.691777
v 1.139663 2.297174 -1.729857
v 0.234420 1.750662 -2.701417
v -2.989686 3.699919 -0.012856
v -3.298260 3.706572 0.221044
v -2.428219 3.566259 -0.319761
v -0.861962 3.252569 -1.080422
v -3.652897 3.494909 0.697081
v -3.834012 0.170366 0.229177
v -3.350796 3.707357 0.260600
v -2.144757 1.792093 -2.112529
v -3.834012 0.170366 1.344706
v -2.324143 0.039564 3.132241
v -0.931023 -0.404894 2.659896
v -0.571671 -0.830460 2.727525
v 1.734768 -1.121325 1.291707
v 1.200786 0.968416 -0.690946
v 1.239208 2.218939 -1.749808
v 1.287844 2.180323 -1.759913
v -0.663708 3.213934 -1.174983
v 0.203125 2.855921 -1.391782
v 0.284431 2.811716 -1.424779
v -1.340035 2.564642 -2.112529
v -2.307782 -0.689913 3.010869
v -2.116143 -0.048441 3.083800
v -2.164826 -1.188253 2.906337
v -1.493435 -0.304232 2.930953
v -1.066662 -0.544868 2.825665
v -1.216149 -0.452074 2.857347
v -0.582615 -0.823242 2.729117
v -0.578690 -1.240641 2.614858
v -0.330639 -1.005257 2.688111
v 2.850408 -0.234880 -0.418211
v 2.081049 1.550539 -1.924733
v 2.424076 1.336325 -1.942725
v 2.534080 1.267626 -1.948495
v -3.097043 -1.447620 -0.342888
v -1.928109 -2.025885 2.727317
v -1.868336 -2.231913 2.683005
v 0.880939 -1.805975 2.430290
v 0.920742 -1.832430 2.421935
v 3.522754 0.648146 -1.998189
v 3.799684 0.486097 -2.001599
v 2.635570 1.204248 -1.953818
v -1.390358 0.212442 -2.695945
v -1.515934 -3.343631 2.471790
vt 0.621099 0.891180
vt 0.608553 0.802039
vt 0.621699 0.890582
vt 0.609395 0.896876
vt 0.545764 0.845522
vt 0.626627 0.886140
vt 0.608335 0.896855
vt 0.593214 0.758655
vt 0.638463 0.802039
vt 0.602063 0.896677
vt 0.530121 0.803167
vt 0.653802 0.758655
vt 0.635927 0.874347
vt 0.545764 0.866236
vt 0.550716 0.728323
vt 0.662060 0.698644
vt 0.664948 0.698065
vt 0.672491 0.825604
vt 0.646116 0.862702
vt 0.528481 0.740352
vt 0.570453 0.717728
vt 0.666123 0.698490
vt 0.646452 0.701774
vt 0.674330 0.822134
vt 0.661251 0.840258
vt 0.520214 0.746274
vt 0.577881 0.713601
vt 0.668684 0.707817
vt 0.641013 0.702865
vt 0.678099 0.812639
vt 0.584108 0.709152
vt 0.674347 0.737626
vt 0.624943 0.704742
vt 0.633616 0.704349
vt 0.686393 0.798531
vt 0.584834 0.709044
vt 0.675536 0.743150
vt 0.618421 0.705038
vt 0.683138 0.778972
vt 0.597329 0.707999
vt 0.680336 0.765610
vt 0.537178 0.940663
vt 0.527320 0.984617
vt 0.487963 0.929023
vt 0.543883 0.992172
vt 0.564115 0.990134
vt 0.518102 0.983079
vt 0.501826 0.886757
vt 0.531897 0.992891
vt 0.570371 0.989931
vt 0.525227 0.988724
vt 0.499169 0.967892
vt 0.468655 0.897283
vt 0.558563 0.896750
vt 0.531200 0.992966
vt 0.594134 0.952414
vt 0.477840 0.950629
vt 0.469296 0.925101
vt 0.468655 0.897279
vt 0.543723 0.875471
vt 0.578690 0.989660
vt 0.469910 0.944921
vt 0.468192 0.879525
vt 0.588957 0.901467
vt 0.537928 0.871822
vt 0.561945 0.886928
vt 0.585785 0.988639
vt 0.470253 0.877359
vt 0.582314 0.897336
vt 0.609311 0.917451
vt 0.536006 0.870225
vt 0.576855 0.894826
vt 0.591004 0.987889
vt 0.488555 0.856677
vt 0.609496 0.916165
vt 0.608262 0.924726
vt 0.512227 0.857054
vt 0.605975 0.985734
vt 0.497215 0.848765
vt 0.606861 0.934689
vt 0.608745 0.985336
vt 0.609114 0.955406
vt 0.609873 0.984341
vt 0.610348 0.977076
vt 0.609969 0.968516
vt 0.610544 0.980892
vt 0.416585 0.291839
vt 0.419109 0.297803
vt 0.398192 0.297334
vt 0.383903 0.293235
vt 0.439338 0.298220
vt 0.409251 0.273984
vt 0.434195 0.307619
vt 0.405012 0.266034
vt 0.406365 0.257858
vt 0.444349 0.312611
vt 0.382401 0.247756
vt 0.402351 0.261747
vt 0.419970 0.226491
vt 0.448060 0.314846
vt 0.463730 0.320106
vt 0.359886 0.286448
vt 0.394370 0.247868
vt 0.394163 0.247554
vt 0.385823 0.181422
vt 0.471166 0.263650
vt 0.487731 0.326776
vt 0.353979 0.284734
vt 0.389151 0.240643
vt 0.411240 0.149433
vt 0.445742 0.196733
vt 0.510904 0.310757
vt 0.500184 0.331793
vt 0.326061 0.254729
vt 0.350501 0.217019
vt 0.405201 0.151002
vt 0.492181 0.233223
vt 0.512795 0.336196
vt 0.517545 0.335937
vt 0.318134 0.264272
vt 0.338270 0.240114
vt 0.355596 0.205912
vt 0.366192 0.205904
vt 0.394163 0.163774
vt 0.408706 0.146934
vt 0.436559 0.130155
vt 0.431912 0.122214
vt 0.481598 0.195631
vt 0.520230 0.300787
vt 0.511235 0.255878
vt 0.518184 0.335903
vt 0.322102 0.274629
vt 0.365433 0.204763
vt 0.383401 0.172579
vt 0.410184 0.145153
vt 0.452504 0.155593
vt 0.423102 0.130471
vt 0.480491 0.194237
vt 0.483841 0.198485
vt 0.524062 0.316886
vt 0.524253 0.325734
vt 0.510128 0.250193
vt 0.499862 0.225339
vt 0.314825 0.268526
vt 0.359960 0.196368
vt 0.379792 0.175378
vt 0.454321 0.158503
vt 0.431279 0.121230
vt 0.462433 0.171493
vt 0.488123 0.203933
vt 0.498595 0.223007
vt 0.524275 0.327240
vt 0.312128 0.272371
vt 0.359307 0.197802
vt 0.374465 0.179983
vt 0.456291 0.161657
vt 0.663238 0.954186
vt 0.643240 0.933355
vt 0.664311 0.892598
vt 0.704130 0.934657
vt 0.626432 0.915847
vt 0.712196 0.830377
vt 0.725159 0.848245
vt 0.625432 0.920979
vt 0.636844 0.891303
vt 0.725163 0.848250
vt 0.678456 0.830441
vt 0.617312 0.961524
vt 0.635700 0.893408
vt 0.646299 0.874083
vt 0.745841 0.876247
vt 0.676815 0.833069
vt 0.711151 0.828196
vt 0.613852 0.976058
vt 0.650164 0.869165
vt 0.759056 0.896195
vt 0.675037 0.835916
vt 0.702696 0.807381
vt 0.652189 0.866588
vt 0.653189 0.865329
vt 0.669491 0.844796
vt 0.692851 0.807476
vt 0.697046 0.800307
vt 0.697618 0.799418
vn 0.524115 -0.848182 -0.076748
vn 0.499109 -0.855869 -0.135566
vn 0.538315 -0.836524 -0.102203
vn 0.559598 -0.821318 -0.110849
vn 0.530789 -0.841613 -0.099755
vn 0.528068 -0.842690 -0.104962
vn 0.042400 -0.988907 -0.142359
vn 0.012434 -0.992865 -0.118595
vn -0.634010 -0.772731 -0.030315
vn -0.581912 -0.465672 -0.666729
vn -0.590365 -0.401564 -0.700154
vn -0.413744 -0.621225 -0.665504
vn -0.523905 -0.496655 -0.691995
vn -0.321992 -0.677877 -0.660911
vn 0.083732 -0.155011 -0.984358
vn -0.025419 -0.383571 -0.923161
vn 0.360619 -0.522148 -0.772862
vn -0.056209 0.041677 -0.997549
vn 0.701804 -0.293831 -0.648949
vn 0.089947 0.187344 -0.978168
vn 0.745713 -0.464646 -0.477512
vn 0.643432 -0.765295 -0.017855
vn 0.602152 -0.795568 -0.066963
vn 0.702917 -0.708916 0.057844
vn 0.633732 -0.773367 -0.016935
vn 0.691794 -0.721345 0.032906
vn 0.826099 -0.532110 0.185524
vn 0.533167 -0.833017 -0.147698
vn 0.871154 -0.457869 0.177333
vn 0.910309 -0.123060 0.395213
vn 0.430153 -0.880569 -0.198915
vn 0.557801 0.443059 0.701824
vn 0.132484 -0.543484 0.828899
vn 0.211596 -0.359129 0.908985
vn 0.322165 -0.345137 0.881527
vn 0.403152 -0.454916 0.794053
vn 0.384584 -0.410507 0.826788
vn -0.534482 -0.843915 -0.046218
vn -0.354253 -0.925409 -0.134625
vn -0.372550 -0.918767 -0.130668
vn -0.754289 -0.656137 -0.023061
vn -0.788827 -0.614417 0.015625
vn -0.329177 -0.696788 0.637282
vn 0.579461 -0.795076 0.179108
vn 0.040339 -0.998100 -0.046568
vn -0.625201 0.548672 0.555052
vn 0.132903 0.678857 0.722143
vn 0.437676 0.672092 0.597271
vn -0.066490 0.741840 0.667272
vn 0.200897 0.639257 0.742288
vn 0.495025 0.586053 0.641477
vn 0.130775 0.580173 0.803926
vn 0.480613 0.588297 0.650321
vn -0.210667 0.339561 0.916688
vn -0.867191 -0.468522 0.168722
vn -0.609667 0.051050 0.791012
vn -0.615746 0.164609 0.770559
vn 0.488678 0.633049 0.600370
vn 0.508198 0.596055 0.621654
vn 0.341625 0.831104 -0.438816
vn 0.518097 0.759512 -0.393341
vn -0.048514 0.284274 -0.957515
vn -0.239435 0.893167 -0.380689
vn 0.107832 0.986962 0.119494
vn 0.336327 0.885587 0.320343
vn 0.310632 0.913114 0.264066
vn -0.845004 0.131871 -0.518246
vn -0.925578 -0.109683 -0.362318
vn -0.841913 0.122943 -0.525421
vn -0.652810 0.147965 -0.742930
vn -0.954898 -0.224305 0.194568
vn -0.595996 -0.013857 0.802868
vn 0.478089 0.689882 0.543594
vn 0.463585 0.471035 0.750476
vn 0.430270 0.673253 0.601330
vn 0.486442 0.613981 0.621612
vn 0.607277 0.642833 0.466884
vn 0.560071 0.779107 -0.281624
vn 0.286072 0.921384 -0.263088
vn 0.445644 0.670561 0.593085
vn 0.269098 0.841460 -0.468542
vn -0.219027 0.483763 -0.847349
vn -0.577490 -0.231939 0.782757
vn 0.332084 0.278164 0.901302
vn -0.397121 -0.297707 0.868139
vn 0.355935 0.345458 0.868314
vn 0.184852 -0.029482 0.982324
vn 0.209881 -0.086689 0.973876
vn 0.205117 0.030903 0.978249
vn 0.143328 -0.169530 0.975047
vn 0.386467 0.309575 0.868796
vn 0.410620 0.692737 0.592880
vn 0.535141 0.794115 -0.288108
vn 0.516798 0.840995 -0.160150
vn 0.531005 0.843719 0.078561
vn -0.836025 -0.366263 -0.408551
vn -0.291019 -0.278612 0.915250
vn -0.259186 -0.260553 0.930019
vn 0.435517 0.399220 0.806814
vn 0.452208 0.447719 0.771399
vn 0.444414 0.742171 0.501676
vn 0.430021 0.722230 0.541726
vn 0.483321 0.799554 -0.356531
vn -0.464649 -0.040279 -0.884578
vn -0.461597 -0.305287 0.832904
s 1
g rock_8 solidShatter1
usemtl initialShadingGroup
f 1/42/1 2/43/2 3/44/3
f 1/42/1 3/44/3 4/48/4
f 5/54/5 1/42/1 4/48/4
f 6/56/6 1/42/1 5/54/5
f 7/45/7 2/43/2 1/42/1 8/46/8
f 9/49/9 2/43/2 7/45/7
f 10/55/10 11/51/11 2/43/2 9/49/9
f 12/47/12 2/43/2 11/51/11
f 2/43/2 12/47/12 3/44/3
f 12/47/12 14/52/13 3/44/3
f 13/57/14 3/44/3 14/52/13
f 15/58/15 3/44/3 13/57/14 16/62/16
f 17/53/17 3/44/3 15/58/15
f 3/44/3 17/53/17 4/48/4
f 17/53/17 18/59/18 4/48/4
f 20/68/19 4/48/4 19/63/20
f 18/59/18 19/63/20 4/48/4
f 21/74/21 4/48/4 20/68/19
f 22/77/22 4/48/4 21/74/21 23/79/23
f 5/54/5 4/48/4 26/60/24
f 26/60/24 4/48/4 25/65/25
f 22/77/22 24/71/26 4/48/4
f 24/71/26 25/65/25 4/48/4
f 27/66/27 5/54/5 26/60/24
f 29/64/28 5/54/5 28/69/29
f 28/69/29 5/54/5 30/72/30
f 5/54/5 27/66/27 30/72/30
f 5/54/5 29/64/28 6/56/6
f 6/56/6 29/64/28 32/70/31
f 31/75/32 32/70/31 29/64/28
f 32/70/31 33/76/33 6/56/6
f 33/76/33 34/80/34 6/56/6
f 34/80/34 35/82/35 6/56/6
f 36/84/36 6/56/6 35/82/35 37/85/37
f 38/61/38 6/56/6 44/67/39
f 44/67/39 6/56/6 43/73/40
f 43/73/40 6/56/6 42/78/41
f 42/78/41 6/56/6 41/81/42
f 41/81/42 6/56/6 40/83/43
f 40/83/43 6/56/6 39/86/44
f 6/56/6 36/84/36 39/86/44
f 38/61/38 45/50/45 6/56/6
f 8/46/8 1/42/1 45/50/45
f 45/50/45 1/42/1 6/56/6
f 46/118/46 47/113/47 48/112/48 49/119/49
f 50/107/50 51/106/51 48/112/48 47/113/47
f 52/101/52 53/91/53 51/106/51 50/107/50
f 54/24/54 55/12/55 56/30/56
f 57/100/57 54/96/54 53/91/53 52/101/52
f 58/99/58 51/106/51 53/91/53
f 51/106/51 59/117/59 48/112/48
f 60/170/60 61/175/61 62/159/62
f 63/140/63 64/141/64 48/112/48 65/129/65
f 65/129/65 48/112/48 59/117/59 66/130/66
f 67/1/67 68/2/68 49/3/49
f 69/4/69 64/7/64 70/5/70
f 49/119/49 48/112/48 67/131/67
f 48/112/48 64/141/64 67/131/67
f 69/152/69 67/131/67 64/141/64
f 49/3/49 68/2/68 46/6/46
f 46/6/46 71/9/71 47/13/47
f 47/13/47 71/9/71 50/19/50
f 50/19/50 71/9/71 52/25/52
f 52/25/52 71/9/71 57/18/57
f 57/18/57 55/12/55 54/24/54
f 56/30/56 55/12/55 72/35/72
f 56/93/56 53/91/53 54/96/54
f 73/95/73 74/104/74 75/105/75
f 73/95/73 58/99/58 53/91/53
f 58/99/58 76/111/76 51/106/51
f 61/175/61 77/179/77 78/180/78 62/159/62
f 76/111/76 59/117/59 51/106/51
f 79/142/79 66/130/66 59/117/59 80/143/80
f 81/165/81 60/170/60 62/159/62
f 77/128/77 61/139/61 59/117/59
f 61/139/61 60/150/60 59/117/59
f 80/143/80 59/117/59 81/151/81
f 60/150/60 81/151/81 59/117/59
f 64/7/64 63/10/63 70/5/70
f 63/174/63 65/168/65 82/158/82
f 79/161/79 82/158/82 66/164/66
f 65/168/65 66/164/66 82/158/82
f 67/1/67 69/4/69 70/5/70 68/2/68
f 68/2/68 71/9/71 46/6/46
f 71/9/71 55/12/55 57/18/57
f 55/12/55 83/39/83 72/35/72
f 84/87/84 72/88/72 83/89/83 85/90/85
f 73/95/73 53/91/53 86/92/86
f 86/92/86 53/91/53 84/87/84
f 84/87/84 53/91/53 72/88/72
f 53/91/53 56/93/56 72/88/72
f 87/98/87 73/95/73 86/92/86 88/94/88
f 89/103/89 87/98/87 88/94/88 90/97/90
f 74/104/74 73/95/73 87/98/87 89/103/89
f 74/104/74 91/109/91 75/105/75
f 75/105/75 58/99/58 73/95/73
f 92/110/92 76/111/76 58/99/58
f 78/180/78 93/181/93 94/177/94 62/159/62
f 59/117/59 76/111/76 77/128/77
f 77/128/77 76/111/76 78/138/78
f 76/111/76 93/149/93 78/138/78
f 94/177/94 95/172/95 62/159/62
f 82/158/82 79/161/79 62/159/62
f 62/159/62 79/161/79 81/165/81
f 80/169/80 81/165/81 79/161/79
f 63/10/63 82/14/82 70/5/70
f 68/2/68 70/5/70 96/8/96
f 96/8/96 55/12/55 71/9/71 68/2/68
f 85/41/85 83/39/83 55/12/55 97/37/97
f 84/87/84 85/90/85 86/92/86
f 98/108/98 90/97/90 97/102/97
f 97/102/97 90/97/90 85/90/85
f 86/92/86 85/90/85 88/94/88
f 88/94/88 85/90/85 90/97/90
f 74/104/74 89/103/89 90/97/90 91/109/91
f 99/123/99 75/105/75 91/109/91
f 100/133/100 75/105/75 99/123/99
f 75/105/75 92/110/92 58/99/58
f 101/126/101 76/111/76 92/110/92 102/127/102
f 101/126/101 103/136/103 76/111/76
f 103/136/103 95/147/95 76/111/76
f 95/147/95 94/156/94 76/111/76
f 93/149/93 76/111/76 94/156/94
f 95/172/95 103/167/103 62/159/62
f 70/157/70 82/158/82 62/159/62 104/160/104
f 96/8/96 70/5/70 104/11/104
f 44/29/39 43/23/40 96/8/96
f 43/23/40 42/16/41 96/8/96
f 42/16/41 41/17/42 55/12/55 96/8/96
f 41/17/42 40/22/43 55/12/55
f 40/22/43 105/28/105 55/12/55
f 97/37/97 55/12/55 98/32/98
f 105/28/105 98/32/98 55/12/55
f 40/153/43 39/144/44 105/132/105
f 90/97/90 98/108/98 37/114/37
f 37/114/37 98/108/98 36/120/36
f 39/144/44 36/120/36 105/132/105
f 36/120/36 98/108/98 105/132/105
f 37/114/37 35/121/35 34/115/34 90/97/90
f 90/97/90 34/115/34 91/109/91
f 34/115/34 33/122/33 91/109/91
f 33/122/33 99/123/99 91/109/91
f 99/123/99 33/122/33 100/133/100
f 31/145/32 100/133/100 32/154/31
f 32/154/31 100/133/100 33/122/33
f 100/133/100 31/145/32 75/105/75
f 28/146/29 75/105/75 29/155/28
f 29/155/28 75/105/75 31/145/32
f 28/146/29 30/134/30 75/105/75
f 25/125/25 92/110/92 26/116/24
f 92/110/92 75/105/75 26/116/24
f 26/116/24 75/105/75 27/124/27
f 30/134/30 27/124/27 75/105/75
f 25/125/25 24/135/26 92/110/92
f 23/148/23 102/127/102 22/137/22
f 102/127/102 92/110/92 22/137/22
f 24/135/26 22/137/22 92/110/92
f 62/159/62 103/167/103 19/162/20
f 19/162/20 103/167/103 20/173/19
f 20/173/19 103/167/103 21/178/21
f 103/167/103 101/182/101 21/178/21
f 23/184/23 21/178/21 102/183/102
f 21/178/21 101/182/101 102/183/102
f 19/162/20 18/163/18 104/160/104 62/159/62
f 18/163/18 17/166/17 104/160/104
f 17/166/17 15/171/15 104/160/104
f 15/171/15 16/176/16 104/160/104
f 96/8/96 104/11/104 14/15/13
f 14/15/13 104/11/104 13/20/14
f 16/26/16 13/20/14 104/11/104
f 14/15/13 12/21/12 96/8/96
f 12/21/12 11/27/11 96/8/96
f 11/27/11 10/31/10 96/8/96
f 45/33/45 96/8/96 8/38/8
f 8/38/8 96/8/96 7/40/7
f 10/31/10 9/36/9 96/8/96
f 96/8/96 9/36/9 7/40/7
f 45/33/45 38/34/38 44/29/39 96/8/96
