# ProBuilder 4.5.2
# https://unity3d.com/unity/features/worldbuilding/probuilder
# 22/06/2022 8:36:19 p.m.

mtllib ./Cube_(1).mtl
o Cube (1)

g Cube (1)
v -278.5945 19.21323 26.52017
v -281.9467 19.21323 26.52017
v -278.5945 22.56543 26.52017
v -281.9467 22.56543 26.52017
v -281.9467 19.21323 23.16797
v -281.9467 22.56543 23.16797
v -278.5945 19.21323 23.16797
v -278.5945 22.56543 23.16797

vt 0 0
vt -7 0
vt 0 7
vt -7 7
vt 7 0
vt 7 7
vt 0 -7
vt 7 -7
vt -7 -7

vn 0 0 0.4788848
vn -0.4788848 0 0
vn 0 0 -0.4788848
vn 0.4788848 0 0
vn 0 0.4788848 0
vn 0 -0.4788848 0

usemtl Default_Pro_Builder
f 3/3/1 4/4/1 2/2/1 1/1/1
f 4/3/2 6/4/2 5/2/2 2/1/2
f 6/6/3 8/3/3 7/1/3 5/5/3
f 8/6/4 3/3/4 1/1/4 7/5/4
f 8/7/5 6/8/5 4/5/5 3/1/5
f 1/1/6 2/2/6 5/9/6 7/7/6

