# ProBuilder 4.5.2
# https://unity3d.com/unity/features/worldbuilding/probuilder
# 22/06/2022 7:51:32 p.m.

mtllib ./Cube_(3).mtl
o Cube (3)

g Cube (3)
v -308.5442 42.44435 17.29018
v -308.5442 42.44435 0.6033801
v -273.3983 42.44434 17.29018
v -273.3983 42.44434 0.6033843
v -273.3983 -10.55676 17.29017
v -273.3983 -10.55676 0.6033741
v -308.5442 -10.55676 17.29018
v -308.5442 -10.55676 0.6033801
v -273.3983 4.056208 0.6033559
v -308.5442 4.056217 0.6033574
v -308.5442 2.877567 17.29019
v -273.3983 2.877558 17.29019
v -308.5442 5.234871 25.01791
v -308.5442 42.44436 25.0179
v -273.3983 42.44435 25.0179
v -273.3983 5.234862 25.01791
v -273.3983 4.056209 18.4821
v -308.5442 4.056218 18.48211
v -273.3983 4.056211 23.82599
v -308.5442 4.05622 23.82599
v -308.5442 4.056217 16.09828
v -308.5442 5.234867 17.29019
v -273.3983 4.056208 16.09827
v -273.3983 5.234858 17.29019
v -308.5442 4.056218 17.29019
v -273.3983 4.056209 17.29019

vt -5.425996E-06 4.824408
vt 6.999996 4.824408
vt -5.425996E-06 -6.999992
vt 6.999996 -6.999992
vt 0 -7
vt -7 -7
vt -6.999996 4.824401
vt 4.824399 3.755559E-06
vt -7.000001 2.257909E-06
vt -7.000006 6.199032
vt 4.824398 6.199036
vt -7.000001 22.48382
vt 4.824399 22.48382
vt 7 1.099322E-12
vt -4.824401 1.497654E-06
vt -4.824399 5.699033
vt 7.000005 5.699029
vt -4.824399 6.699035
vt -4.824399 22.48383
vt 7.000005 22.48382
vt 7.000005 6.699031
vt 0.500011 -7.000003
vt 0.5000136 4.824401
vt 2.741737 -7.000004
vt 2.74174 4.8244
vt -3.241758 4.824406
vt -3.241758 -6.999999
vt 4.029832 4.824399
vt 4.029828 -7.000004
vt 4.736939 4.824399
vt 4.736935 -7.000005
vt -6.999996 1.075672E-06
vt -0.4999903 6.199033
vt 9.35369E-06 5.699033
vt 5.215965E-06 1.075672E-06
vt -6.999996 22.48382
vt 5.215965E-06 22.48382
vt 9.578522E-06 6.699033
vt 7 1.64025E-06
vt 0.4999923 6.199031
vt 7.000007 6.199031
vt 6.999995 22.48382
vt 9.797513E-06 6.199034
vt 0.50001 6.199034
vt -0.5000074 6.199037
vt 7.029183 -7.000005
vt 7.029188 4.824399
vt 6.322076 -7.000005
vt 6.322081 4.824399
vt -2.74174 6.199029
vt -3.24174 6.69903
vt -3.241738 22.48382
vt 3.241729 22.48383
vt 3.241734 6.699036
vt 2.741734 6.199035

vn 9.58907E-07 2.3573 1.143106E-13
vn -3.764669E-07 -2.3573 -4.487835E-14
vn -5.5487E-07 -3.263876E-06 -2.383828
vn 1.079767E-06 -2.802229E-06 2.383828
vn -3.91643E-07 -1.666863 1.685621
vn -2.97232 6.346426E-07 -2.6689E-07
vn 2.97232 -1.903928E-06 2.6689E-07

usemtl Default_Pro_Builder
f 21/33/6 7/35/6 11/34/6
f 21/33/6 8/32/6 7/35/6
f 10/10/6 8/32/6 21/33/6
f 1/37/6 2/36/6 22/38/6
f 22/38/6 10/10/6 21/33/6
f 22/38/6 2/36/6 10/10/6
f 23/40/7 6/39/7 9/41/7
f 5/35/7 6/39/7 23/40/7
f 12/34/7 5/35/7 23/40/7
f 9/41/7 4/42/7 24/38/7
f 23/40/7 9/41/7 24/38/7
f 24/38/7 4/42/7 3/37/7
f 18/44/6 25/43/6 11/34/6
f 22/38/6 25/43/6 18/44/6
f 21/33/6 25/43/6 22/38/6
f 11/34/6 25/43/6 21/33/6
f 12/34/7 26/43/7 17/45/7
f 23/40/7 26/43/7 12/34/7
f 24/38/7 26/43/7 23/40/7
f 17/45/7 26/43/7 24/38/7
f 16/51/7 3/37/7 15/52/7
f 16/51/7 24/38/7 3/37/7
f 16/51/7 19/50/7 24/38/7
f 19/50/7 17/45/7 24/38/7
f 13/54/6 18/44/6 20/55/6
f 13/54/6 22/38/6 18/44/6
f 1/37/6 22/38/6 13/54/6
f 14/53/6 1/37/6 13/54/6
f 4/4/1 2/2/1 1/1/1
f 1/1/1 3/3/1 4/4/1
f 8/7/2 6/6/2 5/5/2
f 5/5/2 7/1/2 8/7/2
f 9/10/3 6/9/3 8/8/3
f 8/8/3 10/11/3 9/10/3
f 9/10/3 10/11/3 2/13/3
f 2/13/3 4/12/3 9/10/3
f 12/17/4 11/16/4 7/15/4
f 7/15/4 5/14/4 12/17/4
f 13/18/4 16/21/4 15/20/4
f 15/20/4 14/19/4 13/18/4
f 20/25/2 18/23/2 17/22/2
f 17/22/2 19/24/2 20/25/2
f 15/27/1 3/3/1 1/1/1
f 1/1/1 14/26/1 15/27/1
f 18/30/5 11/28/5 12/29/5
f 12/29/5 17/31/5 18/30/5
f 19/48/5 16/46/5 13/47/5
f 13/47/5 20/49/5 19/48/5

g Cube (2)
v -258.0145 42.44437 32.22017
v -274.2013 42.44437 32.22017
v -258.0145 42.44434 -2.366067
v -274.2013 42.44436 -2.366076
v -258.0145 -10.55676 -2.366069
v -274.2013 -10.55676 -2.366076
v -258.0145 -10.55675 32.22017
v -274.2013 -10.55674 32.22017
v -274.2013 -8.056185 32.22017
v -258.0145 -8.056187 32.22017
v -274.2013 -8.056196 -2.366082
v -258.0145 -8.05621 -2.366076
v -258.0145 -8.056183 47.79367
v -274.2013 -8.056181 47.79367
v -274.2013 -2.194054 47.79367
v -258.0145 -2.194055 47.79367
v -274.2013 42.44437 47.79367
v -258.0145 42.44437 47.79367
v -274.2013 -2.194071 -2.366082
v -274.2013 -2.194057 32.22017
v -258.0145 -2.194088 -2.366076
v -258.0145 -2.194059 32.22017

vt -2.217928E-06 4.636136
vt 6.790252 4.636136
vt -5.425996E-06 -6.999974
vt 6.790252 -6.999977
vt 0 -7
vt -6.790252 -7.000002
vt -6.790252 4.63611
vt 2.217928E-06 6.352396E-06
vt -6.790252 9.588894E-06
vt -6.790252 1.060781
vt 2.217928E-06 1.06078
vt 4.63611 9.588894E-06
vt -7.000002 3.115899E-06
vt -7.000004 1.060776
vt 4.63611 1.060781
vt 6.790255 7.07638E-06
vt 6.790255 1.06078
vt 7 -2.195473E-20
vt -4.63611 6.352396E-06
vt -4.63611 1.06078
vt 7.000002 1.060771
vt -6.790252 3.54758
vt 2.217928E-06 3.54758
vt -6.790252 22.48383
vt 2.217928E-06 22.48383
vt -7.000004 3.547573
vt 4.63611 3.547579
vt -7.000002 22.48383
vt 4.63611 22.48383
vt 6.790255 22.48383
vt 6.790255 3.547577
vt 7 22.48382
vt 7.000002 3.547566
vt -4.63611 3.547578
vt -4.63611 22.48383
vt -9.875621 22.48383
vt -9.875621 3.54758
vt 9.875621 3.54758
vt 9.875621 22.48383
vt 6.790252 9.875621
vt -2.217928E-06 9.875621
vt -9.875621 1.060782
vt -6.790252 9.875621
vt 9.875621 1.060783

vn 0 2.3573 -3.410483E-06
vn -1.093887E-06 -2.3573 1.622652E-06
vn 0 0 2.97232
vn -2.383828 0 0
vn 7.533032E-07 -4.768432E-06 -2.97232
vn 2.383828 -4.928797E-06 -5.665427E-07

usemtl Default_Pro_Builder
f 29/58/8 30/59/8 28/57/8 27/56/8
f 33/56/9 34/62/9 32/61/9 31/60/9
f 35/65/10 34/64/10 33/63/10 36/66/10
f 35/70/11 37/69/11 32/68/11 34/67/11
f 38/66/12 31/63/12 32/71/12 37/72/12
f 31/73/13 38/76/13 36/75/13 33/74/13
f 41/77/10 40/65/10 39/66/10 42/78/10
f 44/80/10 43/79/10 41/77/10 42/78/10
f 45/81/11 37/69/11 35/70/11 46/82/11
f 30/83/11 45/81/11 46/82/11 28/84/11
f 29/80/12 47/78/12 45/86/12 30/85/12
f 47/78/12 38/66/12 37/72/12 45/86/12
f 27/90/13 48/89/13 47/88/13 29/87/13
f 48/89/13 36/75/13 38/76/13 47/88/13
f 44/91/13 42/92/13 48/89/13 27/90/13
f 41/93/11 43/94/11 28/84/11 46/82/11
f 43/95/8 44/96/8 27/56/8 28/57/8
f 42/92/13 39/97/13 36/75/13 48/89/13
f 39/96/9 40/98/9 35/62/9 36/56/9
f 40/99/11 41/93/11 46/82/11 35/70/11

g Cube (1)
v -295.4255 -10.55676 51.91983
v -313.2613 -10.55676 51.91983
v -295.4255 42.44436 51.91983
v -313.2613 42.44435 51.91983
v -313.2613 -10.55676 16.77393
v -313.2613 42.44434 16.77393
v -295.4255 -10.55676 16.77393
v -295.4255 42.44435 16.77393

vt 0.4819978 3.115899E-06
vt -6.999996 1.49765E-06
vt 0.4819978 22.48383
vt -6.999996 22.48382
vt 4.824399 1.49765E-06
vt -7.000002 0
vt 4.824399 22.48382
vt -7.000002 22.48382
vt 7 -1.48456E-07
vt -0.4819973 1.349194E-06
vt 6.999996 22.48382
vt -0.4819973 22.48382
vt 7 1.49765E-06
vt -4.824401 3.115899E-06
vt -4.824401 22.48383
vt -0.4820093 4.824408
vt 6.999984 4.824408
vt -0.4820093 -6.999992
vt 6.999984 -6.999992
vt 0.4819978 -7
vt -7 -7
vt 0.4819978 4.824401
vt -6.999996 4.824401

vn 0 0 2.97232
vn -2.383828 0 1.07877E-06
vn 1.519244E-07 4.999363E-08 -2.97232
vn 2.383828 0 0
vn -1.215396E-06 2.3573 -9.58907E-07
vn 4.771641E-07 -2.3573 4.067819E-07

usemtl Default_Pro_Builder
f 51/102/14 52/103/14 50/101/14 49/100/14
f 52/106/15 54/107/15 53/105/15 50/104/15
f 54/110/16 56/111/16 55/109/16 53/108/16
f 56/110/17 51/114/17 49/113/17 55/112/17
f 56/117/18 54/118/18 52/116/18 51/115/18
f 49/121/19 50/122/19 53/120/19 55/119/19

g Cube (4)
v -288.8945 42.44437 61.39017
v -288.8945 42.44437 45.20337
v -254.3083 42.44434 61.39018
v -254.3083 42.44436 45.20338
v -254.3082 -31.94325 61.39019
v -254.3082 -31.94325 45.20338
v -288.8945 -31.94324 61.39019
v -288.8945 -31.94323 45.20338
v -288.8945 -29.44267 45.20338
v -288.8945 -29.44268 61.39019
v -254.3082 -8.056196 45.20338
v -254.3083 -8.05621 61.39017
v -304.468 -29.44267 61.39018
v -304.468 -29.44267 45.20338
v -304.468 2.194078 45.20337
v -304.468 -2.194055 61.39017
v -304.468 42.44437 45.20337
v -304.468 42.44437 61.39017
v -288.8945 -29.44267 37.98854
v -254.3082 -8.056193 37.98853
v -254.3081 0.01541617 37.98853
v -288.8945 0.01542966 37.98853
v -254.3081 2.194061 45.20338
v -288.8945 2.194073 45.20337
v -254.3083 -2.194088 61.39017
v -288.8945 -2.194059 61.39017
v -304.468 -29.44267 37.98853
v -304.468 0.01543415 37.98853
v -254.308 2.194064 39.18044
v -288.8945 2.194078 39.18043
v -304.468 2.194081 39.18043

vt -2.217928E-06 4.636136
vt 6.790252 4.636136
vt -5.425996E-06 -6.999974
vt 6.790252 -6.999977
vt 1.04524E-05 -7.000028
vt -6.790245 -7.000028
vt -6.790245 4.636101
vt 8.033801E-06 -9.072445
vt -6.790249 -9.072442
vt -6.790249 -8.01167
vt 8.033801E-06 -8.011671
vt 4.636106 -9.072441
vt -7.000022 -9.072448
vt -7.000004 1.060777
vt 4.636106 -8.011669
vt 6.790264 -9.072428
vt 1.272674E-05 1.060792
vt 6.790267 1.060798
vt 7.000023 -9.072452
vt -4.636106 -9.072445
vt -4.636106 -8.011671
vt 7.000002 1.060771
vt -6.790254 5.409087
vt 8.309224E-07 3.547579
vt -6.790255 22.48383
vt -5.560841E-07 22.48383
vt -7.000045 4.484871
vt 4.636106 4.484877
vt -7.000069 5.409081
vt -7.000002 22.48383
vt 4.63611 22.48383
vt 4.636106 5.409087
vt 6.790267 22.48385
vt 6.790267 5.409102
vt 7 22.48382
vt 7.000002 3.547566
vt -4.63611 3.547578
vt -4.63611 22.48383
vt -9.875621 22.48383
vt -9.875621 3.54758
vt 9.875624 5.409088
vt 9.875622 22.48383
vt 6.790252 9.875621
vt -2.217928E-06 9.875621
vt -9.875622 -8.01167
vt -6.790249 9.875621
vt 9.875625 -8.011667
vt 9.875625 4.484879
vt -9.816828 9.875621
vt -9.816827 4.636105
vt 6.790256 -7.000025
vt 9.316833 -7.000042
vt 9.316833 4.636108
vt -6.790249 8.582323
vt -6.790252 -6.17262
vt -9.816827 8.582323
vt -9.81683 -6.172639
vt 9.316833 9.875625
vt 4.636108 -0.7264691
vt 9.875625 -0.726467
vt 4.636108 0.3243228
vt 9.875625 0.3243251
vt -7.000043 -0.7264838
vt -7.000082 0.3243086
vt -9.816828 -8.011669
vt -9.81683 4.484876
vt -9.316835 5.409089
vt 9.316857 5.409173
vt 9.816852 4.484959
vt 9.816852 1.060868

vn 3.410483E-06 2.3573 4.065612E-13
vn -1.705239E-06 -2.3573 -1.004408E-06
vn -2.97232 0 -1.869268E-07
vn -1.421362E-07 -3.882445E-07 -2.383828
vn 2.97232 4.492544E-06 6.054329E-07
vn 1.576268E-07 1.026336E-06 2.383828
vn 1.827605 -1.859025 2.178675E-07
vn 7.647941E-07 1.121663 -2.096672

usemtl Default_Pro_Builder
f 70/132/22 84/188/22 83/187/22
f 71/145/22 84/188/22 70/132/22
f 87/189/22 84/188/22 71/145/22
f 79/156/24 77/191/24 85/190/24
f 79/156/24 67/140/24 77/191/24
f 67/140/24 76/192/24 77/191/24
f 60/126/20 58/124/20 57/123/20
f 57/123/20 59/125/20 60/126/20
f 64/129/21 62/128/21 61/127/21
f 61/127/21 63/123/21 64/129/21
f 64/131/22 63/130/22 66/133/22
f 66/133/22 65/132/22 64/131/22
f 67/136/23 62/135/23 64/134/23
f 64/134/23 65/137/23 67/136/23
f 61/130/24 62/138/24 67/140/24
f 67/140/24 68/139/24 61/130/24
f 68/144/25 66/143/25 63/142/25
f 63/142/25 61/141/25 68/144/25
f 70/132/22 69/133/22 72/146/22
f 72/146/22 71/145/22 70/132/22
f 73/147/22 71/145/22 72/146/22
f 72/146/22 74/148/22 73/147/22
f 76/136/23 75/137/23 78/150/23
f 78/150/23 77/149/23 76/136/23
f 79/151/23 80/154/23 58/153/23
f 58/153/23 60/152/23 79/151/23
f 81/146/24 79/156/24 60/155/24
f 60/155/24 59/148/24 81/146/24
f 68/139/24 67/140/24 79/156/24
f 79/156/24 81/146/24 68/139/24
f 82/159/25 81/158/25 59/157/25
f 59/157/25 57/160/25 82/159/25
f 66/143/25 68/144/25 81/158/25
f 81/158/25 82/159/25 66/143/25
f 72/162/25 82/159/25 57/160/25
f 57/160/25 74/161/25 72/162/25
f 73/164/23 58/153/23 80/154/23
f 80/154/23 71/163/23 73/164/23
f 74/166/20 57/123/20 58/124/20
f 58/124/20 73/165/20 74/166/20
f 69/167/25 66/143/25 82/159/25
f 82/159/25 72/162/25 69/167/25
f 70/168/21 65/129/21 66/123/21
f 66/123/21 69/166/21 70/168/21
f 84/170/23 78/150/23 75/137/23
f 75/137/23 83/169/23 84/170/23
f 75/172/21 65/129/21 70/168/21
f 70/168/21 83/171/21 75/172/21
f 86/175/20 80/124/20 79/173/20
f 79/173/20 85/174/20 86/175/20
f 76/179/26 67/177/26 65/176/26
f 65/176/26 75/178/26 76/179/26
f 87/180/20 71/165/20 80/124/20
f 80/124/20 86/175/20 87/180/20
f 86/183/27 78/181/27 84/182/27
f 84/182/27 87/184/27 86/183/27
f 85/186/27 77/185/27 78/181/27
f 78/181/27 86/183/27 85/186/27

