# This file uses centimeters as units for non-parametric coordinates.

mtllib gaming sign.mtl
g default
v -0.079818 0.393681 0.930979
v -0.079818 0.393681 1.034413
v -0.079818 0.164412 1.052763
v -0.079818 -0.023011 1.159422
v -0.079818 -0.092108 1.093610
v -0.079818 0.134463 0.959219
v -0.079818 0.134463 0.763711
v -0.079818 0.022119 0.763711
v -0.079818 -0.212892 0.813757
v -0.079818 -0.335905 1.004992
v -0.079818 -0.412088 0.941638
v -0.079818 -0.258435 0.732062
v -0.079818 0.022119 0.662496
v -0.079818 0.134463 0.662496
v -0.079818 0.134463 0.482341
v -0.079818 0.228179 0.482341
v -0.079818 0.228179 0.941993
v -0.079818 0.412088 0.445537
v -0.079818 0.412088 0.535498
v -0.079818 0.253557 0.535498
v -0.079818 0.253557 0.445537
v -0.079818 0.412088 0.544812
v -0.079818 0.412088 0.634774
v -0.079818 0.253557 0.634774
v -0.079818 0.253557 0.544812
v -0.079818 0.062678 -0.310993
v -0.079818 0.062678 0.351436
v -0.079818 -0.042292 0.351436
v -0.079818 -0.042292 -0.310993
v -0.079818 0.386412 -0.689458
v -0.079818 -0.273203 -0.531984
v -0.079818 -0.279291 -0.438210
v -0.079818 -0.382667 -0.458787
v -0.079816 -0.309124 -1.027442
v -0.079816 -0.397377 -1.059916
v -0.079816 -0.355474 -1.159422
v -0.079816 0.018662 -0.945690
v -0.079816 -0.028225 -0.868441
v -0.079816 -0.226374 -0.989821
v -0.079818 -0.264523 -0.633555
v -0.079818 0.365959 -0.795360
v 0.079817 0.393681 0.930979
v 0.079817 0.393681 1.034413
v 0.079817 0.164412 1.052763
v 0.079817 -0.023011 1.159422
v 0.079817 -0.092108 1.093609
v 0.079817 0.134463 0.959219
v 0.079817 0.134463 0.763710
v 0.079817 0.022119 0.763710
v 0.079817 -0.212892 0.813757
v 0.079817 -0.335905 1.004992
v 0.079817 -0.412088 0.941638
v 0.079817 -0.258435 0.732063
v 0.079817 0.022119 0.662495
v 0.079817 0.134463 0.662495
v 0.079817 0.134463 0.482341
v 0.079817 0.228179 0.482341
v 0.079817 0.228179 0.941993
v 0.079817 0.412088 0.445536
v 0.079817 0.412088 0.535498
v 0.079817 0.253557 0.535498
v 0.079817 0.253557 0.445536
v 0.079817 0.412088 0.544813
v 0.079817 0.412088 0.634775
v 0.079817 0.253557 0.634775
v 0.079817 0.253557 0.544813
v 0.079818 0.062678 -0.310993
v 0.079817 0.062678 0.351436
v 0.079817 -0.042292 0.351436
v 0.079818 -0.042292 -0.310993
v 0.079818 0.386412 -0.689458
v 0.079818 -0.273203 -0.531984
v 0.079818 -0.279291 -0.438210
v 0.079818 -0.382667 -0.458787
v 0.079818 -0.309124 -1.027442
v 0.079818 -0.397377 -1.059916
v 0.079818 -0.355474 -1.159422
v 0.079818 0.018662 -0.945690
v 0.079818 -0.028225 -0.868441
v 0.079818 -0.226374 -0.989821
v 0.079818 -0.264523 -0.633555
v 0.079818 0.365959 -0.795360
vt 0.596776 0.614323
vt 0.679966 0.609189
vt 0.679363 0.593388
vt 0.646738 0.595422
vt 0.646074 0.576562
vt 0.631927 0.530557
vt 0.593574 0.507575
vt 0.582637 0.520909
vt 0.617513 0.539076
vt 0.627814 0.577714
vt 0.628447 0.596563
vt 0.593192 0.598761
vt 0.567954 0.562401
vt 0.556485 0.574669
vt 0.576505 0.604837
vt 0.580930 0.643269
vt 0.599623 0.642137
vt 0.578176 0.633092
vt 0.596996 0.631944
vt 0.573731 0.594434
vt 0.553584 0.564098
vt 0.565133 0.551752
vt 0.590532 0.588314
vt 0.626025 0.586085
vt 0.625392 0.567126
vt 0.615031 0.528266
vt 0.579925 0.510011
vt 0.590938 0.496594
vt 0.629542 0.519690
vt 0.643775 0.565957
vt 0.644440 0.584929
vt 0.677286 0.582867
vt 0.677890 0.598762
vt 0.594137 0.603966
vt 0.686818 0.613065
vt 0.670477 0.614070
vt 0.671479 0.640916
vt 0.687861 0.639926
vt 0.669339 0.630682
vt 0.685833 0.629678
vt 0.668335 0.603676
vt 0.684788 0.602657
vt 0.668786 0.614174
vt 0.652468 0.615178
vt 0.653426 0.642007
vt 0.669784 0.641019
vt 0.651163 0.631788
vt 0.667633 0.630786
vt 0.650205 0.604800
vt 0.666633 0.603782
vt 0.822533 0.554537
vt 0.701923 0.562203
vt 0.702635 0.579824
vt 0.823444 0.572231
vt 0.700718 0.569211
vt 0.822353 0.561513
vt 0.700005 0.551486
vt 0.821437 0.543714
vt 0.915616 0.618241
vt 0.879565 0.513427
vt 0.945408 0.515576
vt 0.925095 0.550403
vt 0.939852 0.557429
vt 0.975273 0.491871
vt 0.956491 0.486063
vt 0.951459 0.501234
vt 0.846524 0.495779
vt 0.843697 0.513283
vt 0.860891 0.513185
vt 0.896189 0.622929
vt 0.860061 0.502098
vt 0.895596 0.612479
vt 0.842750 0.502206
vt 0.845598 0.484598
vt 0.951252 0.490030
vt 0.956319 0.474767
vt 0.975231 0.480600
vt 0.939563 0.546565
vt 0.924705 0.539504
vt 0.945160 0.504460
vt 0.878863 0.502333
vt 0.915157 0.607753
vn -1.000000 -0.000000 0.000001
vn -1.000000 -0.000000 0.000001
vn -1.000000 -0.000000 0.000001
vn -1.000000 -0.000000 0.000001
vn -1.000000 -0.000000 0.000001
vn -1.000000 -0.000000 0.000001
vn -1.000000 -0.000000 0.000001
vn -1.000000 -0.000000 0.000001
vn -1.000000 -0.000000 0.000001
vn -1.000000 -0.000000 0.000001
vn -1.000000 -0.000000 0.000001
vn -1.000000 -0.000000 0.000001
vn -1.000000 -0.000000 0.000001
vn -1.000000 -0.000000 0.000001
vn -1.000000 -0.000000 0.000001
vn -1.000000 -0.000000 0.000001
vn -1.000000 -0.000000 0.000001
vn 0.000000 1.000000 0.000000
vn 0.000000 1.000000 0.000000
vn 0.000000 1.000000 0.000000
vn 0.000000 1.000000 0.000000
vn 0.000000 0.079780 0.996813
vn 0.000000 0.287352 0.957825
vn 0.000000 0.287352 0.957825
vn 0.000000 0.079780 0.996813
vn 0.000000 0.494604 0.869118
vn 0.000000 0.494604 0.869118
vn 0.000001 -0.689691 0.724104
vn 0.000001 -0.689691 0.724104
vn 0.000001 -0.689691 0.724104
vn 0.000001 -0.689691 0.724104
vn -0.000003 -0.510159 -0.860080
vn -0.000003 -0.510159 -0.860080
vn -0.000003 -0.510159 -0.860080
vn -0.000003 -0.510159 -0.860080
vn 0.000000 -1.000000 0.000000
vn 0.000000 -1.000000 0.000000
vn 0.000000 -1.000000 0.000000
vn 0.000000 -1.000000 0.000000
vn 0.000003 0.000000 1.000000
vn 0.000001 0.142606 0.989780
vn 0.000001 0.142606 0.989780
vn 0.000003 0.000000 1.000000
vn 0.000000 0.208283 0.978069
vn 0.000000 0.208283 0.978069
vn -0.000001 0.841027 0.540993
vn -0.000001 0.841027 0.540993
vn -0.000001 0.841027 0.540993
vn -0.000001 0.841027 0.540993
vn 0.000000 -0.639402 0.768872
vn 0.000000 -0.639402 0.768872
vn 0.000000 -0.639402 0.768872
vn 0.000000 -0.639402 0.768872
vn 0.000001 -0.806471 -0.591274
vn 0.000001 -0.806471 -0.591274
vn 0.000001 -0.806471 -0.591274
vn 0.000001 -0.806471 -0.591274
vn 0.000000 -0.240675 -0.970606
vn -0.000001 -0.174350 -0.984684
vn -0.000001 -0.174350 -0.984684
vn 0.000000 -0.240675 -0.970606
vn -0.000003 0.000000 -1.000000
vn -0.000003 0.000000 -1.000000
vn 0.000000 -1.000000 0.000000
vn 0.000000 -1.000000 0.000000
vn 0.000000 -1.000000 0.000000
vn 0.000000 -1.000000 0.000000
vn 0.000000 0.000000 -1.000000
vn 0.000000 0.000000 -1.000000
vn 0.000000 0.000000 -1.000000
vn 0.000000 0.000000 -1.000000
vn 0.000000 1.000000 -0.000000
vn 0.000000 1.000000 -0.000000
vn 0.000000 1.000000 -0.000000
vn 0.000000 1.000000 -0.000000
vn 0.000002 -0.066401 -0.997793
vn 0.000002 -0.066401 -0.997793
vn 0.000002 -0.066401 -0.997793
vn 0.000002 -0.066401 -0.997793
vn 1.000000 -0.000000 -0.000000
vn 1.000000 -0.000000 -0.000000
vn 1.000000 -0.000000 -0.000000
vn 1.000000 -0.000000 -0.000000
vn 1.000000 -0.000000 -0.000000
vn 1.000000 -0.000000 -0.000000
vn 1.000000 -0.000000 -0.000000
vn 1.000000 -0.000000 -0.000000
vn 1.000000 -0.000000 -0.000000
vn 1.000000 -0.000000 -0.000000
vn 1.000000 -0.000000 -0.000000
vn 1.000000 -0.000000 -0.000000
vn 1.000000 -0.000000 -0.000000
vn 1.000000 -0.000000 -0.000000
vn 1.000000 -0.000000 -0.000000
vn 1.000000 -0.000000 -0.000000
vn 1.000000 -0.000000 -0.000000
vn -1.000000 0.000000 0.000000
vn -1.000000 0.000000 0.000000
vn -1.000000 0.000000 0.000000
vn -1.000000 0.000000 0.000000
vn 0.000000 1.000000 0.000000
vn 0.000000 1.000000 0.000000
vn 0.000000 1.000000 0.000000
vn 0.000000 1.000000 0.000000
vn 0.000000 0.000000 1.000000
vn 0.000000 0.000000 1.000000
vn 0.000000 0.000000 1.000000
vn 0.000000 0.000000 1.000000
vn 0.000000 -1.000000 0.000000
vn 0.000000 -1.000000 0.000000
vn 0.000000 -1.000000 0.000000
vn 0.000000 -1.000000 0.000000
vn -0.000003 0.000000 -1.000000
vn -0.000003 0.000000 -1.000000
vn -0.000003 0.000000 -1.000000
vn -0.000003 0.000000 -1.000000
vn 1.000000 0.000000 0.000000
vn 1.000000 0.000000 0.000000
vn 1.000000 0.000000 0.000000
vn 1.000000 0.000000 0.000000
vn -1.000000 0.000000 0.000000
vn -1.000000 0.000000 0.000000
vn -1.000000 0.000000 0.000000
vn -1.000000 0.000000 0.000000
vn 0.000000 1.000000 0.000000
vn 0.000000 1.000000 0.000000
vn 0.000000 1.000000 0.000000
vn 0.000000 1.000000 0.000000
vn -0.000003 0.000000 1.000000
vn -0.000003 0.000000 1.000000
vn -0.000003 0.000000 1.000000
vn -0.000003 0.000000 1.000000
vn 0.000000 -1.000000 0.000000
vn 0.000000 -1.000000 0.000000
vn 0.000000 -1.000000 0.000000
vn 0.000000 -1.000000 0.000000
vn 0.000003 0.000000 -1.000000
vn 0.000003 0.000000 -1.000000
vn 0.000003 0.000000 -1.000000
vn 0.000003 0.000000 -1.000000
vn 1.000000 0.000000 0.000000
vn 1.000000 0.000000 0.000000
vn 1.000000 0.000000 0.000000
vn 1.000000 0.000000 0.000000
vn -1.000000 0.000000 0.000000
vn -1.000000 0.000000 0.000000
vn -1.000000 0.000000 0.000000
vn -1.000000 0.000000 0.000000
vn 0.000000 1.000000 -0.000000
vn 0.000000 1.000000 -0.000000
vn 0.000000 1.000000 -0.000000
vn 0.000000 1.000000 -0.000000
vn 0.000000 0.000000 1.000000
vn 0.000000 0.000000 1.000000
vn 0.000000 0.000000 1.000000
vn 0.000000 0.000000 1.000000
vn 0.000000 -1.000000 0.000000
vn 0.000000 -1.000000 0.000000
vn 0.000000 -1.000000 0.000000
vn 0.000000 -1.000000 0.000000
vn 0.000000 0.000000 -1.000000
vn 0.000000 0.000000 -1.000000
vn 0.000000 0.000000 -1.000000
vn 0.000000 0.000000 -1.000000
vn 1.000000 0.000000 0.000001
vn 1.000000 0.000000 0.000001
vn 1.000000 0.000000 0.000001
vn 1.000000 0.000000 0.000001
vn -1.000000 -0.000001 -0.000001
vn -1.000000 -0.000001 -0.000001
vn -1.000000 -0.000001 -0.000001
vn -1.000000 -0.000001 -0.000001
vn -1.000000 -0.000001 -0.000001
vn -1.000000 -0.000001 -0.000001
vn -1.000000 -0.000001 -0.000001
vn -1.000000 -0.000001 -0.000001
vn -1.000000 -0.000001 -0.000001
vn -1.000000 -0.000001 -0.000001
vn -1.000000 -0.000001 -0.000001
vn -1.000000 -0.000001 -0.000001
vn 0.000000 0.232211 0.972665
vn 0.000000 0.232211 0.972665
vn 0.000000 0.232211 0.972665
vn 0.000000 0.232211 0.972665
vn 0.000000 0.997899 0.064782
vn 0.000000 0.997899 0.064782
vn 0.000000 0.997899 0.064782
vn 0.000000 0.997899 0.064782
vn 0.000000 -0.195224 0.980759
vn 0.000000 -0.195224 0.980759
vn 0.000000 -0.195224 0.980759
vn 0.000000 -0.195224 0.980759
vn 0.000000 -0.991741 -0.128259
vn 0.000000 -0.991741 -0.128259
vn 0.000000 -0.991741 -0.128259
vn 0.000000 -0.991741 -0.128259
vn 0.000000 -0.345334 0.938480
vn 0.000000 -0.345334 0.938480
vn 0.000000 -0.345334 0.938480
vn 0.000000 -0.345334 0.938480
vn 0.000000 -0.921615 -0.388105
vn 0.000000 -0.921615 -0.388105
vn 0.000000 -0.921615 -0.388105
vn 0.000000 -0.921615 -0.388105
vn 0.000000 0.496036 -0.868302
vn 0.000000 0.496036 -0.868302
vn 0.000000 0.496036 -0.868302
vn 0.000000 0.496036 -0.868302
vn 0.000000 0.854856 0.518865
vn 0.000000 0.854856 0.518865
vn 0.000000 0.854856 0.518865
vn 0.000000 0.854856 0.518865
vn 0.000000 -0.522355 0.852728
vn 0.000000 -0.522355 0.852728
vn 0.000000 -0.522355 0.852728
vn 0.000000 -0.522355 0.852728
vn 0.000000 0.994316 0.106472
vn 0.000000 0.994316 0.106472
vn 0.000000 0.994316 0.106472
vn 0.000000 0.994316 0.106472
vn 0.000000 -0.248582 -0.968611
vn 0.000000 -0.248582 -0.968611
vn 0.000000 -0.248582 -0.968611
vn 0.000000 -0.248582 -0.968611
vn 0.000000 0.981857 -0.189623
vn 0.000000 0.981857 -0.189623
vn 0.000000 0.981857 -0.189623
vn 0.000000 0.981857 -0.189623
vn 1.000000 -0.000000 0.000000
vn 1.000000 -0.000000 0.000000
vn 1.000000 -0.000000 0.000000
vn 1.000000 -0.000000 0.000000
vn 1.000000 -0.000000 0.000000
vn 1.000000 -0.000000 0.000000
vn 1.000000 -0.000000 0.000000
vn 1.000000 -0.000000 0.000000
vn 1.000000 -0.000000 0.000000
vn 1.000000 -0.000000 0.000000
vn 1.000000 -0.000000 0.000000
vn 1.000000 -0.000000 0.000000
s off
g Gaming
usemtl typeBlinnSG
f 17/1/1 16/2/2 15/3/3 14/4/4 13/5/5 12/6/6 11/7/7 10/8/8 9/9/9 8/10/10 7/11/11 6/12/12 5/13/13 4/14/14 3/15/15 2/16/16 1/17/17
f 1/17/18 2/16/19 43/18/20 42/19/21
s 1
f 2/16/22 3/15/23 44/20/24 43/18/25
f 3/15/23 4/14/26 45/21/27 44/20/24
s off
f 4/14/28 5/13/29 46/22/30 45/21/31
f 5/13/32 6/12/33 47/23/34 46/22/35
f 6/12/36 7/11/37 48/24/38 47/23/39
s 2
f 7/11/40 8/10/41 49/25/42 48/24/43
f 8/10/41 9/9/44 50/26/45 49/25/42
s off
f 9/9/46 10/8/47 51/27/48 50/26/49
f 10/8/50 11/7/51 52/28/52 51/27/53
f 11/7/54 12/6/55 53/29/56 52/28/57
s 3
f 12/6/58 13/5/59 54/30/60 53/29/61
f 13/5/59 14/4/62 55/31/63 54/30/60
s off
f 14/4/64 15/3/65 56/32/66 55/31/67
f 15/3/68 16/2/69 57/33/70 56/32/71
f 16/2/72 17/1/73 58/34/74 57/33/75
f 17/1/76 1/17/77 42/19/78 58/34/79
f 42/19/80 43/18/81 44/20/82 45/21/83 46/22/84 47/23/85 48/24/86 49/25/87 50/26/88 51/27/89 52/28/90 53/29/91 54/30/92 55/31/93 56/32/94 57/33/95 58/34/96
f 21/35/97 20/36/98 19/37/99 18/38/100
f 18/38/101 19/37/102 60/39/103 59/40/104
f 19/37/105 20/36/106 61/41/107 60/39/108
f 20/36/109 21/35/110 62/42/111 61/41/112
f 21/35/113 18/38/114 59/40/115 62/42/116
f 59/40/117 60/39/118 61/41/119 62/42/120
f 25/43/121 24/44/122 23/45/123 22/46/124
f 22/46/125 23/45/126 64/47/127 63/48/128
f 23/45/129 24/44/130 65/49/131 64/47/132
f 24/44/133 25/43/134 66/50/135 65/49/136
f 25/43/137 22/46/138 63/48/139 66/50/140
f 63/48/141 64/47/142 65/49/143 66/50/144
f 29/51/145 28/52/146 27/53/147 26/54/148
f 26/54/149 27/53/150 68/55/151 67/56/152
f 27/53/153 28/52/154 69/57/155 68/55/156
f 28/52/157 29/51/158 70/58/159 69/57/160
f 29/51/161 26/54/162 67/56/163 70/58/164
f 67/56/165 68/55/166 69/57/167 70/58/168
f 41/59/169 40/60/170 39/61/171 38/62/172 37/63/173 36/64/174 35/65/175 34/66/176 33/67/177 32/68/178 31/69/179 30/70/180
f 30/70/181 31/69/182 72/71/183 71/72/184
f 31/69/185 32/68/186 73/73/187 72/71/188
f 32/68/189 33/67/190 74/74/191 73/73/192
f 33/67/193 34/66/194 75/75/195 74/74/196
f 34/66/197 35/65/198 76/76/199 75/75/200
f 35/65/201 36/64/202 77/77/203 76/76/204
f 36/64/205 37/63/206 78/78/207 77/77/208
f 37/63/209 38/62/210 79/79/211 78/78/212
f 38/62/213 39/61/214 80/80/215 79/79/216
f 39/61/217 40/60/218 81/81/219 80/80/220
f 40/60/221 41/59/222 82/82/223 81/81/224
f 41/59/225 30/70/226 71/72/227 82/82/228
f 71/72/229 72/71/230 73/73/231 74/74/232 75/75/233 76/76/234 77/77/235 78/78/236 79/79/237 80/80/238 81/81/239 82/82/240
