# This file uses centimeters as units for non-parametric coordinates.

mtllib sign base low.mtl
g default
v 0.042576 -1.883820 -1.163312
v 0.042576 -1.883820 1.163312
v 0.042576 1.883820 -1.163312
v 0.042576 1.883820 1.163312
v -0.042576 -1.883820 -1.163312
v -0.042576 -1.883820 1.163312
v -0.042576 1.883820 1.163312
v -0.042576 1.883820 -1.163312
v -0.102792 -2.063178 1.291205
v 0.102792 -2.063178 1.291205
v 0.102792 2.063178 1.291205
v -0.102792 2.063178 1.291205
v 0.102792 2.063178 -1.291205
v -0.102792 2.063178 -1.291205
v 0.102792 -2.063178 -1.291205
v -0.102792 -2.063178 -1.291205
v 0.135587 -1.883820 -1.163312
v 0.135587 -1.883820 1.163312
v 0.135587 1.883820 -1.163312
v 0.135587 1.883820 1.163312
v -0.135587 -1.883820 1.163312
v -0.135587 -1.883820 -1.163312
v -0.135587 1.883820 1.163312
v -0.135587 1.883820 -1.163312
v 0.042576 0.000000 -1.163312
v 0.042576 0.000000 1.163312
v 0.135587 0.000000 1.163312
v 0.102792 0.000000 1.291205
v -0.102792 0.000000 1.291205
v -0.135587 0.000000 1.163312
v -0.042576 0.000000 1.163312
v -0.042576 0.000000 -1.163312
v -0.135587 0.000000 -1.163312
v -0.102792 0.000000 -1.291205
v 0.102792 0.000000 -1.291205
v 0.135587 0.000000 -1.163312
v -0.069898 -1.181268 1.291205
v 0.069898 -1.181268 1.291205
v 0.069898 -0.881911 1.291205
v -0.069898 -0.881911 1.291205
v 0.069898 0.881911 1.291205
v -0.069898 0.881911 1.291205
v 0.069898 1.181268 1.291205
v -0.069898 1.181268 1.291205
v -0.069898 -1.181268 2.087000
v 0.069898 -1.181268 2.087000
v 0.069898 -0.881911 2.087000
v -0.069898 -0.881911 2.087000
v 0.069898 0.881911 2.087000
v -0.069898 0.881911 2.087000
v 0.069898 1.181268 2.087000
v -0.069898 1.181268 2.087000
vt 0.022314 0.905008
vt 0.301514 0.920574
vt 0.285333 0.920609
vt 0.580678 0.919959
vt 0.038203 0.125752
vt 0.036450 0.317865
vt 0.356279 0.318911
vt 0.358409 0.130949
vt 0.305306 0.129396
vt 0.303794 0.319606
vt 0.251053 0.317342
vt 0.253089 0.130752
vt 0.143667 0.316453
vt 0.145570 0.129348
vt 0.145686 0.418802
vt 0.248008 0.419232
vt 0.299513 0.420377
vt 0.094810 0.419654
vt 0.038448 0.460101
vt 0.149534 0.027211
vt 0.365574 0.674420
vt 0.303199 0.028455
vt 0.249423 0.347438
vt 0.145218 0.347340
vt 0.302474 0.349613
vt 0.042409 0.348970
vt 0.355378 0.349792
vt 0.092923 0.348461
vt 0.090718 0.317919
vt 0.147749 0.099200
vt 0.251917 0.099917
vt 0.092469 0.126874
vt 0.095427 0.096488
vt 0.357503 0.100373
vt 0.044909 0.094766
vt 0.304725 0.099275
vt 0.044334 0.420356
vt 0.350654 0.421630
vt 0.353956 0.028129
vt 0.365574 0.888739
vt 0.022442 0.903598
vt 0.301573 0.920358
vt 0.285392 0.920325
vt 0.580737 0.920938
vt 0.301667 0.990228
vt 0.564651 0.989648
vt 0.285486 0.990263
vt 0.580831 0.989612
vt 0.301428 0.990012
vt 0.564412 0.990558
vt 0.285248 0.989978
vt 0.580593 0.990592
vt 0.038448 0.674420
vt 0.251814 0.028599
vt 0.098913 0.025313
vt 0.453434 0.023739
vt 0.038448 0.674420
vt 0.038448 0.888739
vt 0.365574 0.674420
vt 0.365574 0.460101
vt 0.038448 0.888739
vt 0.365574 0.460101
vt 0.038448 0.460101
vt 0.365574 0.888739
vt 0.068968 0.157069
vt 0.061100 0.156951
vt 0.059893 0.287171
vt 0.067769 0.287227
vt 0.122480 0.158435
vt 0.114780 0.158223
vt 0.113555 0.286994
vt 0.121248 0.286937
vt 0.022503 0.990843
vt 0.022264 0.989432
vt 0.564498 0.919995
vt 0.022349 0.921189
vt 0.285297 0.904429
vt 0.564557 0.920904
vt 0.022408 0.919779
vt 0.285426 0.904144
vt 0.466553 0.126797
vt 0.458428 0.095268
vt 0.048481 0.023433
vt 0.466817 0.324411
vt 0.457665 0.355374
vt 0.451718 0.427517
vn 0.000000 0.000000 1.000000
vn 0.000000 0.000000 1.000000
vn 0.000000 0.000000 1.000000
vn 0.000000 0.000000 1.000000
vn 0.000000 1.000000 0.000000
vn 0.000000 1.000000 0.000000
vn 0.000000 1.000000 0.000000
vn 0.000000 1.000000 0.000000
vn 0.000000 0.000000 -1.000000
vn 0.000000 0.000000 -1.000000
vn 0.000000 0.000000 -1.000000
vn 0.000000 0.000000 -1.000000
vn 0.000000 -1.000000 0.000000
vn 0.000000 -1.000000 0.000000
vn 0.000000 -1.000000 0.000000
vn 0.000000 -1.000000 0.000000
vn 1.000000 0.000000 0.000000
vn 1.000000 0.000000 0.000000
vn 1.000000 0.000000 0.000000
vn 1.000000 0.000000 0.000000
vn -1.000000 0.000000 0.000000
vn -1.000000 0.000000 0.000000
vn -1.000000 0.000000 0.000000
vn -1.000000 0.000000 0.000000
vn 0.989052 -0.114230 0.093424
vn 0.989052 -0.114230 -0.093424
vn 0.989071 -0.115526 -0.091613
vn 0.989071 -0.115526 0.091613
vn 0.968660 0.000000 -0.248393
vn 0.968660 0.000000 -0.248393
vn 0.989052 0.114230 -0.093424
vn 0.989052 0.114230 0.093424
vn 0.989071 0.115526 0.091613
vn 0.989071 0.115526 -0.091613
vn 0.968660 0.000000 0.248393
vn 0.968660 0.000000 0.248393
vn -0.989052 -0.114230 -0.093424
vn -0.989052 -0.114230 0.093424
vn -0.989071 -0.115526 0.091613
vn -0.989071 -0.115526 -0.091613
vn -0.968660 0.000000 0.248393
vn -0.968660 0.000000 0.248393
vn -0.989052 0.114230 0.093424
vn -0.989052 0.114230 -0.093424
vn -0.989071 0.115526 -0.091613
vn -0.989071 0.115526 0.091613
vn -0.968660 0.000000 -0.248393
vn -0.968660 0.000000 -0.248393
vn 0.000000 1.000000 0.000000
vn 0.000000 1.000000 0.000000
vn 0.000000 1.000000 0.000000
vn 0.000000 1.000000 0.000000
vn 0.000000 0.000000 1.000000
vn 0.000000 0.000000 1.000000
vn 0.000000 0.000000 1.000000
vn 0.000000 0.000000 1.000000
vn 0.000000 -1.000000 0.000000
vn 0.000000 -1.000000 0.000000
vn 0.000000 -1.000000 0.000000
vn 0.000000 -1.000000 0.000000
vn 0.000000 0.000000 -1.000000
vn 0.000000 0.000000 -1.000000
vn 0.000000 0.000000 -1.000000
vn 0.000000 0.000000 -1.000000
vn 0.000000 1.000000 0.000000
vn 0.000000 1.000000 0.000000
vn 0.000000 1.000000 0.000000
vn 0.000000 1.000000 0.000000
vn 0.000000 0.000000 -1.000000
vn 0.000000 0.000000 -1.000000
vn 0.000000 0.000000 -1.000000
vn 0.000000 0.000000 -1.000000
vn 0.000000 -1.000000 0.000000
vn 0.000000 -1.000000 0.000000
vn 0.000000 -1.000000 0.000000
vn 0.000000 -1.000000 0.000000
vn 0.000000 0.000000 1.000000
vn 0.000000 0.000000 1.000000
vn 0.000000 0.000000 1.000000
vn 0.000000 0.000000 1.000000
vn 1.000000 0.000000 0.000000
vn 1.000000 0.000000 0.000000
vn 0.000000 0.000000 -1.000000
vn 0.000000 0.000000 -1.000000
vn 0.000000 0.000000 1.000000
vn 0.000000 0.000000 1.000000
vn 0.000000 0.000000 1.000000
vn 0.000000 0.000000 1.000000
vn 0.000000 0.000000 -1.000000
vn 0.000000 0.000000 -1.000000
vn -1.000000 0.000000 0.000000
vn -1.000000 0.000000 0.000000
vn 0.000000 0.000000 1.000000
vn 0.000000 0.000000 1.000000
vn 0.000000 0.000000 -1.000000
vn 0.000000 0.000000 -1.000000
vn 0.000000 0.000000 1.000000
vn 0.000000 0.000000 1.000000
vn -0.000001 0.000000 1.000000
vn 0.000001 0.000000 1.000000
vn 0.000001 0.000000 1.000000
vn -0.000001 0.000000 1.000000
vn 0.000001 0.000000 1.000000
vn 0.000001 0.000000 1.000000
vn -0.000001 0.000000 1.000000
vn -0.000001 0.000000 1.000000
vn 0.000001 0.000000 1.000000
vn -0.000001 0.000000 1.000000
vn 0.000001 0.000000 1.000000
vn 0.000001 0.000000 1.000000
vn -0.000001 0.000000 1.000000
vn -0.000001 0.000000 1.000000
vn 0.000000 -1.000000 0.000000
vn 0.000000 -1.000000 0.000000
vn 0.000000 -1.000000 0.000000
vn 0.000000 -1.000000 0.000000
vn 1.000000 0.000000 0.000000
vn 1.000000 0.000000 0.000000
vn 1.000000 0.000000 0.000000
vn 1.000000 0.000000 0.000000
vn 0.000000 1.000000 0.000000
vn 0.000000 1.000000 0.000000
vn 0.000000 1.000000 0.000000
vn 0.000000 1.000000 0.000000
vn -1.000000 0.000000 0.000000
vn -1.000000 0.000000 0.000000
vn -1.000000 0.000000 0.000000
vn -1.000000 0.000000 0.000000
vn 0.000000 -1.000000 0.000000
vn 0.000000 -1.000000 0.000000
vn 0.000000 -1.000000 0.000000
vn 0.000000 -1.000000 0.000000
vn 1.000000 0.000000 0.000000
vn 1.000000 0.000000 0.000000
vn 1.000000 0.000000 0.000000
vn 1.000000 0.000000 0.000000
vn 0.000000 1.000000 0.000000
vn 0.000000 1.000000 0.000000
vn 0.000000 1.000000 0.000000
vn 0.000000 1.000000 0.000000
vn -1.000000 0.000000 0.000000
vn -1.000000 0.000000 0.000000
vn -1.000000 0.000000 0.000000
vn -1.000000 0.000000 0.000000
s off
g Sign_Base
usemtl initialShadingGroup
f 45/1/1 46/77/2 47/3/3 48/76/4
f 12/81/5 11/84/6 13/7/7 14/8/8
s 1
f 34/9/9 35/10/10 15/11/11 16/12/12
s off
f 16/12/13 15/11/14 10/13/15 9/14/16
s 2
f 2/63/17 1/60/18 25/59/19 26/57/20
s 3
f 5/19/21 6/62/22 31/21/23 32/53/24
s 4
f 10/13/25 15/11/26 17/23/27 18/24/28
f 15/11/26 35/10/29 36/25/30 17/23/27
f 13/7/31 11/84/32 20/85/33 19/27/34
f 27/28/35 28/29/36 10/13/25 18/24/28
s 6
f 16/12/37 9/14/38 21/30/39 22/31/40
f 9/14/38 29/32/41 30/33/42 21/30/39
f 12/81/43 14/8/44 24/34/45 23/82/46
f 33/36/47 34/9/48 16/12/37 22/31/40
s off
f 1/16/49 2/15/50 18/24/51 17/23/52
s 8
f 36/25/53 25/17/54 1/16/55 17/23/56
s off
f 4/86/57 3/38/58 19/27/59 20/85/60
s 9
f 2/15/61 26/18/62 27/28/63 18/24/64
s off
f 6/20/65 5/54/66 22/31/67 21/30/68
s 10
f 30/33/69 31/55/70 6/20/71 21/30/72
s off
f 8/39/73 7/56/74 23/82/75 24/34/76
s 11
f 5/54/77 32/22/78 33/36/79 22/31/80
s 2
f 26/57/20 25/59/19 3/64/81 4/58/82
s 9
f 27/28/63 26/18/62 4/37/83 20/26/84
s 4
f 11/6/32 28/29/36 27/28/35 20/26/33
s off
f 50/41/85 49/80/86 51/43/87 52/79/88
s 6
f 30/33/42 29/32/41 12/5/43 23/35/46
s 10
f 7/83/89 31/55/70 30/33/69 23/35/90
s 3
f 32/53/24 31/21/23 7/40/91 8/61/92
s 11
f 33/36/79 32/22/78 8/39/93 24/34/94
s 6
f 14/8/44 34/9/48 33/36/47 24/34/45
s 1
f 14/8/95 13/7/96 35/10/10 34/9/9
s 4
f 36/25/30 35/10/29 13/7/31 19/27/34
s 8
f 3/38/97 25/17/54 36/25/53 19/27/98
s 12
f 9/14/99 10/13/100 38/72/101 37/69/102
f 10/13/100 28/29/103 39/71/104 38/72/101
f 28/29/103 29/32/105 40/70/106 39/71/104
f 29/32/105 9/14/99 37/69/102 40/70/106
f 29/32/105 28/29/103 41/68/107 42/65/108
f 28/29/103 11/6/109 43/67/110 41/68/107
f 11/6/109 12/5/111 44/66/112 43/67/110
f 12/5/111 29/32/105 42/65/108 44/66/112
s off
f 37/46/113 38/45/114 46/2/115 45/75/116
f 38/45/117 39/47/118 47/3/119 46/2/120
f 39/47/121 40/73/122 48/76/123 47/3/124
f 40/48/125 37/46/126 45/75/127 48/4/128
f 42/50/129 41/49/130 49/42/131 50/78/132
f 41/49/133 43/51/134 51/43/135 49/42/136
f 43/51/137 44/74/138 52/79/139 51/43/140
f 44/52/141 42/50/142 50/78/143 52/44/144
