# This file uses centimeters as units for non-parametric coordinates.

mtllib platfrom 4.mtl
g default
v -0.382106 -0.014633 1.646830
v -0.298545 -0.014633 1.727527
v -0.382106 0.014633 1.646830
v -0.298545 0.014633 1.727527
v 0.439270 -0.014633 1.632512
v 0.358575 -0.014633 1.716073
v 0.439270 0.014633 1.632512
v 0.358575 0.014633 1.716073
v -0.439271 0.014633 -1.632511
v -0.358572 0.014633 -1.716072
v -0.439271 -0.014633 -1.632511
v -0.358572 -0.014633 -1.716072
v 0.298544 0.014633 -1.727527
v 0.382106 0.014633 -1.646830
v 0.382106 -0.014633 -1.646830
v 0.298544 -0.014633 -1.727527
v -0.298545 0.004633 1.727527
v -0.298545 -0.004633 1.727527
v 0.358575 -0.004633 1.716073
v 0.358575 0.004633 1.716073
v -0.358572 -0.004633 -1.716072
v -0.358572 0.004633 -1.716072
v 0.298544 0.004633 -1.727527
v 0.298544 -0.004633 -1.727527
v 0.439270 0.004633 1.632512
v 0.439270 -0.004633 1.632512
v 0.382106 -0.004633 -1.646830
v 0.382106 0.004633 -1.646830
v -0.439271 0.004633 -1.632511
v -0.439271 -0.004633 -1.632511
v -0.382106 -0.004633 1.646830
v -0.382106 0.004633 1.646830
v -0.304583 0.004633 1.742856
v -0.304583 -0.004633 1.742856
v 0.365146 -0.004633 1.731182
v 0.365146 0.004633 1.731182
v -0.365141 -0.004633 -1.731182
v -0.365141 0.004633 -1.731182
v 0.304583 0.004633 -1.742856
v 0.304583 -0.004633 -1.742856
v 0.454600 0.004633 1.638550
v 0.454600 -0.004633 1.638550
v 0.397216 -0.004633 -1.653400
v 0.397216 0.004633 -1.653400
v -0.454600 0.004633 -1.638550
v -0.454600 -0.004633 -1.638550
v -0.397215 -0.004633 1.653400
v -0.397215 0.004633 1.653400
vt 0.375000 0.255962
vt 0.625000 0.255962
vt 0.375000 0.494038
vt 0.625000 0.755962
vt 0.625000 0.994038
vt 0.600003 1.000000
vt 0.399998 1.000000
vt 0.375000 0.994038
vt 0.399998 0.249999
vt 0.600002 0.000000
vt 0.130962 0.249999
vt 0.130962 -0.000000
vt 0.369037 -0.000000
vt 0.399999 0.750000
vt 0.600003 0.500001
vt 0.630962 0.249999
vt 0.869037 0.000000
vt 0.869038 0.249999
vt 0.399998 0.000000
vt 0.369038 0.249999
vt 0.630962 -0.000000
vt 0.600003 0.249999
vt 0.399998 0.500001
vt 0.375000 0.755962
vt 0.625000 0.494038
vt 0.600003 0.750000
vt 0.399998 0.000000
vt 0.600002 0.000000
vt 0.600003 0.249999
vt 0.399998 0.249999
vt 0.399998 0.500001
vt 0.600003 0.500001
vt 0.600003 0.750000
vt 0.399999 0.750000
vt 0.630962 -0.000000
vt 0.869037 0.000000
vt 0.869038 0.249999
vt 0.630962 0.249999
vt 0.130962 -0.000000
vt 0.369037 -0.000000
vt 0.369038 0.249999
vt 0.130962 0.249999
vt 0.375000 0.494038
vt 0.375000 0.755962
vt 0.625000 0.494038
vt 0.625000 0.755962
vt 0.399998 0.000000
vt 0.600002 0.000000
vt 0.600003 0.249999
vt 0.399998 0.249999
vt 0.399998 0.500001
vt 0.600003 0.500001
vt 0.600003 0.750000
vt 0.399999 0.750000
vt 0.630962 -0.000000
vt 0.869037 0.000000
vt 0.869038 0.249999
vt 0.630962 0.249999
vt 0.130962 -0.000000
vt 0.369037 -0.000000
vt 0.369038 0.249999
vt 0.130962 0.249999
vt 0.375000 0.494038
vt 0.375000 0.755962
vt 0.625000 0.494038
vt 0.625000 0.755962
vn 0.017428 0.000000 0.999848
vn 0.017428 0.000000 0.999848
vn 0.017428 0.000000 0.999848
vn 0.017428 0.000000 0.999848
vn -0.017429 0.000000 -0.999848
vn -0.017429 0.000000 -0.999848
vn -0.017429 0.000000 -0.999848
vn -0.017429 0.000000 -0.999848
vn 0.999848 0.000000 -0.017429
vn 0.999848 0.000000 -0.017429
vn 0.999848 0.000000 -0.017429
vn 0.999848 0.000000 -0.017429
vn -0.999848 0.000000 0.017429
vn -0.999848 0.000000 0.017429
vn -0.999848 0.000000 0.017429
vn -0.999848 0.000000 0.017429
vn 0.000000 1.000000 0.000000
vn 0.000000 1.000000 0.000000
vn 0.000000 1.000000 0.000000
vn 0.000000 1.000000 0.000000
vn 0.000000 1.000000 0.000000
vn 0.000000 1.000000 0.000000
vn 0.000000 1.000000 0.000000
vn 0.000000 1.000000 0.000000
vn 0.000000 -1.000000 -0.000000
vn 0.000000 -1.000000 -0.000000
vn 0.000000 -1.000000 -0.000000
vn 0.000000 -1.000000 -0.000000
vn 0.000000 -1.000000 -0.000000
vn 0.000000 -1.000000 -0.000000
vn 0.000000 -1.000000 -0.000000
vn 0.000000 -1.000000 -0.000000
vn -0.694667 0.000000 0.719332
vn -0.694667 0.000000 0.719332
vn -0.694667 0.000000 0.719332
vn -0.694667 0.000000 0.719332
vn 0.719335 0.000000 0.694664
vn 0.719335 0.000000 0.694664
vn 0.719335 0.000000 0.694664
vn 0.719335 0.000000 0.694664
vn -0.719320 0.000000 -0.694679
vn -0.719320 0.000000 -0.694679
vn -0.719320 0.000000 -0.694679
vn -0.719320 0.000000 -0.694679
vn 0.694660 0.000000 -0.719338
vn 0.694660 0.000000 -0.719338
vn 0.694660 0.000000 -0.719338
vn 0.694660 0.000000 -0.719338
vn 0.017428 0.000000 0.999848
vn 0.017428 0.000000 0.999848
vn 0.017428 0.000000 0.999848
vn 0.017428 0.000000 0.999848
vn 0.017429 0.000000 0.999848
vn 0.017429 0.000000 0.999848
vn 0.017429 0.000000 0.999848
vn 0.017429 0.000000 0.999848
vn -0.017429 0.000000 -0.999848
vn -0.017429 0.000000 -0.999848
vn -0.017429 0.000000 -0.999848
vn -0.017429 0.000000 -0.999848
vn -0.017429 0.000000 -0.999848
vn -0.017429 0.000000 -0.999848
vn -0.017429 0.000000 -0.999848
vn -0.017429 0.000000 -0.999848
vn 0.999848 0.000000 -0.017429
vn 0.999848 0.000000 -0.017429
vn 0.999848 0.000000 -0.017429
vn 0.999848 0.000000 -0.017429
vn 0.999848 0.000000 -0.017429
vn 0.999848 0.000000 -0.017429
vn 0.999848 0.000000 -0.017429
vn 0.999848 0.000000 -0.017429
vn -0.999848 0.000000 0.017430
vn -0.999848 0.000000 0.017430
vn -0.999848 0.000000 0.017430
vn -0.999848 0.000000 0.017430
vn -0.999848 0.000000 0.017429
vn -0.999848 0.000000 0.017429
vn -0.999848 0.000000 0.017429
vn -0.999848 0.000000 0.017429
vn -0.694671 0.000000 0.719328
vn -0.694671 0.000000 0.719328
vn -0.694671 0.000000 0.719328
vn -0.694671 0.000000 0.719328
vn -0.694677 0.000000 0.719322
vn -0.694677 0.000000 0.719322
vn -0.694677 0.000000 0.719322
vn -0.694677 0.000000 0.719322
vn 0.719339 0.000000 0.694659
vn 0.719339 0.000000 0.694659
vn 0.719339 0.000000 0.694659
vn 0.719339 0.000000 0.694659
vn 0.719339 0.000000 0.694659
vn 0.719339 0.000000 0.694659
vn 0.719339 0.000000 0.694659
vn 0.719339 0.000000 0.694659
vn -0.719311 0.000000 -0.694688
vn -0.719311 0.000000 -0.694688
vn -0.719311 0.000000 -0.694688
vn -0.719311 0.000000 -0.694688
vn -0.719318 0.000000 -0.694681
vn -0.719318 0.000000 -0.694681
vn -0.719318 0.000000 -0.694681
vn -0.719318 0.000000 -0.694681
vn 0.694669 0.000000 -0.719330
vn 0.694669 0.000000 -0.719330
vn 0.694669 0.000000 -0.719330
vn 0.694669 0.000000 -0.719330
vn 0.694662 0.000000 -0.719336
vn 0.694662 0.000000 -0.719336
vn 0.694662 0.000000 -0.719336
vn 0.694662 0.000000 -0.719336
vn 0.000000 -1.000000 -0.000006
vn 0.000000 -1.000000 -0.000005
vn 0.000000 -1.000000 -0.000005
vn 0.000000 -1.000000 -0.000006
vn 0.000000 1.000000 0.000008
vn 0.000000 1.000000 0.000007
vn 0.000000 1.000000 0.000007
vn 0.000000 1.000000 0.000008
vn 0.000000 1.000000 -0.000002
vn 0.000000 1.000000 -0.000002
vn 0.000000 1.000000 -0.000002
vn 0.000000 1.000000 -0.000002
vn 0.000000 -1.000000 -0.000000
vn 0.000000 -1.000000 -0.000001
vn 0.000000 -1.000000 -0.000001
vn 0.000000 -1.000000 -0.000000
vn 0.000000 -1.000000 0.000000
vn 0.000000 -1.000000 0.000000
vn 0.000000 -1.000000 0.000000
vn 0.000000 -1.000000 0.000000
vn 0.000000 1.000000 -0.000000
vn 0.000000 1.000000 -0.000000
vn 0.000000 1.000000 -0.000000
vn 0.000000 1.000000 -0.000000
vn 0.000000 -1.000000 0.000000
vn 0.000000 -1.000000 0.000000
vn 0.000000 -1.000000 -0.000000
vn 0.000000 -1.000000 -0.000000
vn 0.000000 1.000000 -0.000000
vn 0.000000 1.000000 0.000000
vn 0.000000 1.000000 0.000000
vn 0.000000 1.000000 -0.000000
s off
g pCube12
usemtl initialShadingGroup
f 33/50/1 34/47/2 35/48/3 36/49/4
f 37/54/5 38/51/6 39/52/7 40/53/8
f 41/58/9 42/55/10 43/56/11 44/57/12
f 45/62/13 46/59/14 47/60/15 48/61/16
f 3/1/17 4/9/18 8/22/19 7/2/20 14/25/21 13/15/22 10/23/23 9/3/24
f 11/24/25 12/14/26 16/26/27 15/4/28 5/5/29 6/6/30 2/7/31 1/8/32
f 47/60/33 34/47/34 33/50/35 48/61/36
f 35/48/37 42/55/38 41/58/39 36/49/40
f 45/63/41 38/51/42 37/54/43 46/64/44
f 39/52/45 44/65/46 43/66/47 40/53/48
f 2/19/49 6/10/50 19/28/51 18/27/52
f 8/22/53 4/9/54 17/30/55 20/29/56
f 10/23/57 13/15/58 23/32/59 22/31/60
f 16/26/61 12/14/62 21/34/63 24/33/64
f 5/21/65 15/17/66 27/36/67 26/35/68
f 14/18/69 7/16/70 25/38/71 28/37/72
f 11/12/73 1/13/74 31/40/75 30/39/76
f 3/20/77 9/11/78 29/42/79 32/41/80
f 1/13/81 2/19/82 18/27/83 31/40/84
f 4/9/85 3/20/86 32/41/87 17/30/88
f 6/10/89 5/21/90 26/35/91 19/28/92
f 7/16/93 8/22/94 20/29/95 25/38/96
f 9/3/97 10/23/98 22/31/99 29/43/100
f 12/14/101 11/24/102 30/44/103 21/34/104
f 13/15/105 14/25/106 28/45/107 23/32/108
f 15/4/109 16/26/110 24/33/111 27/46/112
s 1
f 18/27/113 19/28/114 35/48/115 34/47/116
s 2
f 20/29/117 17/30/118 33/50/119 36/49/120
f 22/31/121 23/32/122 39/52/123 38/51/124
s 1
f 24/33/125 21/34/126 37/54/127 40/53/128
f 26/35/129 27/36/130 43/56/131 42/55/132
s 2
f 28/37/133 25/38/134 41/58/135 44/57/136
s 1
f 30/39/137 31/40/138 47/60/139 46/59/140
s 2
f 32/41/141 29/42/142 45/62/143 48/61/144
s 1
f 31/40/138 18/27/113 34/47/116 47/60/139
s 2
f 17/30/118 32/41/141 48/61/144 33/50/119
s 1
f 19/28/114 26/35/129 42/55/132 35/48/115
s 2
f 25/38/134 20/29/117 36/49/120 41/58/135
f 29/43/142 22/31/121 38/51/124 45/63/143
s 1
f 21/34/126 30/44/137 46/64/140 37/54/127
s 2
f 23/32/122 28/45/133 44/65/136 39/52/123
s 1
f 27/46/130 24/33/125 40/53/128 43/66/131
