# This file uses centimeters as units for non-parametric coordinates.

mtllib strut.mtl
g default
v -0.385709 0.917081 0.036452
v -0.385002 0.870649 0.036620
v -0.346702 0.940510 0.045726
v -0.327317 0.870649 -0.205987
v -0.328024 0.917081 -0.206155
v -0.289017 0.940510 -0.196881
v 0.352314 0.923902 0.211931
v 0.313307 0.940510 0.202656
v 0.368472 0.883807 0.215772
v 0.426156 0.883807 -0.026834
v 0.370992 0.940510 -0.039951
v 0.409999 0.923902 -0.030676
v 0.338862 -0.299369 0.208732
v 0.368472 -0.259274 0.215772
v 0.293331 -0.280836 0.197906
v 0.396547 -0.299369 -0.033875
v 0.351015 -0.280836 -0.044701
v 0.426156 -0.259274 -0.026834
v -0.307911 0.940510 -0.117418
v -0.327808 0.940510 -0.033737
v 0.332201 0.940510 0.123193
v 0.352098 0.940510 0.039512
v 0.387366 -0.259274 0.136310
v 0.407263 -0.259274 0.052628
v 0.407263 0.883807 0.052628
v 0.387366 0.883807 0.136310
v 0.332121 -0.280836 0.034762
v 0.312224 -0.280836 0.118443
v -0.366108 0.870649 -0.042843
v -0.346211 0.870649 -0.126524
v -0.366815 0.917081 -0.043011
v -0.346918 0.917081 -0.126692
v 0.371208 0.923902 0.132468
v 0.391105 0.923902 0.048787
v 0.357756 -0.299369 0.129269
v 0.377653 -0.299369 0.045588
v -0.319455 0.984339 -0.120163
v -0.339352 0.984339 -0.036481
v 0.340959 0.985761 0.125275
v 0.360855 0.985761 0.041594
v 0.428476 -0.273495 0.146084
v 0.448373 -0.273495 0.062403
v 0.451286 0.892808 0.063096
v 0.431390 0.892808 0.146777
v 0.304122 -0.314888 0.028105
v 0.284225 -0.314888 0.111786
v -0.408562 0.858098 -0.052937
v -0.388665 0.858098 -0.136619
v -0.401239 0.937021 -0.051196
v -0.381343 0.937021 -0.134878
v 0.401106 0.954634 0.139577
v 0.421003 0.954634 0.055896
v 0.367559 -0.335459 0.131600
v 0.387455 -0.335459 0.047919
v 0.328740 -0.245530 0.206326
v 0.325451 -0.249985 0.205543
v 0.328740 0.875684 0.206326
v 0.321906 0.892645 0.204700
v 0.305404 0.899671 0.200777
v -0.335944 0.899671 0.048284
v -0.345619 0.893860 0.045984
v -0.345444 0.882344 0.046025
v 0.320391 -0.247926 0.204340
v 0.378076 -0.247926 -0.038266
v 0.383135 -0.249985 -0.037064
v -0.287759 0.882344 -0.196581
v -0.287934 0.893860 -0.196623
v -0.278260 0.899671 -0.194323
v 0.363089 0.899671 -0.041830
v 0.379590 0.892645 -0.037906
v 0.386425 0.875684 -0.036281
v 0.386425 -0.245530 -0.036281
vt 0.874989 0.027641
vt 0.125001 0.237052
vt 0.386368 0.237052
vt 0.399997 0.500000
vt 0.607645 0.250000
vt 0.874999 0.239491
vt 0.597877 0.027639
vt 0.125011 0.023645
vt 0.623718 0.239491
vt 0.399997 0.250000
vt 0.573749 0.023643
vt 0.601354 0.726363
vt 0.387947 0.512948
vt 0.607645 0.500000
vt 0.625000 0.510509
vt 0.624994 0.722367
vt 0.375000 0.250000
vt 0.375000 0.500000
vt 0.125000 0.250000
vt 0.625000 0.250000
vt 0.875000 0.250000
vt 0.625000 0.500000
vt 0.594506 0.000003
vt 0.125013 0.000005
vt 0.624994 0.750004
vt 0.874987 0.000005
vt 0.399997 0.250000
vt 0.607645 0.250000
vt 0.607645 0.500000
vt 0.399997 0.500000
vt 0.874989 0.027641
vt 0.874999 0.239491
vt 0.623718 0.239491
vt 0.597877 0.027639
vt 0.573749 0.023643
vt 0.386368 0.237052
vt 0.125001 0.237052
vt 0.125011 0.023645
vt 0.375000 0.250000
vt 0.125000 0.250000
vt 0.375000 0.500000
vt 0.625000 0.250000
vt 0.625000 0.500000
vt 0.875000 0.250000
vt 0.594506 0.000003
vt 0.874987 0.000005
vt 0.125013 0.000005
vt 0.399997 0.250000
vt 0.607645 0.250000
vt 0.607645 0.500000
vt 0.399997 0.500000
vt 0.874989 0.027641
vt 0.874999 0.239491
vt 0.623718 0.239491
vt 0.597877 0.027639
vt 0.573749 0.023643
vt 0.386368 0.237052
vt 0.125001 0.237052
vt 0.125011 0.023645
vt 0.375000 0.250000
vt 0.125000 0.250000
vt 0.375000 0.500000
vt 0.625000 0.250000
vt 0.625000 0.500000
vt 0.875000 0.250000
vt 0.594506 0.000003
vt 0.874987 0.000005
vt 0.125013 0.000005
vt 0.594506 0.000003
vt 0.597877 0.027639
vt 0.623718 0.239491
vt 0.625000 0.250000
vt 0.607645 0.250000
vt 0.399997 0.250000
vt 0.375000 0.250000
vt 0.386368 0.237052
vt 0.573749 0.023643
vt 0.624994 0.750004
vt 0.601354 0.726363
vt 0.387947 0.512948
vt 0.375000 0.500000
vt 0.399997 0.500000
vt 0.607645 0.500000
vt 0.625000 0.500000
vt 0.625000 0.510509
vt 0.624994 0.722367
vn -0.001979 0.999998 -0.000470
vn -0.001979 0.999998 -0.000470
vn 0.037942 0.999239 0.009022
vn 0.037942 0.999239 0.009022
vn 0.972874 -0.002568 0.231319
vn 0.972874 -0.002568 0.231319
vn 0.972623 0.022901 0.231260
vn 0.972623 0.022901 0.231260
vn -0.831625 -0.518942 -0.197735
vn -0.831625 -0.518942 -0.197735
vn -0.831625 -0.518942 -0.197735
vn -0.831625 -0.518942 -0.197735
vn -0.968483 0.094939 -0.230276
vn -0.968483 0.094939 -0.230275
vn -0.968483 0.094939 -0.230276
vn -0.968483 0.094939 -0.230276
vn -0.580645 0.802366 -0.138059
vn -0.580645 0.802366 -0.138059
vn -0.580645 0.802366 -0.138059
vn -0.580645 0.802366 -0.138059
vn 0.437501 0.893181 0.104024
vn 0.437501 0.893181 0.104024
vn 0.868958 0.449693 0.206612
vn 0.868958 0.449693 0.206612
vn 0.684320 -0.710797 0.162710
vn 0.684320 -0.710797 0.162710
vn 0.684320 -0.710797 0.162710
vn 0.684320 -0.710797 0.162710
vn -0.227187 -0.972352 -0.054018
vn -0.227187 -0.972352 -0.054018
vn -0.227187 -0.972352 -0.054018
vn -0.227187 -0.972352 -0.054018
vn 0.000000 1.000000 -0.000000
vn 0.022482 0.999733 0.005345
vn 0.022482 0.999733 0.005345
vn 0.000000 1.000000 -0.000000
vn 0.022482 0.999733 0.005345
vn 0.000000 1.000000 0.000000
vn 0.000000 1.000000 0.000000
vn 0.022482 0.999733 0.005345
vn 0.972878 0.000000 0.231321
vn 0.972782 0.014035 0.231298
vn 0.972782 0.014035 0.231298
vn 0.972878 0.000000 0.231321
vn 0.972782 0.014035 0.231298
vn 0.972878 0.000000 0.231320
vn 0.972878 0.000000 0.231320
vn 0.972782 0.014035 0.231298
vn -0.832204 -0.517961 -0.197872
vn -0.832204 -0.517961 -0.197872
vn -0.832204 -0.517961 -0.197872
vn -0.832204 -0.517961 -0.197872
vn -0.832204 -0.517961 -0.197872
vn -0.832204 -0.517961 -0.197872
vn -0.832204 -0.517961 -0.197872
vn -0.832204 -0.517961 -0.197872
vn -0.972759 -0.015650 -0.231292
vn -0.972759 -0.015650 -0.231292
vn -0.972759 -0.015650 -0.231292
vn -0.972759 -0.015650 -0.231292
vn -0.972759 -0.015651 -0.231292
vn -0.972759 -0.015651 -0.231292
vn -0.972759 -0.015651 -0.231292
vn -0.972759 -0.015651 -0.231292
vn -0.490830 0.863403 -0.116705
vn -0.490830 0.863403 -0.116705
vn -0.490830 0.863403 -0.116705
vn -0.490830 0.863403 -0.116705
vn -0.490830 0.863404 -0.116705
vn -0.490830 0.863404 -0.116705
vn -0.490830 0.863404 -0.116705
vn -0.490830 0.863404 -0.116705
vn 0.372307 0.923878 0.088523
vn 0.372307 0.923878 0.088523
vn 0.372307 0.923878 0.088523
vn 0.372307 0.923878 0.088523
vn 0.898822 0.382684 0.213712
vn 0.898822 0.382684 0.213712
vn 0.898822 0.382684 0.213713
vn 0.898822 0.382684 0.213713
vn 0.774914 -0.604615 0.184251
vn 0.774914 -0.604615 0.184251
vn 0.774914 -0.604615 0.184251
vn 0.774914 -0.604615 0.184251
vn 0.774914 -0.604616 0.184251
vn 0.774914 -0.604616 0.184251
vn 0.774914 -0.604616 0.184251
vn 0.774914 -0.604616 0.184251
vn -0.358193 -0.929755 -0.085167
vn -0.358193 -0.929755 -0.085167
vn -0.358193 -0.929755 -0.085167
vn -0.358193 -0.929755 -0.085167
vn -0.358194 -0.929755 -0.085167
vn -0.358194 -0.929755 -0.085167
vn -0.358194 -0.929755 -0.085167
vn -0.358194 -0.929755 -0.085167
vn -0.231320 0.000000 0.972878
vn -0.231320 0.000000 0.972878
vn -0.231320 0.000000 0.972878
vn -0.231320 0.000000 0.972878
vn 0.231320 -0.000000 -0.972878
vn 0.231320 -0.000000 -0.972878
vn 0.231320 -0.000000 -0.972878
vn 0.231320 -0.000000 -0.972878
vn 0.231320 0.000000 -0.972878
vn 0.231320 -0.000000 -0.972878
vn 0.231320 -0.000000 -0.972878
vn 0.231320 0.000000 -0.972878
vn -0.231320 -0.000000 0.972878
vn -0.231320 0.000000 0.972878
vn -0.231320 0.000000 0.972878
vn -0.231320 -0.000000 0.972878
vn -0.231320 0.000000 0.972878
vn -0.231320 0.000000 0.972878
vn -0.231320 0.000000 0.972878
vn -0.231320 0.000000 0.972878
vn 0.231320 0.000000 -0.972878
vn 0.231320 0.000000 -0.972878
vn 0.231320 0.000000 -0.972878
vn 0.231320 0.000000 -0.972878
vn -0.231320 -0.000000 0.972878
vn -0.231320 -0.000000 0.972878
vn 0.231321 -0.000000 -0.972878
vn 0.231321 -0.000000 -0.972878
vn -0.231320 -0.000000 0.972878
vn -0.231320 -0.000000 0.972878
vn 0.231320 -0.000000 -0.972878
vn 0.231320 0.000000 -0.972878
vn -0.231320 0.000000 0.972878
vn -0.231320 0.000000 0.972878
vn 0.231320 0.000000 -0.972878
vn 0.231320 0.000000 -0.972878
vn -0.231320 -0.000000 0.972878
vn -0.231320 -0.000000 0.972878
vn -0.231320 -0.000000 0.972878
vn -0.231320 -0.000000 0.972878
vn -0.231320 0.000000 0.972878
vn -0.231320 0.000000 0.972878
vn -0.231320 0.000000 0.972878
vn -0.231320 0.000000 0.972878
vn -0.231321 -0.000000 0.972878
vn -0.231321 -0.000000 0.972878
vn -0.231321 -0.000000 0.972878
vn -0.231321 -0.000000 0.972878
vn -0.231320 -0.000000 0.972878
vn -0.231320 -0.000000 0.972878
vn -0.231320 0.000000 0.972878
vn -0.231320 0.000000 0.972878
vn -0.231320 0.000000 0.972878
vn -0.231320 0.000000 0.972878
vn 0.231320 -0.000000 -0.972878
vn 0.231320 -0.000000 -0.972878
vn 0.231320 -0.000000 -0.972878
vn 0.231320 -0.000000 -0.972878
vn 0.231320 -0.000000 -0.972878
vn 0.231320 -0.000000 -0.972878
vn 0.231320 0.000000 -0.972878
vn 0.231320 0.000000 -0.972878
vn 0.231321 -0.000000 -0.972878
vn 0.231321 -0.000000 -0.972878
vn 0.231321 -0.000000 -0.972878
vn 0.231321 -0.000000 -0.972878
vn 0.231320 0.000000 -0.972878
vn 0.231320 0.000000 -0.972878
vn 0.231320 0.000000 -0.972878
vn 0.231320 0.000000 -0.972878
vn 0.231320 -0.000000 -0.972878
vn 0.231320 -0.000000 -0.972878
vn -0.774953 0.604563 -0.184260
vn -0.774953 0.604563 -0.184260
vn -0.774953 0.604563 -0.184260
vn -0.774953 0.604563 -0.184260
vn -0.972878 0.000000 -0.231320
vn -0.972878 0.000000 -0.231320
vn -0.972878 0.000000 -0.231320
vn -0.972878 0.000000 -0.231320
vn -0.898828 -0.382668 -0.213714
vn -0.898828 -0.382668 -0.213714
vn -0.898828 -0.382669 -0.213714
vn -0.898828 -0.382669 -0.213714
vn -0.372303 -0.923880 -0.088522
vn -0.372303 -0.923880 -0.088522
vn -0.372303 -0.923880 -0.088522
vn -0.372303 -0.923880 -0.088522
vn 0.000000 -1.000000 -0.000000
vn 0.000000 -1.000000 -0.000000
vn 0.000000 -1.000000 -0.000000
vn 0.000000 -1.000000 -0.000000
vn 0.490841 -0.863397 0.116707
vn 0.490841 -0.863397 0.116707
vn 0.490840 -0.863397 0.116707
vn 0.490841 -0.863397 0.116707
vn 0.972759 0.015622 0.231292
vn 0.972759 0.015622 0.231292
vn 0.972759 0.015622 0.231292
vn 0.972759 0.015622 0.231292
vn 0.832203 0.517962 0.197872
vn 0.832203 0.517962 0.197872
vn 0.832203 0.517962 0.197872
vn 0.832203 0.517962 0.197872
vn 0.358198 0.929753 0.085169
vn 0.358198 0.929753 0.085169
vn 0.358198 0.929753 0.085169
vn 0.358198 0.929753 0.085169
s 1
g pCube5
usemtl initialShadingGroup
f 37/51/1 38/48/2 39/49/3 40/50/4
s 2
f 41/55/5 42/52/6 43/53/7 44/54/8
s off
f 45/59/9 46/56/10 47/57/11 48/58/12
f 47/57/13 49/60/14 50/61/15 48/58/16
f 49/60/17 38/48/18 37/51/19 50/62/20
s 1
f 39/49/3 51/63/21 52/64/22 40/50/4
s 2
f 51/63/23 44/54/8 43/53/7 52/65/24
s off
f 41/55/25 53/66/26 54/67/27 42/52/28
f 53/66/29 46/56/30 45/59/31 54/68/32
s 3
f 3/10/33 8/5/34 21/28/35 20/27/36
s 4
f 11/14/37 6/4/38 19/30/39 22/29/40
s 5
f 18/1/41 10/6/42 25/32/43 24/31/44
s 6
f 9/9/45 14/7/46 23/34/47 26/33/48
s off
f 15/11/49 2/3/50 29/36/51 28/35/52
f 4/2/53 17/8/54 27/38/55 30/37/56
f 2/3/57 1/17/58 31/39/59 29/36/60
f 5/19/61 4/2/62 30/37/63 32/40/64
f 1/17/65 3/10/66 20/27/67 31/39/68
f 6/4/69 5/18/70 32/41/71 19/30/72
s 3
f 8/5/34 7/20/73 33/42/74 21/28/35
s 4
f 12/22/75 11/14/37 22/29/40 34/43/76
s 6
f 7/20/77 9/9/45 26/33/48 33/42/78
s 5
f 10/6/42 12/21/79 34/44/80 25/32/43
s off
f 14/7/81 13/23/82 35/45/83 23/34/84
f 16/26/85 18/1/86 24/31/87 36/46/88
f 13/23/89 15/11/90 28/35/91 35/45/92
f 17/8/93 16/24/94 36/47/95 27/38/96
s 7
f 20/27/97 21/28/98 39/49/99 38/48/100
s 8
f 22/29/101 19/30/102 37/51/103 40/50/104
f 24/31/105 25/32/106 43/53/107 42/52/108
s 7
f 26/33/109 23/34/110 41/55/111 44/54/112
f 28/35/113 29/36/114 47/57/115 46/56/116
s 8
f 30/37/117 27/38/118 45/59/119 48/58/120
s 7
f 29/36/114 31/39/121 49/60/122 47/57/115
s 8
f 32/40/123 30/37/117 48/58/120 50/61/124
s 7
f 31/39/121 20/27/97 38/48/100 49/60/122
s 8
f 19/30/102 32/41/123 50/62/124 37/51/103
s 7
f 21/28/98 33/42/125 51/63/126 39/49/99
s 8
f 34/43/127 22/29/101 40/50/104 52/64/128
s 7
f 33/42/125 26/33/109 44/54/112 51/63/126
s 8
f 25/32/106 34/44/127 52/65/128 43/53/107
s 7
f 23/34/110 35/45/129 53/66/130 41/55/111
s 8
f 36/46/131 24/31/105 42/52/108 54/67/132
s 7
f 35/45/129 28/35/113 46/56/116 53/66/130
s 8
f 27/38/118 36/47/131 54/68/132 45/59/119
s 13
f 13/23/133 14/7/134 55/70/135 56/69/136
f 14/7/134 9/9/137 57/71/138 55/70/135
f 9/9/137 7/20/139 58/72/140 57/71/138
f 7/20/139 8/5/141 59/73/142 58/72/140
f 8/5/141 3/10/143 60/74/144 59/73/142
f 3/10/143 1/17/145 61/75/146 60/74/144
f 1/17/145 2/3/147 62/76/148 61/75/146
f 2/3/147 15/11/149 63/77/150 62/76/148
f 15/11/149 13/23/133 56/69/136 63/77/150
s 14
f 16/25/151 17/12/152 64/79/153 65/78/154
f 17/12/152 4/13/155 66/80/156 64/79/153
f 4/13/155 5/18/157 67/81/158 66/80/156
f 5/18/157 6/4/159 68/82/160 67/81/158
f 6/4/159 11/14/161 69/83/162 68/82/160
f 11/14/161 12/22/163 70/84/164 69/83/162
f 12/22/163 10/15/165 71/85/166 70/84/164
f 10/15/165 18/16/167 72/86/168 71/85/166
f 18/16/167 16/25/151 65/78/154 72/86/168
s off
f 56/69/169 55/70/170 72/86/171 65/78/172
f 55/70/173 57/71/174 71/85/175 72/86/176
f 57/71/177 58/72/178 70/84/179 71/85/180
f 58/72/181 59/73/182 69/83/183 70/84/184
f 59/73/185 60/74/186 68/82/187 69/83/188
f 60/74/189 61/75/190 67/81/191 68/82/192
f 61/75/193 62/76/194 66/80/195 67/81/196
f 62/76/197 63/77/198 64/79/199 66/80/200
f 63/77/201 56/69/202 65/78/203 64/79/204
